<svg xmlns="http://www.w3.org/2000/svg" width="691.95166015625" height="667.077392578125" viewBox="-216.2979736328125 -221.44003295898438 691.95166015625 667.077392578125"><title>Neo4j Graph Visualization</title><desc>Created using Neo4j (http://www.neo4j.com/)</desc><g class="layer relationships"><g class="relationship" transform="translate(385.2350229921326 148.40322227621905) rotate(434.66516923580707)"><path class="outline" fill="#A5ABB6" stroke="none" d="M 30 0.5 L 59.16964633216172 0.5 L 59.16964633216172 -0.5 L 30 -0.5 Z M 87.40011508216172 0.5 L 116.56976141432344 0.5 L 116.56976141432344 3.5 L 123.56976141432344 0 L 116.56976141432344 -3.5 L 116.56976141432344 -0.5 L 87.40011508216172 -0.5 Z"/><text text-anchor="middle" pointer-events="none" font-size="8px" fill="#000000" x="73.28488070716172" y="3" font-family="sans-serif">partOf</text></g><g class="relationship" transform="translate(193.83154609149528 97.72129534820792) rotate(332.19787447971817)"><path class="outline" fill="#A5ABB6" stroke="none" d="M 32.5 0.5 L 74.27153196727879 0.5 L 74.27153196727879 -0.5 L 32.5 -0.5 Z M 86.94340696727879 0.5 L 128.71493893455758 0.5 L 128.71493893455758 3.5 L 135.71493893455758 0 L 128.71493893455758 -3.5 L 128.71493893455758 -0.5 L 86.94340696727879 -0.5 Z"/><text text-anchor="middle" pointer-events="none" font-size="8px" fill="#000000" x="80.60746946727879" y="3" font-family="sans-serif">to</text></g><g class="relationship" transform="translate(193.83154609149528 97.72129534820792) rotate(374.8310398961142)"><path class="outline" fill="#A5ABB6" stroke="none" d="M 32.5 0.5 L 90.41399771057105 0.5 L 90.41399771057105 -0.5 L 32.5 -0.5 Z M 103.08587271057105 0.5 L 160.9998704211421 0.5 L 160.9998704211421 3.5 L 167.9998704211421 0 L 160.9998704211421 -3.5 L 160.9998704211421 -0.5 L 103.08587271057105 -0.5 Z"/><text text-anchor="middle" pointer-events="none" font-size="8px" fill="#000000" x="96.74993521057105" y="3" font-family="sans-serif">to</text></g><g class="relationship" transform="translate(188.8489803256677 257.974324941756) rotate(497.70998947831873)"><path class="outline" fill="#A5ABB6" stroke="none" d="M 35 0.5 L 77.30827896662778 0.5 L 77.30827896662778 -0.5 L 35 -0.5 Z M 96.20671646662778 0.5 L 138.51499543325556 0.5 L 138.51499543325556 3.5 L 145.51499543325556 0 L 138.51499543325556 -3.5 L 138.51499543325556 -0.5 L 96.20671646662778 -0.5 Z"/><text text-anchor="middle" pointer-events="none" font-size="8px" fill="#000000" x="86.75749771662778" y="3" transform="rotate(180 86.75749771662778 0)" font-family="sans-serif">has</text></g><g class="relationship" transform="translate(188.8489803256677 257.974324941756) rotate(215.52302343088274)"><path class="outline" fill="#A5ABB6" stroke="none" d="M 35 0.5 L 84.28347734578092 0.5 L 84.28347734578092 -0.5 L 35 -0.5 Z M 103.18191484578092 0.5 L 152.46539219156185 0.5 L 152.46539219156185 3.5 L 159.46539219156185 0 L 152.46539219156185 -3.5 L 152.46539219156185 -0.5 L 103.18191484578092 -0.5 Z"/><text text-anchor="middle" pointer-events="none" font-size="8px" fill="#000000" x="93.73269609578092" y="3" transform="rotate(180 93.73269609578092 0)" font-family="sans-serif">has</text></g><g class="relationship" transform="translate(188.8489803256677 257.974324941756) rotate(215.10524379359418)"><path class="outline" fill="#A5ABB6" stroke="none" d="M 35 0.5 L 46.92278983451265 0.5 L 46.92278983451265 -0.5 L 35 -0.5 Z M 65.82122733451266 0.5 L 77.7440171690253 0.5 L 77.7440171690253 3.5 L 84.7440171690253 0 L 77.7440171690253 -3.5 L 77.7440171690253 -0.5 L 65.82122733451266 -0.5 Z"/><text text-anchor="middle" pointer-events="none" font-size="8px" fill="#000000" x="56.37200858451265" y="3" transform="rotate(180 56.37200858451265 0)" font-family="sans-serif">has</text></g><g class="relationship" transform="translate(188.8489803256677 257.974324941756) rotate(325.4907946349241)"><path class="outline" fill="#A5ABB6" stroke="none" d="M 35 0.5 L 59.75123837674775 0.5 L 59.75123837674775 -0.5 L 35 -0.5 Z M 78.64967587674775 0.5 L 103.4009142534955 0.5 L 103.4009142534955 3.5 L 110.4009142534955 0 L 103.4009142534955 -3.5 L 103.4009142534955 -0.5 L 78.64967587674775 -0.5 Z"/><text text-anchor="middle" pointer-events="none" font-size="8px" fill="#000000" x="69.20045712674775" y="3" font-family="sans-serif">has</text></g><g class="relationship" transform="translate(188.8489803256677 257.974324941756) rotate(298.39635155499764)"><path class="outline" fill="#A5ABB6" stroke="none" d="M 35 0.5 L 70.53963258962551 0.5 L 70.53963258962551 -0.5 L 35 -0.5 Z M 89.43807008962551 0.5 L 124.97770267925102 0.5 L 124.97770267925102 3.5 L 131.97770267925102 0 L 124.97770267925102 -3.5 L 124.97770267925102 -0.5 L 89.43807008962551 -0.5 Z"/><text text-anchor="middle" pointer-events="none" font-size="8px" fill="#000000" x="79.98885133962551" y="3" font-family="sans-serif">has</text></g><g class="relationship" transform="translate(188.8489803256677 257.974324941756) rotate(271.7808590078397)"><path class="outline" fill="#A5ABB6" stroke="none" d="M 35 0.5 L 68.46601600846839 0.5 L 68.46601600846839 -0.5 L 35 -0.5 Z M 87.36445350846839 0.5 L 120.83046951693677 0.5 L 120.83046951693677 3.5 L 127.83046951693677 0 L 120.83046951693677 -3.5 L 120.83046951693677 -0.5 L 87.36445350846839 -0.5 Z"/><text text-anchor="middle" pointer-events="none" font-size="8px" fill="#000000" x="77.91523475846839" y="3" font-family="sans-serif">has</text></g><g class="relationship" transform="translate(336.14668284404974 375.2564909239753) rotate(324.35538114385815)"><path class="outline" fill="#A5ABB6" stroke="none" d="M 37.5 0.5 L 38.44348749109634 0.5 L 38.44348749109634 -0.5 L 37.5 -0.5 Z M 64.00598749109633 0.5 L 64.94947498219268 0.5 L 64.94947498219268 3.5 L 71.94947498219268 0 L 64.94947498219268 -3.5 L 64.94947498219268 -0.5 L 64.00598749109633 -0.5 Z"/><text text-anchor="middle" pointer-events="none" font-size="8px" fill="#000000" x="51.22473749109634" y="3" font-family="sans-serif">par…</text></g><g class="relationship" transform="translate(336.14668284404974 375.2564909239753) rotate(522.4389831579169)"><path class="outline" fill="#A5ABB6" stroke="none" d="M 37.5 0.5 L 38.96717085089588 0.5 L 38.96717085089588 -0.5 L 37.5 -0.5 Z M 38.96717085089588 0.5 L 40.434341701791766 0.5 L 40.434341701791766 3.5 L 47.434341701791766 0 L 40.434341701791766 -3.5 L 40.434341701791766 -0.5 L 38.96717085089588 -0.5 Z"/><text text-anchor="middle" pointer-events="none" font-size="8px" fill="#000000" x="38.96717085089588" y="3" transform="rotate(180 38.96717085089588 0)" font-family="sans-serif"/></g><g class="relationship" transform="translate(336.14668284404974 375.2564909239753) rotate(218.52769264455628)"><path class="outline" fill="#A5ABB6" stroke="none" d="M 37.5 0.5 L 68.6568070796906 0.5 L 68.6568070796906 -0.5 L 37.5 -0.5 Z M 115.1294633296906 0.5 L 146.2862704093812 0.5 L 146.2862704093812 3.5 L 153.2862704093812 0 L 146.2862704093812 -3.5 L 146.2862704093812 -0.5 L 115.1294633296906 -0.5 Z"/><text text-anchor="middle" pointer-events="none" font-size="8px" fill="#000000" x="91.8931352046906" y="3" transform="rotate(180 91.8931352046906 0)" font-family="sans-serif">assignedTo</text></g><g class="relationship" transform="translate(252.78711590851862 401.63729282889074) rotate(332.17729065081267)"><path class="outline" fill="#A5ABB6" stroke="none" d="M 40 0.5 L 80.84496368349173 0.5 L 80.84496368349173 -0.5 L 40 -0.5 Z M 109.07543243349173 0.5 L 149.92039611698345 0.5 L 149.92039611698345 3.5 L 156.92039611698345 0 L 149.92039611698345 -3.5 L 149.92039611698345 -0.5 L 109.07543243349173 -0.5 Z"/><text text-anchor="middle" pointer-events="none" font-size="8px" fill="#000000" x="94.96019805849173" y="3" font-family="sans-serif">partOf</text></g><g class="relationship" transform="translate(252.78711590851862 401.63729282889074) rotate(246.0082346175609)"><path class="outline" fill="#A5ABB6" stroke="none" d="M 40 0.5 L 54.38798987514379 0.5 L 54.38798987514379 -0.5 L 40 -0.5 Z M 100.86064612514379 0.5 L 115.24863600028758 0.5 L 115.24863600028758 3.5 L 122.24863600028758 0 L 115.24863600028758 -3.5 L 115.24863600028758 -0.5 L 100.86064612514379 -0.5 Z"/><text text-anchor="middle" pointer-events="none" font-size="8px" fill="#000000" x="77.62431800014379" y="3" transform="rotate(180 77.62431800014379 0)" font-family="sans-serif">assignedTo</text></g><g class="relationship" transform="translate(340.41696113126983 20.428623744095383) rotate(273.17317368674077)"><path class="outline" fill="#A5ABB6" stroke="none" d="M 30 0.5 L 64.53419648496173 0.5 L 64.53419648496173 -0.5 L 30 -0.5 Z M 92.76466523496173 0.5 L 127.29886171992345 0.5 L 127.29886171992345 3.5 L 134.29886171992345 0 L 127.29886171992345 -3.5 L 127.29886171992345 -0.5 L 92.76466523496173 -0.5 Z"/><text text-anchor="middle" pointer-events="none" font-size="8px" fill="#000000" x="78.64943085996173" y="3" font-family="sans-serif">partOf</text></g><g class="relationship" transform="translate(267.06934440649513 113.2867673505557) rotate(308.30481584636095)"><path class="outline" fill="#A5ABB6" stroke="none" d="M 32.5 0.5 L 50.58015860503818 0.5 L 50.58015860503818 -0.5 L 32.5 -0.5 Z M 63.25203360503818 0.5 L 81.33219221007636 0.5 L 81.33219221007636 3.5 L 88.33219221007636 0 L 81.33219221007636 -3.5 L 81.33219221007636 -0.5 L 63.25203360503818 -0.5 Z"/><text text-anchor="middle" pointer-events="none" font-size="8px" fill="#000000" x="56.91609610503818" y="3" font-family="sans-serif">to</text></g><g class="relationship" transform="translate(267.06934440649513 113.2867673505557) rotate(376.55088675727467)"><path class="outline" fill="#A5ABB6" stroke="none" d="M 32.5 0.5 L 53.050685140582615 0.5 L 53.050685140582615 -0.5 L 32.5 -0.5 Z M 65.72256014058262 0.5 L 86.27324528116523 0.5 L 86.27324528116523 3.5 L 93.27324528116523 0 L 86.27324528116523 -3.5 L 86.27324528116523 -0.5 L 65.72256014058262 -0.5 Z"/><text text-anchor="middle" pointer-events="none" font-size="8px" fill="#000000" x="59.386622640582615" y="3" font-family="sans-serif">to</text></g><g class="relationship" transform="translate(6.466233147517629 9.575444270821524) rotate(439.1847012325052)"><path class="outline" fill="#A5ABB6" stroke="none" d="M 35 0.5 L 57.96889296989208 0.5 L 57.96889296989208 -0.5 L 35 -0.5 Z M 76.86733046989208 0.5 L 99.83622343978416 0.5 L 99.83622343978416 3.5 L 106.83622343978416 0 L 99.83622343978416 -3.5 L 99.83622343978416 -0.5 L 76.86733046989208 -0.5 Z"/><text text-anchor="middle" pointer-events="none" font-size="8px" fill="#000000" x="67.41811171989208" y="3" font-family="sans-serif">has</text></g><g class="relationship" transform="translate(6.466233147517629 9.575444270821524) rotate(385.1945988155515)"><path class="outline" fill="#A5ABB6" stroke="none" d="M 35 0.5 L 91.83272264582172 0.5 L 91.83272264582172 -0.5 L 35 -0.5 Z M 110.73116014582172 0.5 L 167.56388279164344 0.5 L 167.56388279164344 3.5 L 174.56388279164344 0 L 167.56388279164344 -3.5 L 167.56388279164344 -0.5 L 110.73116014582172 -0.5 Z"/><text text-anchor="middle" pointer-events="none" font-size="8px" fill="#000000" x="101.28194139582172" y="3" font-family="sans-serif">has</text></g><g class="relationship" transform="translate(314.3476509008792 293.1945443974093) rotate(367.6232544388336)"><path class="outline" fill="#A5ABB6" stroke="none" d="M 37.5 0.5 L 37.799668280289424 0.5 L 37.799668280289424 -0.5 L 37.5 -0.5 Z M 66.03013703028942 0.5 L 66.32980531057885 0.5 L 66.32980531057885 3.5 L 73.32980531057885 0 L 66.32980531057885 -3.5 L 66.32980531057885 -0.5 L 66.03013703028942 -0.5 Z"/><text text-anchor="middle" pointer-events="none" font-size="8px" fill="#000000" x="51.914902655289424" y="3" font-family="sans-serif">partOf</text></g><g class="relationship" transform="translate(314.3476509008792 293.1945443974093) rotate(479.5826131305958)"><path class="outline" fill="#A5ABB6" stroke="none" d="M 37.5 0.5 L 39.48559435317192 0.5 L 39.48559435317192 -0.5 L 37.5 -0.5 Z M 75.71215685317192 0.5 L 77.69775120634384 0.5 L 77.69775120634384 3.5 L 84.69775120634384 0 L 77.69775120634384 -3.5 L 77.69775120634384 -0.5 L 75.71215685317192 -0.5 Z"/><text text-anchor="middle" pointer-events="none" font-size="8px" fill="#000000" x="57.59887560317192" y="3" transform="rotate(180 57.59887560317192 0)" font-family="sans-serif">memb…</text></g><g class="relationship" transform="translate(314.3476509008792 293.1945443974093) rotate(195.6763595784564)"><path class="outline" fill="#A5ABB6" stroke="none" d="M 37.5 0.5 L 39.687248143779826 0.5 L 39.687248143779826 -0.5 L 37.5 -0.5 Z M 86.15990439377983 0.5 L 88.34715253755965 0.5 L 88.34715253755965 3.5 L 95.34715253755965 0 L 88.34715253755965 -3.5 L 88.34715253755965 -0.5 L 86.15990439377983 -0.5 Z"/><text text-anchor="middle" pointer-events="none" font-size="8px" fill="#000000" x="62.923576268779826" y="3" transform="rotate(180 62.923576268779826 0)" font-family="sans-serif">assignedTo</text></g><g class="relationship" transform="translate(232.62386159028952 -111.17382600144006) rotate(339.0889228763458)"><path class="outline" fill="#A5ABB6" stroke="none" d="M 40 0.5 L 44.06976223316775 0.5 L 44.06976223316775 -0.5 L 40 -0.5 Z M 72.30023098316775 0.5 L 76.3699932163355 0.5 L 76.3699932163355 3.5 L 83.3699932163355 0 L 76.3699932163355 -3.5 L 76.3699932163355 -0.5 L 72.30023098316775 -0.5 Z"/><text text-anchor="middle" pointer-events="none" font-size="8px" fill="#000000" x="58.18499660816775" y="3" font-family="sans-serif">partOf</text></g><g class="relationship" transform="translate(232.62386159028952 -111.17382600144006) rotate(484.51390390198503)"><path class="outline" fill="#A5ABB6" stroke="none" d="M 40 0.5 L 52.44086408034467 0.5 L 52.44086408034467 -0.5 L 40 -0.5 Z M 98.91352033034467 0.5 L 111.35438441068933 0.5 L 111.35438441068933 3.5 L 118.35438441068933 0 L 111.35438441068933 -3.5 L 111.35438441068933 -0.5 L 98.91352033034467 -0.5 Z"/><text text-anchor="middle" pointer-events="none" font-size="8px" fill="#000000" x="75.67719220534467" y="3" transform="rotate(180 75.67719220534467 0)" font-family="sans-serif">assignedTo</text></g><g class="relationship" transform="translate(306.60436048660443 177.01543575941767) rotate(282.18508451692566)"><path class="outline" fill="#A5ABB6" stroke="none" d="M 32.5 0.5 L 71.51200513818127 0.5 L 71.51200513818127 -0.5 L 32.5 -0.5 Z M 84.18388013818127 0.5 L 123.19588527636253 0.5 L 123.19588527636253 3.5 L 130.19588527636253 0 L 123.19588527636253 -3.5 L 123.19588527636253 -0.5 L 84.18388013818127 -0.5 Z"/><text text-anchor="middle" pointer-events="none" font-size="8px" fill="#000000" x="77.84794263818127" y="3" font-family="sans-serif">to</text></g><g class="relationship" transform="translate(306.60436048660443 177.01543575941767) rotate(340.00450876279683)"><path class="outline" fill="#A5ABB6" stroke="none" d="M 32.5 0.5 L 33.251365969709916 0.5 L 33.251365969709916 -0.5 L 32.5 -0.5 Z M 45.923240969709916 0.5 L 46.67460693941983 0.5 L 46.67460693941983 3.5 L 53.67460693941983 0 L 46.67460693941983 -3.5 L 46.67460693941983 -0.5 L 45.923240969709916 -0.5 Z"/><text text-anchor="middle" pointer-events="none" font-size="8px" fill="#000000" x="39.587303469709916" y="3" font-family="sans-serif">to</text></g><g class="relationship" transform="translate(145.73231505012575 15.188456178963875) rotate(398.9547748086596)"><path class="outline" fill="#A5ABB6" stroke="none" d="M 35 0.5 L 66.31673049716821 0.5 L 66.31673049716821 -0.5 L 35 -0.5 Z M 85.21516799716821 0.5 L 116.53189849433642 0.5 L 116.53189849433642 3.5 L 123.53189849433642 0 L 116.53189849433642 -3.5 L 116.53189849433642 -0.5 L 85.21516799716821 -0.5 Z"/><text text-anchor="middle" pointer-events="none" font-size="8px" fill="#000000" x="75.76594924716821" y="3" font-family="sans-serif">has</text></g><g class="relationship" transform="translate(145.73231505012575 15.188456178963875) rotate(419.7668380328178)"><path class="outline" fill="#A5ABB6" stroke="none" d="M 35 0.5 L 36.06375217965258 0.5 L 36.06375217965258 -0.5 L 35 -0.5 Z M 54.96218967965258 0.5 L 56.02594185930516 0.5 L 56.02594185930516 3.5 L 63.02594185930516 0 L 56.02594185930516 -3.5 L 56.02594185930516 -0.5 L 54.96218967965258 -0.5 Z"/><text text-anchor="middle" pointer-events="none" font-size="8px" fill="#000000" x="45.51297092965258" y="3" font-family="sans-serif">has</text></g><g class="relationship" transform="translate(145.73231505012575 15.188456178963875) rotate(466.75677171132224)"><path class="outline" fill="#A5ABB6" stroke="none" d="M 35 0.5 L 79.86962443346303 0.5 L 79.86962443346303 -0.5 L 35 -0.5 Z M 98.76806193346303 0.5 L 143.63768636692606 0.5 L 143.63768636692606 3.5 L 150.63768636692606 0 L 143.63768636692606 -3.5 L 143.63768636692606 -0.5 L 98.76806193346303 -0.5 Z"/><text text-anchor="middle" pointer-events="none" font-size="8px" fill="#000000" x="89.31884318346303" y="3" transform="rotate(180 89.31884318346303 0)" font-family="sans-serif">has</text></g><g class="relationship" transform="translate(145.73231505012575 15.188456178963875) rotate(490.7574755078145)"><path class="outline" fill="#A5ABB6" stroke="none" d="M 35 0.5 L 74.9355705237251 0.5 L 74.9355705237251 -0.5 L 35 -0.5 Z M 93.8340080237251 0.5 L 133.7695785474502 0.5 L 133.7695785474502 3.5 L 140.7695785474502 0 L 133.7695785474502 -3.5 L 133.7695785474502 -0.5 L 93.8340080237251 -0.5 Z"/><text text-anchor="middle" pointer-events="none" font-size="8px" fill="#000000" x="84.3847892737251" y="3" transform="rotate(180 84.3847892737251 0)" font-family="sans-serif">has</text></g><g class="relationship" transform="translate(-174.7979737768426 18.527792585758654) rotate(357.17255081340636)"><path class="outline" fill="#A5ABB6" stroke="none" d="M 37.5 0.5 L 65.25624354380005 0.5 L 65.25624354380005 -0.5 L 37.5 -0.5 Z M 111.72889979380005 0.5 L 139.4851433376001 0.5 L 139.4851433376001 3.5 L 146.4851433376001 0 L 139.4851433376001 -3.5 L 139.4851433376001 -0.5 L 111.72889979380005 -0.5 Z"/><text text-anchor="middle" pointer-events="none" font-size="8px" fill="#000000" x="88.49257166880005" y="3" font-family="sans-serif">assignedTo</text></g><g class="relationship" transform="translate(-122.61436061828162 88.4888981626783) rotate(328.5604592132198)"><path class="outline" fill="#A5ABB6" stroke="none" d="M 40 0.5 L 51.40944652909667 0.5 L 51.40944652909667 -0.5 L 40 -0.5 Z M 97.88210277909667 0.5 L 109.29154930819334 0.5 L 109.29154930819334 3.5 L 116.29154930819334 0 L 109.29154930819334 -3.5 L 109.29154930819334 -0.5 L 97.88210277909667 -0.5 Z"/><text text-anchor="middle" pointer-events="none" font-size="8px" fill="#000000" x="74.64577465409667" y="3" font-family="sans-serif">assignedTo</text></g><g class="relationship" transform="translate(92.93199121496015 190.54962055332646) rotate(475.5096420126433)"><path class="outline" fill="#A5ABB6" stroke="none" d="M 32.5 0.5 L 49.98715407064602 0.5 L 49.98715407064602 -0.5 L 32.5 -0.5 Z M 62.65902907064602 0.5 L 80.14618314129204 0.5 L 80.14618314129204 3.5 L 87.14618314129204 0 L 80.14618314129204 -3.5 L 80.14618314129204 -0.5 L 62.65902907064602 -0.5 Z"/><text text-anchor="middle" pointer-events="none" font-size="8px" fill="#000000" x="56.32309157064602" y="3" transform="rotate(180 56.32309157064602 0)" font-family="sans-serif">to</text></g><g class="relationship" transform="translate(92.93199121496015 190.54962055332646) rotate(511.5635085635511)"><path class="outline" fill="#A5ABB6" stroke="none" d="M 32.5 0.5 L 44.24311397681331 0.5 L 44.24311397681331 -0.5 L 32.5 -0.5 Z M 56.91498897681331 0.5 L 68.65810295362662 0.5 L 68.65810295362662 3.5 L 75.65810295362662 0 L 68.65810295362662 -3.5 L 68.65810295362662 -0.5 L 56.91498897681331 -0.5 Z"/><text text-anchor="middle" pointer-events="none" font-size="8px" fill="#000000" x="50.57905147681331" y="3" transform="rotate(180 50.57905147681331 0)" font-family="sans-serif">to</text></g><g class="relationship" transform="translate(92.93199121496015 190.54962055332646) rotate(519.9350017446266)"><path class="outline" fill="#A5ABB6" stroke="none" d="M 32.5 0.5 L 77.64980328389827 0.5 L 77.64980328389827 -0.5 L 32.5 -0.5 Z M 90.32167828389827 0.5 L 135.47148156779653 0.5 L 135.47148156779653 3.5 L 142.47148156779653 0 L 135.47148156779653 -3.5 L 135.47148156779653 -0.5 L 90.32167828389827 -0.5 Z"/><text text-anchor="middle" pointer-events="none" font-size="8px" fill="#000000" x="83.98574078389827" y="3" transform="rotate(180 83.98574078389827 0)" font-family="sans-serif">to</text></g><g class="relationship" transform="translate(92.93199121496015 190.54962055332646) rotate(496.21916339902145)"><path class="outline" fill="#A5ABB6" stroke="none" d="M 32.5 0.5 L 74.35415545280252 0.5 L 74.35415545280252 -0.5 L 32.5 -0.5 Z M 87.02603045280252 0.5 L 128.88018590560503 0.5 L 128.88018590560503 3.5 L 135.88018590560503 0 L 128.88018590560503 -3.5 L 128.88018590560503 -0.5 L 87.02603045280252 -0.5 Z"/><text text-anchor="middle" pointer-events="none" font-size="8px" fill="#000000" x="80.69009295280252" y="3" transform="rotate(180 80.69009295280252 0)" font-family="sans-serif">to</text></g><g class="relationship" transform="translate(-103.641579124341 -127.77215516285969) rotate(411.28180339366907)"><path class="outline" fill="#A5ABB6" stroke="none" d="M 37.5 0.5 L 62.53084831444535 0.5 L 62.53084831444535 -0.5 L 37.5 -0.5 Z M 109.00350456444535 0.5 L 134.0343528788907 0.5 L 134.0343528788907 3.5 L 141.0343528788907 0 L 134.0343528788907 -3.5 L 134.0343528788907 -0.5 L 109.00350456444535 -0.5 Z"/><text text-anchor="middle" pointer-events="none" font-size="8px" fill="#000000" x="85.76717643944535" y="3" font-family="sans-serif">assignedTo</text></g><g class="relationship" transform="translate(-84.18998146167405 -42.581557281744516) rotate(389.91299618009157)"><path class="outline" fill="#A5ABB6" stroke="none" d="M 40 0.5 L 40.069993736177246 0.5 L 40.069993736177246 -0.5 L 40 -0.5 Z M 62.519212486177246 0.5 L 62.58920622235449 0.5 L 62.58920622235449 3.5 L 69.58920622235449 0 L 62.58920622235449 -3.5 L 62.58920622235449 -0.5 L 62.519212486177246 -0.5 Z"/><text text-anchor="middle" pointer-events="none" font-size="8px" fill="#000000" x="51.294603111177246" y="3" font-family="sans-serif">as…</text></g><g class="relationship" transform="translate(32.611782639772336 146.436663775141) rotate(470.51232547850145)"><path class="outline" fill="#A5ABB6" stroke="none" d="M 32.5 0.5 L 76.23484102367786 0.5 L 76.23484102367786 -0.5 L 32.5 -0.5 Z M 88.90671602367786 0.5 L 132.64155704735572 0.5 L 132.64155704735572 3.5 L 139.64155704735572 0 L 132.64155704735572 -3.5 L 132.64155704735572 -0.5 L 88.90671602367786 -0.5 Z"/><text text-anchor="middle" pointer-events="none" font-size="8px" fill="#000000" x="82.57077852367786" y="3" transform="rotate(180 82.57077852367786 0)" font-family="sans-serif">to</text></g><g class="relationship" transform="translate(32.611782639772336 146.436663775141) rotate(446.2314487565094)"><path class="outline" fill="#A5ABB6" stroke="none" d="M 32.5 0.5 L 66.49585688088071 0.5 L 66.49585688088071 -0.5 L 32.5 -0.5 Z M 79.16773188088071 0.5 L 113.16358876176142 0.5 L 113.16358876176142 3.5 L 120.16358876176142 0 L 113.16358876176142 -3.5 L 113.16358876176142 -0.5 L 79.16773188088071 -0.5 Z"/><text text-anchor="middle" pointer-events="none" font-size="8px" fill="#000000" x="72.83179438088071" y="3" font-family="sans-serif">to</text></g><g class="relationship" transform="translate(32.611782639772336 146.436663775141) rotate(469.0414299693663)"><path class="outline" fill="#A5ABB6" stroke="none" d="M 32.5 0.5 L 41.35979368673931 0.5 L 41.35979368673931 -0.5 L 32.5 -0.5 Z M 54.03166868673931 0.5 L 62.89146237347862 0.5 L 62.89146237347862 3.5 L 69.89146237347862 0 L 62.89146237347862 -3.5 L 62.89146237347862 -0.5 L 54.03166868673931 -0.5 Z"/><text text-anchor="middle" pointer-events="none" font-size="8px" fill="#000000" x="47.69573118673931" y="3" transform="rotate(180 47.69573118673931 0)" font-family="sans-serif">to</text></g><g class="relationship" transform="translate(32.611782639772336 146.436663775141) rotate(419.08043503708456)"><path class="outline" fill="#A5ABB6" stroke="none" d="M 32.5 0.5 L 65.26460005963825 0.5 L 65.26460005963825 -0.5 L 32.5 -0.5 Z M 77.93647505963825 0.5 L 110.70107511927651 0.5 L 110.70107511927651 3.5 L 117.70107511927651 0 L 110.70107511927651 -3.5 L 110.70107511927651 -0.5 L 77.93647505963825 -0.5 Z"/><text text-anchor="middle" pointer-events="none" font-size="8px" fill="#000000" x="71.60053755963825" y="3" font-family="sans-serif">to</text></g><g class="relationship" transform="translate(32.611782639772336 146.436663775141) rotate(494.5520407331185)"><path class="outline" fill="#A5ABB6" stroke="none" d="M 32.5 0.5 L 63.883565875183265 0.5 L 63.883565875183265 -0.5 L 32.5 -0.5 Z M 76.55544087518327 0.5 L 107.93900675036653 0.5 L 107.93900675036653 3.5 L 114.93900675036653 0 L 107.93900675036653 -3.5 L 107.93900675036653 -0.5 L 76.55544087518327 -0.5 Z"/><text text-anchor="middle" pointer-events="none" font-size="8px" fill="#000000" x="70.21950337518327" y="3" transform="rotate(180 70.21950337518327 0)" font-family="sans-serif">to</text></g><g class="relationship" transform="translate(-168.18433674894538 -66.09382223806811) rotate(433.5748274758014)"><path class="outline" fill="#A5ABB6" stroke="none" d="M 37.5 0.5 L 53.93725832780717 0.5 L 53.93725832780717 -0.5 L 37.5 -0.5 Z M 97.72241457780717 0.5 L 114.15967290561434 0.5 L 114.15967290561434 3.5 L 121.15967290561434 0 L 114.15967290561434 -3.5 L 114.15967290561434 -0.5 L 97.72241457780717 -0.5 Z"/><text text-anchor="middle" pointer-events="none" font-size="8px" fill="#000000" x="75.82983645280717" y="3" font-family="sans-serif">memberOf</text></g><g class="relationship" transform="translate(-168.18433674894538 -66.09382223806811) rotate(383.42519963410655)"><path class="outline" fill="#A5ABB6" stroke="none" d="M 37.5 0.5 L 69.68281007004813 0.5 L 69.68281007004813 -0.5 L 37.5 -0.5 Z M 116.15546632004813 0.5 L 148.33827639009627 0.5 L 148.33827639009627 3.5 L 155.33827639009627 0 L 148.33827639009627 -3.5 L 148.33827639009627 -0.5 L 116.15546632004813 -0.5 Z"/><text text-anchor="middle" pointer-events="none" font-size="8px" fill="#000000" x="92.91913819504813" y="3" font-family="sans-serif">assignedTo</text></g><g class="relationship" transform="translate(57.162668185611416 377.75768686674814) rotate(259.78620682080026)"><path class="outline" fill="#A5ABB6" stroke="none" d="M 32.5 0.5 L 32.81115121569246 0.5 L 32.81115121569246 -0.5 L 32.5 -0.5 Z M 45.48302621569246 0.5 L 45.794177431384924 0.5 L 45.794177431384924 3.5 L 52.794177431384924 0 L 45.794177431384924 -3.5 L 45.794177431384924 -0.5 L 45.48302621569246 -0.5 Z"/><text text-anchor="middle" pointer-events="none" font-size="8px" fill="#000000" x="39.14708871569246" y="3" transform="rotate(180 39.14708871569246 0)" font-family="sans-serif">to</text></g><g class="relationship" transform="translate(57.162668185611416 377.75768686674814) rotate(247.34415037896605)"><path class="outline" fill="#A5ABB6" stroke="none" d="M 32.5 0.5 L 65.58512415221082 0.5 L 65.58512415221082 -0.5 L 32.5 -0.5 Z M 78.25699915221082 0.5 L 111.34212330442165 0.5 L 111.34212330442165 3.5 L 118.34212330442165 0 L 111.34212330442165 -3.5 L 111.34212330442165 -0.5 L 78.25699915221082 -0.5 Z"/><text text-anchor="middle" pointer-events="none" font-size="8px" fill="#000000" x="71.92106165221082" y="3" transform="rotate(180 71.92106165221082 0)" font-family="sans-serif">to</text></g><g class="relationship" transform="translate(57.162668185611416 377.75768686674814) rotate(296.14201692875616)"><path class="outline" fill="#A5ABB6" stroke="none" d="M 32.5 0.5 L 49.679225257228396 0.5 L 49.679225257228396 -0.5 L 32.5 -0.5 Z M 62.351100257228396 0.5 L 79.53032551445679 0.5 L 79.53032551445679 3.5 L 86.53032551445679 0 L 79.53032551445679 -3.5 L 79.53032551445679 -0.5 L 62.351100257228396 -0.5 Z"/><text text-anchor="middle" pointer-events="none" font-size="8px" fill="#000000" x="56.015162757228396" y="3" font-family="sans-serif">to</text></g><g class="relationship" transform="translate(57.162668185611416 377.75768686674814) rotate(225.40597769302167)"><path class="outline" fill="#A5ABB6" stroke="none" d="M 32.5 0.5 L 81.31411293302409 0.5 L 81.31411293302409 -0.5 L 32.5 -0.5 Z M 93.98598793302409 0.5 L 142.80010086604818 0.5 L 142.80010086604818 3.5 L 149.80010086604818 0 L 142.80010086604818 -3.5 L 142.80010086604818 -0.5 L 93.98598793302409 -0.5 Z"/><text text-anchor="middle" pointer-events="none" font-size="8px" fill="#000000" x="87.65005043302409" y="3" transform="rotate(180 87.65005043302409 0)" font-family="sans-serif">to</text></g><g class="relationship" transform="translate(57.162668185611416 377.75768686674814) rotate(220.77376819421818)"><path class="outline" fill="#A5ABB6" stroke="none" d="M 32.5 0.5 L 46.87124106770091 0.5 L 46.87124106770091 -0.5 L 32.5 -0.5 Z M 59.54311606770091 0.5 L 73.91435713540181 0.5 L 73.91435713540181 3.5 L 80.91435713540181 0 L 73.91435713540181 -3.5 L 73.91435713540181 -0.5 L 59.54311606770091 -0.5 Z"/><text text-anchor="middle" pointer-events="none" font-size="8px" fill="#000000" x="53.20717856770091" y="3" transform="rotate(180 53.20717856770091 0)" font-family="sans-serif">to</text></g><g class="relationship" transform="translate(-22.8315579654056 -153.86101782039134) rotate(478.8719191606734)"><path class="outline" fill="#A5ABB6" stroke="none" d="M 37.5 0.5 L 38.4494497185328 0.5 L 38.4494497185328 -0.5 L 37.5 -0.5 Z M 79.1252309685328 0.5 L 80.0746806870656 0.5 L 80.0746806870656 3.5 L 87.0746806870656 0 L 80.0746806870656 -3.5 L 80.0746806870656 -0.5 L 79.1252309685328 -0.5 Z"/><text text-anchor="middle" pointer-events="none" font-size="8px" fill="#000000" x="58.7873403435328" y="3" transform="rotate(180 58.7873403435328 0)" font-family="sans-serif">membe…</text></g><g class="relationship" transform="translate(-22.8315579654056 -153.86101782039134) rotate(439.8370417823534)"><path class="outline" fill="#A5ABB6" stroke="none" d="M 37.5 0.5 L 57.53450917653072 0.5 L 57.53450917653072 -0.5 L 37.5 -0.5 Z M 104.00716542653072 0.5 L 124.04167460306144 0.5 L 124.04167460306144 3.5 L 131.04167460306144 0 L 124.04167460306144 -3.5 L 124.04167460306144 -0.5 L 104.00716542653072 -0.5 Z"/><text text-anchor="middle" pointer-events="none" font-size="8px" fill="#000000" x="80.77083730153072" y="3" font-family="sans-serif">assignedTo</text></g><g class="relationship" transform="translate(57.962965825303264 -127.57437921814196) rotate(470.5800490990929)"><path class="outline" fill="#A5ABB6" stroke="none" d="M 37.5 0.5 L 47.76322402301855 0.5 L 47.76322402301855 -0.5 L 37.5 -0.5 Z M 94.23588027301855 0.5 L 104.4991042960371 0.5 L 104.4991042960371 3.5 L 111.4991042960371 0 L 104.4991042960371 -3.5 L 104.4991042960371 -0.5 L 94.23588027301855 -0.5 Z"/><text text-anchor="middle" pointer-events="none" font-size="8px" fill="#000000" x="70.99955214801855" y="3" transform="rotate(180 70.99955214801855 0)" font-family="sans-serif">assignedTo</text></g><g class="relationship" transform="translate(297.02733212262353 -43.76282746560617) rotate(295.33126344420305)"><path class="outline" fill="#A5ABB6" stroke="none" d="M 37.5 0.5 L 42.02806202898009 0.5 L 42.02806202898009 -0.5 L 37.5 -0.5 Z M 70.25853077898009 0.5 L 74.78659280796018 0.5 L 74.78659280796018 3.5 L 81.78659280796018 0 L 74.78659280796018 -3.5 L 74.78659280796018 -0.5 L 70.25853077898009 -0.5 Z"/><text text-anchor="middle" pointer-events="none" font-size="8px" fill="#000000" x="56.14329640398009" y="3" font-family="sans-serif">partOf</text></g><g class="relationship" transform="translate(297.02733212262353 -43.76282746560617) rotate(226.30705505735705)"><path class="outline" fill="#A5ABB6" stroke="none" d="M 37.5 0.5 L 41.8655814621233 0.5 L 41.8655814621233 -0.5 L 37.5 -0.5 Z M 41.8655814621233 0.5 L 46.231162924246604 0.5 L 46.231162924246604 3.5 L 53.231162924246604 0 L 46.231162924246604 -3.5 L 46.231162924246604 -0.5 L 41.8655814621233 -0.5 Z"/><text text-anchor="middle" pointer-events="none" font-size="8px" fill="#000000" x="41.8655814621233" y="3" transform="rotate(180 41.8655814621233 0)" font-family="sans-serif"/></g><g class="relationship" transform="translate(297.02733212262353 -43.76282746560617) rotate(518.7118940288348)"><path class="outline" fill="#A5ABB6" stroke="none" d="M 37.5 0.5 L 55.700856877175596 0.5 L 55.700856877175596 -0.5 L 37.5 -0.5 Z M 102.1735131271756 0.5 L 120.37437000435119 0.5 L 120.37437000435119 3.5 L 127.37437000435119 0 L 120.37437000435119 -3.5 L 120.37437000435119 -0.5 L 102.1735131271756 -0.5 Z"/><text text-anchor="middle" pointer-events="none" font-size="8px" fill="#000000" x="78.9371850021756" y="3" transform="rotate(180 78.9371850021756 0)" font-family="sans-serif">assignedTo</text></g><g class="relationship" transform="translate(178.66736000116833 -179.94002660858868) rotate(367.9125354796442)"><path class="outline" fill="#A5ABB6" stroke="none" d="M 37.5 0.5 L 66.47724525584752 0.5 L 66.47724525584752 -0.5 L 37.5 -0.5 Z M 94.70771400584752 0.5 L 123.68495926169504 0.5 L 123.68495926169504 3.5 L 130.68495926169504 0 L 123.68495926169504 -3.5 L 123.68495926169504 -0.5 L 94.70771400584752 -0.5 Z"/><text text-anchor="middle" pointer-events="none" font-size="8px" fill="#000000" x="80.59247963084752" y="3" font-family="sans-serif">partOf</text></g><g class="relationship" transform="translate(178.66736000116833 -179.94002660858868) rotate(411.8809590162257)"><path class="outline" fill="#A5ABB6" stroke="none" d="M 37.5 0.5 L 38.953816794644624 0.5 L 38.953816794644624 -0.5 L 37.5 -0.5 Z M 38.953816794644624 0.5 L 40.40763358928925 0.5 L 40.40763358928925 3.5 L 47.40763358928925 0 L 40.40763358928925 -3.5 L 40.40763358928925 -0.5 L 38.953816794644624 -0.5 Z"/><text text-anchor="middle" pointer-events="none" font-size="8px" fill="#000000" x="38.953816794644624" y="3" font-family="sans-serif"/></g><g class="relationship" transform="translate(178.66736000116833 -179.94002660858868) rotate(459.58045381282994)"><path class="outline" fill="#A5ABB6" stroke="none" d="M 37.5 0.5 L 73.45790109138659 0.5 L 73.45790109138659 -0.5 L 37.5 -0.5 Z M 119.93055734138659 0.5 L 155.88845843277318 0.5 L 155.88845843277318 3.5 L 162.88845843277318 0 L 155.88845843277318 -3.5 L 155.88845843277318 -0.5 L 119.93055734138659 -0.5 Z"/><text text-anchor="middle" pointer-events="none" font-size="8px" fill="#000000" x="96.69422921638659" y="3" transform="rotate(180 96.69422921638659 0)" font-family="sans-serif">assignedTo</text></g></g><g class="layer nodes"><g class="node" transform="translate(-69.07116425257425,249.72216125213927)"><circle class="outline" cx="0" cy="0" r="30" fill="#cccc00" stroke="#b3b300" stroke-width="2px"/><text text-anchor="middle" pointer-events="none" font-family="sans-serif" dy="1.875" font-size="30" fill="#604A0E"/><text text-anchor="middle" pointer-events="none" y="5" font-size="10px" fill="#604A0E" font-family="sans-serif"> Eshop</text></g><g class="node" transform="translate(385.2350229921326,148.40322227621905)"><circle class="outline" cx="0" cy="0" r="30" fill="#e6e600" stroke="#cccc00" stroke-width="2px"/><text text-anchor="middle" pointer-events="none" font-family="sans-serif" dy="1.875" font-size="30" fill="#604A0E"/><text text-anchor="middle" pointer-events="none" y="5" font-size="10px" fill="#604A0E" font-family="sans-serif"> PC</text></g><g class="node" transform="translate(193.83154609149528,97.72129534820792)"><circle class="outline" cx="0" cy="0" r="32.5" fill="#ffff00" stroke="#ffff33" stroke-width="2px"/><text text-anchor="middle" pointer-events="none" font-family="sans-serif" dy="2.03125" font-size="32.5" fill="#604A0E"/><text text-anchor="middle" pointer-events="none" y="5" font-size="10px" fill="#604A0E" font-family="sans-serif"> Run software</text></g><g class="node" transform="translate(188.8489803256677,257.974324941756)"><circle class="outline" cx="0" cy="0" r="35" fill="#ffff33" stroke="#e5e500" stroke-width="2px"/><text text-anchor="middle" pointer-events="none" font-family="sans-serif" dy="2.1875" font-size="35" fill="#604A0E"/><text text-anchor="middle" pointer-events="none" y="5" font-size="10px" fill="#604A0E" font-family="sans-serif"> Administrator</text></g><g class="node" transform="translate(336.14668284404974,375.2564909239753)"><circle class="outline" cx="0" cy="0" r="37.5" fill="#e5e500" stroke="#b2b200" stroke-width="2px"/><text text-anchor="middle" pointer-events="none" font-family="sans-serif" dy="2.34375" font-size="37.5" fill="#604A0E"/><text text-anchor="middle" pointer-events="none" y="5" font-size="10px" fill="#604A0E" font-family="sans-serif"> Joe</text></g><g class="node" transform="translate(252.78711590851862,401.63729282889074)"><circle class="outline" cx="0" cy="0" r="40" fill="#b2b200" stroke="#999900" stroke-width="2px"/><text text-anchor="middle" pointer-events="none" font-family="sans-serif" dy="2.5" font-size="40" fill="#604A0E"/><text text-anchor="middle" pointer-events="none" y="5" font-size="10px" fill="#604A0E" font-family="sans-serif"> group1</text></g><g class="node" transform="translate(429.1537269294211,308.56037353921795)"><circle class="outline" cx="0" cy="0" r="42.5" fill="#999900" stroke="#7f7f00" stroke-width="2px"/><text text-anchor="middle" pointer-events="none" font-family="sans-serif" dy="2.65625" font-size="42.5" fill="#604A0E"/><text text-anchor="middle" pointer-events="none" y="5" font-size="10px" fill="#604A0E" font-family="sans-serif"> organizationUnit1</text></g><g class="node" transform="translate(-26.832123712009786,305.32240849470924)"><circle class="outline" cx="0" cy="0" r="30" fill="#cccc00" stroke="#b3b300" stroke-width="2px"/><text text-anchor="middle" pointer-events="none" font-family="sans-serif" dy="1.875" font-size="30" fill="#604A0E"/><text text-anchor="middle" pointer-events="none" y="5" font-size="10px" fill="#604A0E" font-family="sans-serif"> WebDiary</text></g><g class="node" transform="translate(340.41696113126983,20.428623744095383)"><circle class="outline" cx="0" cy="0" r="30" fill="#e6e600" stroke="#cccc00" stroke-width="2px"/><text text-anchor="middle" pointer-events="none" font-family="sans-serif" dy="1.875" font-size="30" fill="#604A0E"/><text text-anchor="middle" pointer-events="none" y="5" font-size="10px" fill="#604A0E" font-family="sans-serif"> Printer</text></g><g class="node" transform="translate(267.06934440649513,113.2867673505557)"><circle class="outline" cx="0" cy="0" r="32.5" fill="#ffff00" stroke="#ffff33" stroke-width="2px"/><text text-anchor="middle" pointer-events="none" font-family="sans-serif" dy="2.03125" font-size="32.5" fill="#604A0E"/><text text-anchor="middle" pointer-events="none" font-family="sans-serif" dy="2.03125" font-size="32.5" fill="#604A0E"/><text text-anchor="middle" pointer-events="none" y="0" font-size="10px" fill="#604A0E" font-family="sans-serif"> Install</text><text text-anchor="middle" pointer-events="none" y="10" font-size="10px" fill="#604A0E" font-family="sans-serif"> software</text></g><g class="node" transform="translate(6.466233147517629,9.575444270821524)"><circle class="outline" cx="0" cy="0" r="35" fill="#ffff33" stroke="#e5e500" stroke-width="2px"/><text text-anchor="middle" pointer-events="none" font-family="sans-serif" dy="2.1875" font-size="35" fill="#604A0E"/><text text-anchor="middle" pointer-events="none" y="5" font-size="10px" fill="#604A0E" font-family="sans-serif"> User</text></g><g class="node" transform="translate(314.3476509008792,293.1945443974093)"><circle class="outline" cx="0" cy="0" r="37.5" fill="#e5e500" stroke="#b2b200" stroke-width="2px"/><text text-anchor="middle" pointer-events="none" font-family="sans-serif" dy="2.34375" font-size="37.5" fill="#604A0E"/><text text-anchor="middle" pointer-events="none" y="5" font-size="10px" fill="#604A0E" font-family="sans-serif"> James</text></g><g class="node" transform="translate(232.62386159028952,-111.17382600144006)"><circle class="outline" cx="0" cy="0" r="40" fill="#b2b200" stroke="#999900" stroke-width="2px"/><text text-anchor="middle" pointer-events="none" font-family="sans-serif" dy="2.5" font-size="40" fill="#604A0E"/><text text-anchor="middle" pointer-events="none" y="5" font-size="10px" fill="#604A0E" font-family="sans-serif"> group2</text></g><g class="node" transform="translate(350.203489114374,-156.09916833266666)"><circle class="outline" cx="0" cy="0" r="42.5" fill="#999900" stroke="#7f7f00" stroke-width="2px"/><text text-anchor="middle" pointer-events="none" font-family="sans-serif" dy="2.65625" font-size="42.5" fill="#604A0E"/><text text-anchor="middle" pointer-events="none" y="5" font-size="10px" fill="#604A0E" font-family="sans-serif"> organizationUnit2</text></g><g class="node" transform="translate(42.48146663510934,296.27555301169264)"><circle class="outline" cx="0" cy="0" r="30" fill="#cccc00" stroke="#b3b300" stroke-width="2px"/><text text-anchor="middle" pointer-events="none" font-family="sans-serif" dy="1.875" font-size="30" fill="#604A0E"/><text text-anchor="middle" pointer-events="none" y="5" font-size="10px" fill="#604A0E" font-family="sans-serif"> MicrosoftA…</text></g><g class="node" transform="translate(306.60436048660443,177.01543575941767)"><circle class="outline" cx="0" cy="0" r="32.5" fill="#ffff00" stroke="#ffff33" stroke-width="2px"/><text text-anchor="middle" pointer-events="none" font-family="sans-serif" dy="2.03125" font-size="32.5" fill="#604A0E"/><text text-anchor="middle" pointer-events="none" font-family="sans-serif" dy="2.03125" font-size="32.5" fill="#604A0E"/><text text-anchor="middle" pointer-events="none" y="0" font-size="10px" fill="#604A0E" font-family="sans-serif"> Unistall</text><text text-anchor="middle" pointer-events="none" y="10" font-size="10px" fill="#604A0E" font-family="sans-serif"> software</text></g><g class="node" transform="translate(145.73231505012575,15.188456178963875)"><circle class="outline" cx="0" cy="0" r="35" fill="#ffff33" stroke="#e5e500" stroke-width="2px"/><text text-anchor="middle" pointer-events="none" font-family="sans-serif" dy="2.1875" font-size="35" fill="#604A0E"/><text text-anchor="middle" pointer-events="none" y="5" font-size="10px" fill="#604A0E" font-family="sans-serif"> Moderator</text></g><g class="node" transform="translate(-174.7979737768426,18.527792585758654)"><circle class="outline" cx="0" cy="0" r="37.5" fill="#e5e500" stroke="#b2b200" stroke-width="2px"/><text text-anchor="middle" pointer-events="none" font-family="sans-serif" dy="2.34375" font-size="37.5" fill="#604A0E"/><text text-anchor="middle" pointer-events="none" y="5" font-size="10px" fill="#604A0E" font-family="sans-serif"> Natalie</text></g><g class="node" transform="translate(-122.61436061828162,88.4888981626783)"><circle class="outline" cx="0" cy="0" r="40" fill="#b2b200" stroke="#999900" stroke-width="2px"/><text text-anchor="middle" pointer-events="none" font-family="sans-serif" dy="2.5" font-size="40" fill="#604A0E"/><text text-anchor="middle" pointer-events="none" y="5" font-size="10px" fill="#604A0E" font-family="sans-serif"> group3</text></g><g class="node" transform="translate(0.022016859861093946,240.8623563673726)"><circle class="outline" cx="0" cy="0" r="30" fill="#cccc00" stroke="#b3b300" stroke-width="2px"/><text text-anchor="middle" pointer-events="none" font-family="sans-serif" dy="1.875" font-size="30" fill="#604A0E"/><text text-anchor="middle" pointer-events="none" y="5" font-size="10px" fill="#604A0E" font-family="sans-serif"> Filemaker</text></g><g class="node" transform="translate(92.93199121496015,190.54962055332646)"><circle class="outline" cx="0" cy="0" r="32.5" fill="#ffff00" stroke="#ffff33" stroke-width="2px"/><text text-anchor="middle" pointer-events="none" font-family="sans-serif" dy="2.03125" font-size="32.5" fill="#604A0E"/><text text-anchor="middle" pointer-events="none" font-family="sans-serif" dy="2.03125" font-size="32.5" fill="#604A0E"/><text text-anchor="middle" pointer-events="none" y="0" font-size="10px" fill="#604A0E" font-family="sans-serif"> Modify</text><text text-anchor="middle" pointer-events="none" y="10" font-size="10px" fill="#604A0E" font-family="sans-serif"> content</text></g><g class="node" transform="translate(-103.641579124341,-127.77215516285969)"><circle class="outline" cx="0" cy="0" r="37.5" fill="#e5e500" stroke="#b2b200" stroke-width="2px"/><text text-anchor="middle" pointer-events="none" font-family="sans-serif" dy="2.34375" font-size="37.5" fill="#604A0E"/><text text-anchor="middle" pointer-events="none" y="5" font-size="10px" fill="#604A0E" font-family="sans-serif"> Adriana</text></g><g class="node" transform="translate(-84.18998146167405,-42.581557281744516)"><circle class="outline" cx="0" cy="0" r="40" fill="#b2b200" stroke="#999900" stroke-width="2px"/><text text-anchor="middle" pointer-events="none" font-family="sans-serif" dy="2.5" font-size="40" fill="#604A0E"/><text text-anchor="middle" pointer-events="none" y="5" font-size="10px" fill="#604A0E" font-family="sans-serif"> group4</text></g><g class="node" transform="translate(108.505650567292,273.1478645523034)"><circle class="outline" cx="0" cy="0" r="30" fill="#cccc00" stroke="#b3b300" stroke-width="2px"/><text text-anchor="middle" pointer-events="none" font-family="sans-serif" dy="1.875" font-size="30" fill="#604A0E"/><text text-anchor="middle" pointer-events="none" y="5" font-size="10px" fill="#604A0E" font-family="sans-serif"> Thunderbird</text></g><g class="node" transform="translate(32.611782639772336,146.436663775141)"><circle class="outline" cx="0" cy="0" r="32.5" fill="#ffff00" stroke="#ffff33" stroke-width="2px"/><text text-anchor="middle" pointer-events="none" font-family="sans-serif" dy="2.03125" font-size="32.5" fill="#604A0E"/><text text-anchor="middle" pointer-events="none" y="5" font-size="10px" fill="#604A0E" font-family="sans-serif"> Add content</text></g><g class="node" transform="translate(-168.18433674894538,-66.09382223806811)"><circle class="outline" cx="0" cy="0" r="37.5" fill="#e5e500" stroke="#b2b200" stroke-width="2px"/><text text-anchor="middle" pointer-events="none" font-family="sans-serif" dy="2.34375" font-size="37.5" fill="#604A0E"/><text text-anchor="middle" pointer-events="none" y="5" font-size="10px" fill="#604A0E" font-family="sans-serif"> Martin</text></g><g class="node" transform="translate(57.162668185611416,377.75768686674814)"><circle class="outline" cx="0" cy="0" r="32.5" fill="#ffff00" stroke="#ffff33" stroke-width="2px"/><text text-anchor="middle" pointer-events="none" font-family="sans-serif" dy="2.03125" font-size="32.5" fill="#604A0E"/><text text-anchor="middle" pointer-events="none" font-family="sans-serif" dy="2.03125" font-size="32.5" fill="#604A0E"/><text text-anchor="middle" pointer-events="none" y="0" font-size="10px" fill="#604A0E" font-family="sans-serif"> Remove</text><text text-anchor="middle" pointer-events="none" y="10" font-size="10px" fill="#604A0E" font-family="sans-serif"> Content</text></g><g class="node" transform="translate(-22.8315579654056,-153.86101782039134)"><circle class="outline" cx="0" cy="0" r="37.5" fill="#e5e500" stroke="#b2b200" stroke-width="2px"/><text text-anchor="middle" pointer-events="none" font-family="sans-serif" dy="2.34375" font-size="37.5" fill="#604A0E"/><text text-anchor="middle" pointer-events="none" y="5" font-size="10px" fill="#604A0E" font-family="sans-serif"> John</text></g><g class="node" transform="translate(57.962965825303264,-127.57437921814196)"><circle class="outline" cx="0" cy="0" r="37.5" fill="#e5e500" stroke="#b2b200" stroke-width="2px"/><text text-anchor="middle" pointer-events="none" font-family="sans-serif" dy="2.34375" font-size="37.5" fill="#604A0E"/><text text-anchor="middle" pointer-events="none" y="5" font-size="10px" fill="#604A0E" font-family="sans-serif"> Francis</text></g><g class="node" transform="translate(297.02733212262353,-43.76282746560617)"><circle class="outline" cx="0" cy="0" r="37.5" fill="#e5e500" stroke="#b2b200" stroke-width="2px"/><text text-anchor="middle" pointer-events="none" font-family="sans-serif" dy="2.34375" font-size="37.5" fill="#604A0E"/><text text-anchor="middle" pointer-events="none" y="5" font-size="10px" fill="#604A0E" font-family="sans-serif"> Lagertha</text></g><g class="node" transform="translate(178.66736000116833,-179.94002660858868)"><circle class="outline" cx="0" cy="0" r="37.5" fill="#e5e500" stroke="#b2b200" stroke-width="2px"/><text text-anchor="middle" pointer-events="none" font-family="sans-serif" dy="2.34375" font-size="37.5" fill="#604A0E"/><text text-anchor="middle" pointer-events="none" y="5" font-size="10px" fill="#604A0E" font-family="sans-serif"> Frank</text></g></g></svg>