<svg xmlns="http://www.w3.org/2000/svg" width="936.03759765625" height="1100.3228759765625" viewBox="-309.5495910644531 -432.9273681640625 936.03759765625 1100.3228759765625"><title>Neo4j Graph Visualization</title><desc>Created using Neo4j (http://www.neo4j.com/)</desc><g class="layer relationships"><g class="relationship" transform="translate(149.3851617276091 531.5166146777918) rotate(236.12403157861968)"><path class="outline" fill="#A5ABB6" stroke="none" d="M 35 0.5 L 60.0096800091773 0.5 L 60.0096800091773 -0.5 L 35 -0.5 Z M 88.2401487591773 0.5 L 113.2498287683546 0.5 L 113.2498287683546 3.5 L 120.2498287683546 0 L 113.2498287683546 -3.5 L 113.2498287683546 -0.5 L 88.2401487591773 -0.5 Z"/><text text-anchor="middle" pointer-events="none" font-size="8px" fill="#000000" x="74.1249143841773" y="3" transform="rotate(180 74.1249143841773 0)" font-family="sans-serif">partOf</text></g><g class="relationship" transform="translate(149.3851617276091 531.5166146777918) rotate(180.6903427580674)"><path class="outline" fill="#A5ABB6" stroke="none" d="M 35 0.5 L 35.46052479339718 0.5 L 35.46052479339718 -0.5 L 35 -0.5 Z M 53.90974354339718 0.5 L 54.370268336794354 0.5 L 54.370268336794354 3.5 L 61.370268336794354 0 L 54.370268336794354 -3.5 L 54.370268336794354 -0.5 L 53.90974354339718 -0.5 Z"/><text text-anchor="middle" pointer-events="none" font-size="8px" fill="#000000" x="44.68513416839718" y="3" transform="rotate(180 44.68513416839718 0)" font-family="sans-serif">h…</text></g><g class="relationship" transform="translate(50.52206992478633 530.3253799501422) rotate(272.22289593967076)"><path class="outline" fill="#A5ABB6" stroke="none" d="M 36.092808963288796,-10.188677104489063 L 36.35162800839132,-9.222751278199993 A 104.63893460528867 104.63893460528867 0 0 1 39.754162078001706,-10.073604808450867 L 39.52785993573698,-11.04766196304007 A 105.63893460528867 105.63893460528867 0 0 0 36.092808963288796,-10.188677104489063 Z M 81.44982722174564,-12.240708165722097 L 81.27928735265681,-11.255357389068834 A 104.63893460528867 104.63893460528867 0 0 1 84.72470370166845,-10.599387872427181 L 84.1143039502231,-7.662142199447907 L 91.68001023052764,-9.664662731217927 L 85.53857003692892,-14.515715436399546 L 84.92817028548357,-11.578469763420271 A 105.63893460528867 105.63893460528867 0 0 0 81.44982722174564,-12.240708165722097"/><text text-anchor="middle" pointer-events="none" font-size="8px" fill="#000000" x="60.44326687594803" y="-10.245686363499757" font-family="sans-serif">entryPoint</text></g><g class="relationship" transform="translate(50.52206992478633 530.3253799501422) rotate(272.22289593967076)"><path class="outline" fill="#A5ABB6" stroke="none" d="M 36.092808963288796,10.188677104489063 L 36.35162800839132,9.222751278199993 A 104.63893460528867 104.63893460528867 0 0 0 46.48399874783381,11.406253672027717 L 46.322011448750715,12.393046514997181 A 105.63893460528867 105.63893460528867 0 0 1 36.092808963288796,10.188677104489063 Z M 74.59015804568737,13.197522238291526 L 74.48455322352693,12.203114061768204 A 104.63893460528867 104.63893460528867 0 0 0 84.72470370166845,10.599387872427181 L 84.1143039502231,7.662142199447907 L 91.68001023052764,9.664662731217927 L 85.53857003692892,14.515715436399546 L 84.92817028548357,11.578469763420271 A 105.63893460528867 105.63893460528867 0 0 1 74.59015804568737,13.197522238291526"/><text text-anchor="middle" pointer-events="none" font-size="8px" fill="#000000" x="60.44326687594806" y="16.245686363499757" font-family="sans-serif">partOf</text></g><g class="relationship" transform="translate(51.17224529126296 633.3955798366237) rotate(226.4371566559069)"><path class="outline" fill="#A5ABB6" stroke="none" d="M 30 0.5 L 57.778430584374746 0.5 L 57.778430584374746 -0.5 L 30 -0.5 Z M 72.67686808437475 0.5 L 100.45529866874949 0.5 L 100.45529866874949 3.5 L 107.45529866874949 0 L 100.45529866874949 -3.5 L 100.45529866874949 -0.5 L 72.67686808437475 -0.5 Z"/><text text-anchor="middle" pointer-events="none" font-size="8px" fill="#000000" x="65.22764933437475" y="3" transform="rotate(180 65.22764933437475 0)" font-family="sans-serif">on</text></g><g class="relationship" transform="translate(51.17224529126296 633.3955798366237) rotate(313.95035411433327)"><path class="outline" fill="#A5ABB6" stroke="none" d="M 30 0.5 L 57.30581728413539 0.5 L 57.30581728413539 -0.5 L 30 -0.5 Z M 72.20425478413539 0.5 L 99.51007206827077 0.5 L 99.51007206827077 3.5 L 106.51007206827077 0 L 99.51007206827077 -3.5 L 99.51007206827077 -0.5 L 72.20425478413539 -0.5 Z"/><text text-anchor="middle" pointer-events="none" font-size="8px" fill="#000000" x="64.75503603413539" y="3" font-family="sans-serif">on</text></g><g class="relationship" transform="translate(51.17224529126296 633.3955798366237) rotate(269.638578266251)"><path class="outline" fill="#A5ABB6" stroke="none" d="M 30 0.5 L 36.83690652307042 0.5 L 36.83690652307042 -0.5 L 30 -0.5 Z M 51.73534402307042 0.5 L 58.572250546140836 0.5 L 58.572250546140836 3.5 L 65.57225054614084 0 L 58.572250546140836 -3.5 L 58.572250546140836 -0.5 L 51.73534402307042 -0.5 Z"/><text text-anchor="middle" pointer-events="none" font-size="8px" fill="#000000" x="44.28612527307042" y="3" transform="rotate(180 44.28612527307042 0)" font-family="sans-serif">on</text></g><g class="relationship" transform="translate(-47.000790874767695 530.1697735247045) rotate(306.7200867948973)"><path class="outline" fill="#A5ABB6" stroke="none" d="M 35 0.5 L 62.17059689806125 0.5 L 62.17059689806125 -0.5 L 35 -0.5 Z M 90.40106564806125 0.5 L 117.5716625461225 0.5 L 117.5716625461225 3.5 L 124.5716625461225 0 L 117.5716625461225 -3.5 L 117.5716625461225 -0.5 L 90.40106564806125 -0.5 Z"/><text text-anchor="middle" pointer-events="none" font-size="8px" fill="#000000" x="76.28583127306125" y="3" font-family="sans-serif">partOf</text></g><g class="relationship" transform="translate(-47.000790874767695 530.1697735247045) rotate(360.0914204505849)"><path class="outline" fill="#A5ABB6" stroke="none" d="M 35 0.5 L 44.011492470721265 0.5 L 44.011492470721265 -0.5 L 35 -0.5 Z M 44.011492470721265 0.5 L 53.02298494144253 0.5 L 53.02298494144253 3.5 L 60.02298494144253 0 L 53.02298494144253 -3.5 L 53.02298494144253 -0.5 L 44.011492470721265 -0.5 Z"/><text text-anchor="middle" pointer-events="none" font-size="8px" fill="#000000" x="44.011492470721265" y="3" font-family="sans-serif"/></g><g class="relationship" transform="translate(497.22872779528507 333.9554285147337) rotate(216.7394224025179)"><path class="outline" fill="#A5ABB6" stroke="none" d="M 36.092808963288796,10.188677104489063 L 36.35162800839132,9.222751278199993 A 171.29443555904362 171.29443555904362 0 0 0 55.795272786659,13.24140451301318 L 55.64996381977245,14.23079084005758 A 172.29443555904362 172.29443555904362 0 0 1 36.092808963288796,10.188677104489063 Z M 97.67518607047202,15.219796812474414 L 97.57657989225049,14.224670276994345 A 171.29443555904362 171.29443555904362 0 0 0 117.1877418668948,11.125118359475767 L 116.54845925103035,8.194023387105627 L 124.13351057173585,10.12197475118708 L 118.04011868804739,15.03324498930262 L 117.40083607218294,12.10215001693248 A 172.29443555904362 172.29443555904362 0 0 1 97.67518607047202,15.219796812474414"/><text text-anchor="middle" pointer-events="none" font-size="8px" fill="#000000" x="76.6440628996884" y="18.511914782427993" transform="rotate(180 76.6440628996884 15.511914782427993)" font-family="sans-serif">entryPoint</text></g><g class="relationship" transform="translate(497.22872779528507 333.9554285147337) rotate(216.7394224025179)"><path class="outline" fill="#A5ABB6" stroke="none" d="M 36.092808963288796,-10.188677104489063 L 36.35162800839132,-9.222751278199993 A 171.29443555904362 171.29443555904362 0 0 1 62.61499076180294,-14.103595659858343 L 62.50949463502931,-15.098015373679289 A 172.29443555904362 172.29443555904362 0 0 0 36.092808963288796,-10.188677104489063 Z M 90.78245381393069,-15.763380694510317 L 90.72385317758388,-14.765099188411085 A 171.29443555904362 171.29443555904362 0 0 1 117.1877418668948,-11.125118359475767 L 116.54845925103035,-8.194023387105627 L 124.13351057173585,-10.12197475118708 L 118.04011868804739,-15.03324498930262 L 117.40083607218294,-12.10215001693248 A 172.29443555904362 172.29443555904362 0 0 0 90.78245381393069,-15.763380694510317"/><text text-anchor="middle" pointer-events="none" font-size="8px" fill="#000000" x="76.64406289968835" y="-12.511914782427993" transform="rotate(180 76.64406289968835 -15.511914782427993)" font-family="sans-serif">partOf</text></g><g class="relationship" transform="translate(592.4879673748189 195.44624420213404) rotate(224.43037051591193)"><path class="outline" fill="#A5ABB6" stroke="none" d="M 30 0.5 L 60.31139985177336 0.5 L 60.31139985177336 -0.5 L 30 -0.5 Z M 75.20983735177336 0.5 L 105.52123720354672 0.5 L 105.52123720354672 3.5 L 112.52123720354672 0 L 105.52123720354672 -3.5 L 105.52123720354672 -0.5 L 75.20983735177336 -0.5 Z"/><text text-anchor="middle" pointer-events="none" font-size="8px" fill="#000000" x="67.76061860177336" y="3" transform="rotate(180 67.76061860177336 0)" font-family="sans-serif">on</text></g><g class="relationship" transform="translate(592.4879673748189 195.44624420213404) rotate(505.904950666995)"><path class="outline" fill="#A5ABB6" stroke="none" d="M 30 0.5 L 37.19370687612341 0.5 L 37.19370687612341 -0.5 L 30 -0.5 Z M 52.09214437612341 0.5 L 59.285851252246815 0.5 L 59.285851252246815 3.5 L 66.28585125224681 0 L 59.285851252246815 -3.5 L 59.285851252246815 -0.5 L 52.09214437612341 -0.5 Z"/><text text-anchor="middle" pointer-events="none" font-size="8px" fill="#000000" x="44.64292562612341" y="3" transform="rotate(180 44.64292562612341 0)" font-family="sans-serif">on</text></g><g class="relationship" transform="translate(592.4879673748189 195.44624420213404) rotate(484.51812154152657)"><path class="outline" fill="#A5ABB6" stroke="none" d="M 30 0.5 L 69.35302224364146 0.5 L 69.35302224364146 -0.5 L 30 -0.5 Z M 84.25145974364146 0.5 L 123.60448198728292 0.5 L 123.60448198728292 3.5 L 130.60448198728292 0 L 123.60448198728292 -3.5 L 123.60448198728292 -0.5 L 84.25145974364146 -0.5 Z"/><text text-anchor="middle" pointer-events="none" font-size="8px" fill="#000000" x="76.80224099364146" y="3" transform="rotate(180 76.80224099364146 0)" font-family="sans-serif">on</text></g><g class="relationship" transform="translate(592.4879673748189 195.44624420213404) rotate(190.6673152987932)"><path class="outline" fill="#A5ABB6" stroke="none" d="M 30 0.5 L 41.88284141517593 0.5 L 41.88284141517593 -0.5 L 30 -0.5 Z M 56.78127891517593 0.5 L 68.66412033035186 0.5 L 68.66412033035186 3.5 L 75.66412033035186 0 L 68.66412033035186 -3.5 L 68.66412033035186 -0.5 L 56.78127891517593 -0.5 Z"/><text text-anchor="middle" pointer-events="none" font-size="8px" fill="#000000" x="49.33206016517593" y="3" transform="rotate(180 49.33206016517593 0)" font-family="sans-serif">on</text></g><g class="relationship" transform="translate(508.6122652920544 252.2237949067532) rotate(187.8009735470572)"><path class="outline" fill="#A5ABB6" stroke="none" d="M 35 0.5 L 50.8513340140866 0.5 L 50.8513340140866 -0.5 L 35 -0.5 Z M 79.0818027640866 0.5 L 94.9331367781732 0.5 L 94.9331367781732 3.5 L 101.9331367781732 0 L 94.9331367781732 -3.5 L 94.9331367781732 -0.5 L 79.0818027640866 -0.5 Z"/><text text-anchor="middle" pointer-events="none" font-size="8px" fill="#000000" x="64.9665683890866" y="3" transform="rotate(180 64.9665683890866 0)" font-family="sans-serif">partOf</text></g><g class="relationship" transform="translate(508.6122652920544 252.2237949067532) rotate(457.9291158991516)"><path class="outline" fill="#A5ABB6" stroke="none" d="M 35 0.5 L 36.51028616651101 0.5 L 36.51028616651101 -0.5 L 35 -0.5 Z M 36.51028616651101 0.5 L 38.02057233302202 0.5 L 38.02057233302202 3.5 L 45.02057233302202 0 L 38.02057233302202 -3.5 L 38.02057233302202 -0.5 L 36.51028616651101 -0.5 Z"/><text text-anchor="middle" pointer-events="none" font-size="8px" fill="#000000" x="36.51028616651101" y="3" transform="rotate(180 36.51028616651101 0)" font-family="sans-serif"/></g><g class="relationship" transform="translate(-0.7239291833776619 -156.01348753604702) rotate(435.9621274871149)"><path class="outline" fill="#A5ABB6" stroke="none" d="M 36.092808963288796,-10.188677104489063 L 36.35162800839132,-9.222751278199993 A 175.24996605059545 175.24996605059545 0 0 1 56.76360017439619,-13.409682606137977 L 56.621254602162196,-14.399499628655462 A 176.24996605059545 176.24996605059545 0 0 0 36.092808963288796,-10.188677104489063 Z M 98.64863707483866,-15.378377427060968 L 98.55252936725408,-14.383006486887012 A 175.24996605059545 175.24996605059545 0 0 1 119.13730041081946,-11.150947896047766 L 118.49659882818706,-8.220162765402339 L 126.08258264609753,-10.14444172501306 L 119.99156918766268,-15.058661403575002 L 119.35086760503027,-12.127876272929575 A 176.24996605059545 176.24996605059545 0 0 0 98.64863707483866,-15.378377427060968"/><text text-anchor="middle" pointer-events="none" font-size="8px" fill="#000000" x="77.61729888775845" y="-12.646597093123063" font-family="sans-serif">entryPoint</text></g><g class="relationship" transform="translate(-0.7239291833776619 -156.01348753604702) rotate(435.9621274871149)"><path class="outline" fill="#A5ABB6" stroke="none" d="M 36.092808963288796,10.188677104489063 L 36.35162800839132,9.222751278199993 A 175.24996605059545 175.24996605059545 0 0 0 63.585957116366295,14.25458709164144 L 63.48254083522272,15.249225253383912 A 176.24996605059545 176.24996605059545 0 0 1 36.092808963288796,10.188677104489063 Z M 91.75522998629971,15.907736587731279 L 91.69823381582918,14.909362190747999 A 175.24996605059545 175.24996605059545 0 0 0 119.13730041081946,11.150947896047766 L 118.49659882818706,8.220162765402339 L 126.08258264609753,10.14444172501306 L 119.99156918766268,15.058661403575002 L 119.35086760503027,12.127876272929575 A 176.24996605059545 176.24996605059545 0 0 1 91.75522998629971,15.907736587731279"/><text text-anchor="middle" pointer-events="none" font-size="8px" fill="#000000" x="77.61729888775851" y="18.646597093123063" font-family="sans-serif">partOf</text></g><g class="relationship" transform="translate(82.44033229887637 -265.0027778376677) rotate(453.4458738613439)"><path class="outline" fill="#A5ABB6" stroke="none" d="M 30 0.5 L 58.84997055955564 0.5 L 58.84997055955564 -0.5 L 30 -0.5 Z M 73.74840805955564 0.5 L 102.59837861911129 0.5 L 102.59837861911129 3.5 L 109.59837861911129 0 L 102.59837861911129 -3.5 L 102.59837861911129 -0.5 L 73.74840805955564 -0.5 Z"/><text text-anchor="middle" pointer-events="none" font-size="8px" fill="#000000" x="66.29918930955564" y="3" transform="rotate(180 66.29918930955564 0)" font-family="sans-serif">on</text></g><g class="relationship" transform="translate(82.44033229887637 -265.0027778376677) rotate(420.49018587790505)"><path class="outline" fill="#A5ABB6" stroke="none" d="M 30 0.5 L 53.722520630708644 0.5 L 53.722520630708644 -0.5 L 30 -0.5 Z M 68.62095813070864 0.5 L 92.34347876141729 0.5 L 92.34347876141729 3.5 L 99.34347876141729 0 L 92.34347876141729 -3.5 L 92.34347876141729 -0.5 L 68.62095813070864 -0.5 Z"/><text text-anchor="middle" pointer-events="none" font-size="8px" fill="#000000" x="61.171739380708644" y="3" font-family="sans-serif">on</text></g><g class="relationship" transform="translate(82.44033229887637 -265.0027778376677) rotate(315.66717649424663)"><path class="outline" fill="#A5ABB6" stroke="none" d="M 30 0.5 L 57.499185576364624 0.5 L 57.499185576364624 -0.5 L 30 -0.5 Z M 72.39762307636462 0.5 L 99.89680865272925 0.5 L 99.89680865272925 3.5 L 106.89680865272925 0 L 99.89680865272925 -3.5 L 99.89680865272925 -0.5 L 72.39762307636462 -0.5 Z"/><text text-anchor="middle" pointer-events="none" font-size="8px" fill="#000000" x="64.94840432636462" y="3" font-family="sans-serif">on</text></g><g class="relationship" transform="translate(82.44033229887637 -265.0027778376677) rotate(521.3013819361586)"><path class="outline" fill="#A5ABB6" stroke="none" d="M 30 0.5 L 60.56314243309427 0.5 L 60.56314243309427 -0.5 L 30 -0.5 Z M 75.46157993309427 0.5 L 106.02472236618854 0.5 L 106.02472236618854 3.5 L 113.02472236618854 0 L 106.02472236618854 -3.5 L 106.02472236618854 -0.5 L 75.46157993309427 -0.5 Z"/><text text-anchor="middle" pointer-events="none" font-size="8px" fill="#000000" x="68.01236118309427" y="3" transform="rotate(180 68.01236118309427 0)" font-family="sans-serif">on</text></g><g class="relationship" transform="translate(82.44033229887637 -265.0027778376677) rotate(236.0764586903934)"><path class="outline" fill="#A5ABB6" stroke="none" d="M 30 0.5 L 53.47826691290305 0.5 L 53.47826691290305 -0.5 L 30 -0.5 Z M 68.37670441290305 0.5 L 91.8549713258061 0.5 L 91.8549713258061 3.5 L 98.8549713258061 0 L 91.8549713258061 -3.5 L 91.8549713258061 -0.5 L 68.37670441290305 -0.5 Z"/><text text-anchor="middle" pointer-events="none" font-size="8px" fill="#000000" x="60.92748566290305" y="3" transform="rotate(180 60.92748566290305 0)" font-family="sans-serif">on</text></g><g class="relationship" transform="translate(82.44033229887637 -265.0027778376677) rotate(487.34543672067934)"><path class="outline" fill="#A5ABB6" stroke="none" d="M 30 0.5 L 53.8481367575972 0.5 L 53.8481367575972 -0.5 L 30 -0.5 Z M 68.7465742575972 0.5 L 92.5947110151944 0.5 L 92.5947110151944 3.5 L 99.5947110151944 0 L 92.5947110151944 -3.5 L 92.5947110151944 -0.5 L 68.7465742575972 -0.5 Z"/><text text-anchor="middle" pointer-events="none" font-size="8px" fill="#000000" x="61.2973555075972" y="3" transform="rotate(180 61.2973555075972 0)" font-family="sans-serif">on</text></g><g class="relationship" transform="translate(82.44033229887637 -265.0027778376677) rotate(350.08013153328034)"><path class="outline" fill="#A5ABB6" stroke="none" d="M 30 0.5 L 56.747884553251836 0.5 L 56.747884553251836 -0.5 L 30 -0.5 Z M 71.64632205325184 0.5 L 98.39420660650367 0.5 L 98.39420660650367 3.5 L 105.39420660650367 0 L 98.39420660650367 -3.5 L 98.39420660650367 -0.5 L 71.64632205325184 -0.5 Z"/><text text-anchor="middle" pointer-events="none" font-size="8px" fill="#000000" x="64.19710330325184" y="3" font-family="sans-serif">on</text></g><g class="relationship" transform="translate(73.74916069842793 -120.66582956908533) rotate(463.88792676485923)"><path class="outline" fill="#A5ABB6" stroke="none" d="M 35 0.5 L 44.11596045086952 0.5 L 44.11596045086952 -0.5 L 35 -0.5 Z M 72.34642920086952 0.5 L 81.46238965173904 0.5 L 81.46238965173904 3.5 L 88.46238965173904 0 L 81.46238965173904 -3.5 L 81.46238965173904 -0.5 L 72.34642920086952 -0.5 Z"/><text text-anchor="middle" pointer-events="none" font-size="8px" fill="#000000" x="58.23119482586952" y="3" transform="rotate(180 58.23119482586952 0)" font-family="sans-serif">partOf</text></g><g class="relationship" transform="translate(73.74916069842793 -120.66582956908533) rotate(205.3907297978359)"><path class="outline" fill="#A5ABB6" stroke="none" d="M 35 0.5 L 36.46801196168007 0.5 L 36.46801196168007 -0.5 L 35 -0.5 Z M 36.46801196168007 0.5 L 37.93602392336014 0.5 L 37.93602392336014 3.5 L 44.93602392336014 0 L 37.93602392336014 -3.5 L 37.93602392336014 -0.5 L 36.46801196168007 -0.5 Z"/><text text-anchor="middle" pointer-events="none" font-size="8px" fill="#000000" x="36.46801196168007" y="3" transform="rotate(180 36.46801196168007 0)" font-family="sans-serif"/></g><g class="relationship" transform="translate(481.2794869928881 174.49888109161193) rotate(514.5530995511306)"><path class="outline" fill="#A5ABB6" stroke="none" d="M 37.5 0.5 L 44.228392394473275 0.5 L 44.228392394473275 -0.5 L 37.5 -0.5 Z M 72.45886114447327 0.5 L 79.18725353894655 0.5 L 79.18725353894655 3.5 L 86.18725353894655 0 L 79.18725353894655 -3.5 L 79.18725353894655 -0.5 L 72.45886114447327 -0.5 Z"/><text text-anchor="middle" pointer-events="none" font-size="8px" fill="#000000" x="58.343626769473275" y="3" transform="rotate(180 58.343626769473275 0)" font-family="sans-serif">partOf</text></g><g class="relationship" transform="translate(-43.2254983715385 -43.21493006882469) rotate(419.8950767026347)"><path class="outline" fill="#A5ABB6" stroke="none" d="M 30 0.5 L 67.20699868931993 0.5 L 67.20699868931993 -0.5 L 30 -0.5 Z M 103.44527993931993 0.5 L 140.65227862863986 0.5 L 140.65227862863986 3.5 L 147.65227862863986 0 L 140.65227862863986 -3.5 L 140.65227862863986 -0.5 L 103.44527993931993 -0.5 Z"/><text text-anchor="middle" pointer-events="none" font-size="8px" fill="#000000" x="85.32613931431993" y="3" font-family="sans-serif">provides</text></g><g class="relationship" transform="translate(-43.2254983715385 -43.21493006882469) rotate(264.43302431012484)"><path class="outline" fill="#A5ABB6" stroke="none" d="M 30 0.5 L 72.47750467270129 0.5 L 72.47750467270129 -0.5 L 30 -0.5 Z M 87.37594217270129 0.5 L 129.85344684540257 0.5 L 129.85344684540257 3.5 L 136.85344684540257 0 L 129.85344684540257 -3.5 L 129.85344684540257 -0.5 L 87.37594217270129 -0.5 Z"/><text text-anchor="middle" pointer-events="none" font-size="8px" fill="#000000" x="79.92672342270129" y="3" transform="rotate(180 79.92672342270129 0)" font-family="sans-serif">on</text></g><g class="relationship" transform="translate(148.61425362916017 -148.087499017948) rotate(483.994121979029)"><path class="outline" fill="#A5ABB6" stroke="none" d="M 35 0.5 L 72.26940263443866 0.5 L 72.26940263443866 -0.5 L 35 -0.5 Z M 100.49987138443866 0.5 L 137.76927401887733 0.5 L 137.76927401887733 3.5 L 144.76927401887733 0 L 137.76927401887733 -3.5 L 137.76927401887733 -0.5 L 100.49987138443866 -0.5 Z"/><text text-anchor="middle" pointer-events="none" font-size="8px" fill="#000000" x="86.38463700943866" y="3" transform="rotate(180 86.38463700943866 0)" font-family="sans-serif">partOf</text></g><g class="relationship" transform="translate(148.61425362916017 -148.087499017948) rotate(183.03807103120943)"><path class="outline" fill="#A5ABB6" stroke="none" d="M 35 0.5 L 49.67848048762798 0.5 L 49.67848048762798 -0.5 L 35 -0.5 Z M 90.36988673762798 0.5 L 105.04836722525596 0.5 L 105.04836722525596 3.5 L 112.04836722525596 0 L 105.04836722525596 -3.5 L 105.04836722525596 -0.5 L 90.36988673762798 -0.5 Z"/><text text-anchor="middle" pointer-events="none" font-size="8px" fill="#000000" x="70.02418361262798" y="3" transform="rotate(180 70.02418361262798 0)" font-family="sans-serif">hostedOn</text></g><g class="relationship" transform="translate(325.6203547982906 -358.5830024179373) rotate(506.0464948545298)"><path class="outline" fill="#A5ABB6" stroke="none" d="M 30 0.5 L 47.03871757565114 0.5 L 47.03871757565114 -0.5 L 30 -0.5 Z M 61.93715507565114 0.5 L 78.97587265130228 0.5 L 78.97587265130228 3.5 L 85.97587265130228 0 L 78.97587265130228 -3.5 L 78.97587265130228 -0.5 L 61.93715507565114 -0.5 Z"/><text text-anchor="middle" pointer-events="none" font-size="8px" fill="#000000" x="54.48793632565114" y="3" transform="rotate(180 54.48793632565114 0)" font-family="sans-serif">on</text></g><g class="relationship" transform="translate(325.6203547982906 -358.5830024179373) rotate(182.99851457089648)"><path class="outline" fill="#A5ABB6" stroke="none" d="M 30 0.5 L 55.34371108465423 0.5 L 55.34371108465423 -0.5 L 30 -0.5 Z M 70.24214858465423 0.5 L 95.58585966930846 0.5 L 95.58585966930846 3.5 L 102.58585966930846 0 L 95.58585966930846 -3.5 L 95.58585966930846 -0.5 L 70.24214858465423 -0.5 Z"/><text text-anchor="middle" pointer-events="none" font-size="8px" fill="#000000" x="62.79292983465423" y="3" transform="rotate(180 62.79292983465423 0)" font-family="sans-serif">on</text></g><g class="relationship" transform="translate(487.1427993490332 92.17518823927446) rotate(492.1660020065784)"><path class="outline" fill="#A5ABB6" stroke="none" d="M 35 0.5 L 70.41776100637988 0.5 L 70.41776100637988 -0.5 L 35 -0.5 Z M 98.64822975637988 0.5 L 134.06599076275975 0.5 L 134.06599076275975 3.5 L 141.06599076275975 0 L 134.06599076275975 -3.5 L 134.06599076275975 -0.5 L 98.64822975637988 -0.5 Z"/><text text-anchor="middle" pointer-events="none" font-size="8px" fill="#000000" x="84.53299538137988" y="3" transform="rotate(180 84.53299538137988 0)" font-family="sans-serif">partOf</text></g><g class="relationship" transform="translate(487.1427993490332 92.17518823927446) rotate(454.0738786195033)"><path class="outline" fill="#A5ABB6" stroke="none" d="M 35 0.5 L 36.51611453914617 0.5 L 36.51611453914617 -0.5 L 35 -0.5 Z M 36.51611453914617 0.5 L 38.032229078292346 0.5 L 38.032229078292346 3.5 L 45.032229078292346 0 L 38.032229078292346 -3.5 L 38.032229078292346 -0.5 L 36.51611453914617 -0.5 Z"/><text text-anchor="middle" pointer-events="none" font-size="8px" fill="#000000" x="36.51611453914617" y="3" transform="rotate(180 36.51611453914617 0)" font-family="sans-serif"/></g><g class="relationship" transform="translate(-125.15629021332725 -398.9273763227626) rotate(368.97967668848673)"><path class="outline" fill="#A5ABB6" stroke="none" d="M 30 0.5 L 51.866025111800155 0.5 L 51.866025111800155 -0.5 L 30 -0.5 Z M 66.76446261180016 0.5 L 88.63048772360031 0.5 L 88.63048772360031 3.5 L 95.63048772360031 0 L 88.63048772360031 -3.5 L 88.63048772360031 -0.5 L 66.76446261180016 -0.5 Z"/><text text-anchor="middle" pointer-events="none" font-size="8px" fill="#000000" x="59.315243861800155" y="3" font-family="sans-serif">on</text></g><g class="relationship" transform="translate(11.838608287776516 254.1741398993114) rotate(284.00314118036135)"><path class="outline" fill="#A5ABB6" stroke="none" d="M 30 0.5 L 50.06726695800447 0.5 L 50.06726695800447 -0.5 L 30 -0.5 Z M 86.30554820800447 0.5 L 106.37281516600893 0.5 L 106.37281516600893 3.5 L 113.37281516600893 0 L 106.37281516600893 -3.5 L 106.37281516600893 -0.5 L 86.30554820800447 -0.5 Z"/><text text-anchor="middle" pointer-events="none" font-size="8px" fill="#000000" x="68.18640758300447" y="3" font-family="sans-serif">provides</text></g><g class="relationship" transform="translate(11.838608287776516 254.1741398993114) rotate(432.3075586202035)"><path class="outline" fill="#A5ABB6" stroke="none" d="M 30 0.5 L 52.762519730352196 0.5 L 52.762519730352196 -0.5 L 30 -0.5 Z M 67.6609572303522 0.5 L 90.42347696070439 0.5 L 90.42347696070439 3.5 L 97.42347696070439 0 L 90.42347696070439 -3.5 L 90.42347696070439 -0.5 L 67.6609572303522 -0.5 Z"/><text text-anchor="middle" pointer-events="none" font-size="8px" fill="#000000" x="60.211738480352196" y="3" font-family="sans-serif">on</text></g><g class="relationship" transform="translate(222.19814473869704 145.3117107183469) rotate(190.57262982375732)"><path class="outline" fill="#A5ABB6" stroke="none" d="M 30 0.5 L 66.17350084759998 0.5 L 66.17350084759998 -0.5 L 30 -0.5 Z M 102.41178209759998 0.5 L 138.58528294519996 0.5 L 138.58528294519996 3.5 L 145.58528294519996 0 L 138.58528294519996 -3.5 L 138.58528294519996 -0.5 L 102.41178209759998 -0.5 Z"/><text text-anchor="middle" pointer-events="none" font-size="8px" fill="#000000" x="84.29264147259998" y="3" transform="rotate(180 84.29264147259998 0)" font-family="sans-serif">provides</text></g><g class="relationship" transform="translate(222.19814473869704 145.3117107183469) rotate(392.0505403076305)"><path class="outline" fill="#A5ABB6" stroke="none" d="M 30 0.5 L 61.92366887549558 0.5 L 61.92366887549558 -0.5 L 30 -0.5 Z M 76.82210637549558 0.5 L 108.74577525099116 0.5 L 108.74577525099116 3.5 L 115.74577525099116 0 L 108.74577525099116 -3.5 L 108.74577525099116 -0.5 L 76.82210637549558 -0.5 Z"/><text text-anchor="middle" pointer-events="none" font-size="8px" fill="#000000" x="69.37288762549558" y="3" font-family="sans-serif">on</text></g><g class="relationship" transform="translate(185.97029091316378 68.16258346047691) rotate(425.36793876976685)"><path class="outline" fill="#A5ABB6" stroke="none" d="M 30 0.5 L 56.043122551143384 0.5 L 56.043122551143384 -0.5 L 30 -0.5 Z M 92.28140380114338 0.5 L 118.32452635228677 0.5 L 118.32452635228677 3.5 L 125.32452635228677 0 L 118.32452635228677 -3.5 L 118.32452635228677 -0.5 L 92.28140380114338 -0.5 Z"/><text text-anchor="middle" pointer-events="none" font-size="8px" fill="#000000" x="74.16226317614338" y="3" font-family="sans-serif">provides</text></g><g class="relationship" transform="translate(185.97029091316378 68.16258346047691) rotate(201.42483066508134)"><path class="outline" fill="#A5ABB6" stroke="none" d="M 30 0.5 L 58.10488000344395 0.5 L 58.10488000344395 -0.5 L 30 -0.5 Z M 73.00331750344395 0.5 L 101.1081975068879 0.5 L 101.1081975068879 3.5 L 108.1081975068879 0 L 101.1081975068879 -3.5 L 101.1081975068879 -0.5 L 73.00331750344395 -0.5 Z"/><text text-anchor="middle" pointer-events="none" font-size="8px" fill="#000000" x="65.55409875344395" y="3" transform="rotate(180 65.55409875344395 0)" font-family="sans-serif">on</text></g><g class="relationship" transform="translate(176.0138978937643 334.1154100229568) rotate(301.72867892328077)"><path class="outline" fill="#A5ABB6" stroke="none" d="M 30 0.5 L 49.13729342680142 0.5 L 49.13729342680142 -0.5 L 30 -0.5 Z M 85.37557467680142 0.5 L 104.51286810360284 0.5 L 104.51286810360284 3.5 L 111.51286810360284 0 L 104.51286810360284 -3.5 L 104.51286810360284 -0.5 L 85.37557467680142 -0.5 Z"/><text text-anchor="middle" pointer-events="none" font-size="8px" fill="#000000" x="67.25643405180142" y="3" font-family="sans-serif">provides</text></g><g class="relationship" transform="translate(176.0138978937643 334.1154100229568) rotate(514.1793247462476)"><path class="outline" fill="#A5ABB6" stroke="none" d="M 30 0.5 L 47.02878179026932 0.5 L 47.02878179026932 -0.5 L 30 -0.5 Z M 61.92721929026932 0.5 L 78.95600108053864 0.5 L 78.95600108053864 3.5 L 85.95600108053864 0 L 78.95600108053864 -3.5 L 78.95600108053864 -0.5 L 61.92721929026932 -0.5 Z"/><text text-anchor="middle" pointer-events="none" font-size="8px" fill="#000000" x="54.47800054026932" y="3" transform="rotate(180 54.47800054026932 0)" font-family="sans-serif">on</text></g><g class="relationship" transform="translate(-131.27739551841933 -22.20923271029425) rotate(188.47016865136754)"><path class="outline" fill="#A5ABB6" stroke="none" d="M 30 0.5 L 48.79865675806175 0.5 L 48.79865675806175 -0.5 L 30 -0.5 Z M 85.03693800806175 0.5 L 103.8355947661235 0.5 L 103.8355947661235 3.5 L 110.8355947661235 0 L 103.8355947661235 -3.5 L 103.8355947661235 -0.5 L 85.03693800806175 -0.5 Z"/><text text-anchor="middle" pointer-events="none" font-size="8px" fill="#000000" x="66.91779738306175" y="3" transform="rotate(180 66.91779738306175 0)" font-family="sans-serif">provides</text></g><g class="relationship" transform="translate(-131.27739551841933 -22.20923271029425) rotate(371.00689473992173)"><path class="outline" fill="#A5ABB6" stroke="none" d="M 30 0.5 L 68.11233823034271 0.5 L 68.11233823034271 -0.5 L 30 -0.5 Z M 83.01077573034271 0.5 L 121.12311396068543 0.5 L 121.12311396068543 3.5 L 128.12311396068543 0 L 121.12311396068543 -3.5 L 121.12311396068543 -0.5 L 83.01077573034271 -0.5 Z"/><text text-anchor="middle" pointer-events="none" font-size="8px" fill="#000000" x="75.56155698034271" y="3" font-family="sans-serif">on</text></g><g class="relationship" transform="translate(239.7544181271624 363.0378995404918) rotate(312.6609759035225)"><path class="outline" fill="#A5ABB6" stroke="none" d="M 30 0.5 L 69.43679273577857 0.5 L 69.43679273577857 -0.5 L 30 -0.5 Z M 84.33523023577857 0.5 L 123.77202297155713 0.5 L 123.77202297155713 3.5 L 130.77202297155713 0 L 123.77202297155713 -3.5 L 123.77202297155713 -0.5 L 84.33523023577857 -0.5 Z"/><text text-anchor="middle" pointer-events="none" font-size="8px" fill="#000000" x="76.88601148577857" y="3" font-family="sans-serif">on</text></g><g class="relationship" transform="translate(239.7544181271624 363.0378995404918) rotate(530.9749161144214)"><path class="outline" fill="#A5ABB6" stroke="none" d="M 30 0.5 L 73.38948963927444 0.5 L 73.38948963927444 -0.5 L 30 -0.5 Z M 88.28792713927444 0.5 L 131.6774167785489 0.5 L 131.6774167785489 3.5 L 138.6774167785489 0 L 131.6774167785489 -3.5 L 131.6774167785489 -0.5 L 88.28792713927444 -0.5 Z"/><text text-anchor="middle" pointer-events="none" font-size="8px" fill="#000000" x="80.83870838927444" y="3" transform="rotate(180 80.83870838927444 0)" font-family="sans-serif">on</text></g><g class="relationship" transform="translate(145.26304294105387 210.90368374084463) rotate(365.5807414881929)"><path class="outline" fill="#A5ABB6" stroke="none" d="M 30 0.5 L 88.46295912944338 0.5 L 88.46295912944338 -0.5 L 30 -0.5 Z M 103.36139662944338 0.5 L 161.82435575888675 0.5 L 161.82435575888675 3.5 L 168.82435575888675 0 L 161.82435575888675 -3.5 L 161.82435575888675 -0.5 L 103.36139662944338 -0.5 Z"/><text text-anchor="middle" pointer-events="none" font-size="8px" fill="#000000" x="95.91217787944338" y="3" font-family="sans-serif">on</text></g><g class="relationship" transform="translate(145.26304294105387 210.90368374084463) rotate(242.44302160494755)"><path class="outline" fill="#A5ABB6" stroke="none" d="M 30 0.5 L 92.86151119267595 0.5 L 92.86151119267595 -0.5 L 30 -0.5 Z M 107.75994869267595 0.5 L 170.6214598853519 0.5 L 170.6214598853519 3.5 L 177.6214598853519 0 L 170.6214598853519 -3.5 L 170.6214598853519 -0.5 L 107.75994869267595 -0.5 Z"/><text text-anchor="middle" pointer-events="none" font-size="8px" fill="#000000" x="100.31072994267595" y="3" transform="rotate(180 100.31072994267595 0)" font-family="sans-serif">on</text></g><g class="relationship" transform="translate(145.26304294105387 210.90368374084463) rotate(476.2384306330318)"><path class="outline" fill="#A5ABB6" stroke="none" d="M 30 0.5 L 81.38604210209121 0.5 L 81.38604210209121 -0.5 L 30 -0.5 Z M 96.28447960209121 0.5 L 147.67052170418242 0.5 L 147.67052170418242 3.5 L 154.67052170418242 0 L 147.67052170418242 -3.5 L 147.67052170418242 -0.5 L 96.28447960209121 -0.5 Z"/><text text-anchor="middle" pointer-events="none" font-size="8px" fill="#000000" x="88.83526085209121" y="3" transform="rotate(180 88.83526085209121 0)" font-family="sans-serif">on</text></g><g class="relationship" transform="translate(-83.97862599099194 439.5669189113693) rotate(341.3059658290142)"><path class="outline" fill="#A5ABB6" stroke="none" d="M 30 0.5 L 54.125793252978994 0.5 L 54.125793252978994 -0.5 L 30 -0.5 Z M 69.024230752979 0.5 L 93.15002400595799 0.5 L 93.15002400595799 3.5 L 100.15002400595799 0 L 93.15002400595799 -3.5 L 93.15002400595799 -0.5 L 69.024230752979 -0.5 Z"/><text text-anchor="middle" pointer-events="none" font-size="8px" fill="#000000" x="61.575012002978994" y="3" font-family="sans-serif">on</text></g><g class="relationship" transform="translate(-112.84509859988154 336.20878269243246) rotate(223.12856265724383)"><path class="outline" fill="#A5ABB6" stroke="none" d="M 30 0.5 L 58.357749615601506 0.5 L 58.357749615601506 -0.5 L 30 -0.5 Z M 94.5960308656015 0.5 L 122.95378048120301 0.5 L 122.95378048120301 3.5 L 129.953780481203 0 L 122.95378048120301 -3.5 L 122.95378048120301 -0.5 L 94.5960308656015 -0.5 Z"/><text text-anchor="middle" pointer-events="none" font-size="8px" fill="#000000" x="76.4768902406015" y="3" transform="rotate(180 76.4768902406015 0)" font-family="sans-serif">provides</text></g><g class="relationship" transform="translate(-112.84509859988154 336.20878269243246) rotate(248.73243376109235)"><path class="outline" fill="#A5ABB6" stroke="none" d="M 30 0.5 L 37.34861379882889 0.5 L 37.34861379882889 -0.5 L 30 -0.5 Z M 73.5868950488289 0.5 L 80.93550884765779 0.5 L 80.93550884765779 3.5 L 87.93550884765779 0 L 80.93550884765779 -3.5 L 80.93550884765779 -0.5 L 73.5868950488289 -0.5 Z"/><text text-anchor="middle" pointer-events="none" font-size="8px" fill="#000000" x="55.46775442382889" y="3" transform="rotate(180 55.46775442382889 0)" font-family="sans-serif">provides</text></g><g class="relationship" transform="translate(-112.84509859988154 336.20878269243246) rotate(378.3713084087386)"><path class="outline" fill="#A5ABB6" stroke="none" d="M 30 0.5 L 69.19487177859946 0.5 L 69.19487177859946 -0.5 L 30 -0.5 Z M 84.09330927859946 0.5 L 123.28818105719893 0.5 L 123.28818105719893 3.5 L 130.28818105719893 0 L 123.28818105719893 -3.5 L 123.28818105719893 -0.5 L 84.09330927859946 -0.5 Z"/><text text-anchor="middle" pointer-events="none" font-size="8px" fill="#000000" x="76.64409052859946" y="3" font-family="sans-serif">on</text></g><g class="relationship" transform="translate(-119.63060776294752 105.20599148721094) rotate(492.98156201732826)"><path class="outline" fill="#A5ABB6" stroke="none" d="M 30 0.5 L 59.10712364745878 0.5 L 59.10712364745878 -0.5 L 30 -0.5 Z M 95.34540489745878 0.5 L 124.45252854491756 0.5 L 124.45252854491756 3.5 L 131.45252854491756 0 L 124.45252854491756 -3.5 L 124.45252854491756 -0.5 L 95.34540489745878 -0.5 Z"/><text text-anchor="middle" pointer-events="none" font-size="8px" fill="#000000" x="77.22626427245878" y="3" transform="rotate(180 77.22626427245878 0)" font-family="sans-serif">provides</text></g><g class="relationship" transform="translate(-119.63060776294752 105.20599148721094) rotate(467.25899846503313)"><path class="outline" fill="#A5ABB6" stroke="none" d="M 30 0.5 L 39.31549310035974 0.5 L 39.31549310035974 -0.5 L 30 -0.5 Z M 75.55377435035973 0.5 L 84.86926745071948 0.5 L 84.86926745071948 3.5 L 91.86926745071948 0 L 84.86926745071948 -3.5 L 84.86926745071948 -0.5 L 75.55377435035973 -0.5 Z"/><text text-anchor="middle" pointer-events="none" font-size="8px" fill="#000000" x="57.43463372535974" y="3" transform="rotate(180 57.43463372535974 0)" font-family="sans-serif">provides</text></g><g class="relationship" transform="translate(-119.63060776294752 105.20599148721094) rotate(329.7127917874038)"><path class="outline" fill="#A5ABB6" stroke="none" d="M 30 0.5 L 73.37783998516832 0.5 L 73.37783998516832 -0.5 L 30 -0.5 Z M 88.27627748516832 0.5 L 131.65411747033664 0.5 L 131.65411747033664 3.5 L 138.65411747033664 0 L 131.65411747033664 -3.5 L 131.65411747033664 -0.5 L 88.27627748516832 -0.5 Z"/><text text-anchor="middle" pointer-events="none" font-size="8px" fill="#000000" x="80.82705873516832" y="3" font-family="sans-serif">on</text></g><g class="relationship" transform="translate(182.88435509375358 -42.66531834281127) rotate(519.1526273679392)"><path class="outline" fill="#A5ABB6" stroke="none" d="M 30 0.5 L 56.151260082537576 0.5 L 56.151260082537576 -0.5 L 30 -0.5 Z M 71.04969758253758 0.5 L 97.20095766507515 0.5 L 97.20095766507515 3.5 L 104.20095766507515 0 L 97.20095766507515 -3.5 L 97.20095766507515 -0.5 L 71.04969758253758 -0.5 Z"/><text text-anchor="middle" pointer-events="none" font-size="8px" fill="#000000" x="63.600478832537576" y="3" transform="rotate(180 63.600478832537576 0)" font-family="sans-serif">on</text></g></g><g class="layer nodes"><g class="node" transform="translate(149.3851617276091,531.5166146777918)"><circle class="outline" cx="0" cy="0" r="35" fill="#00ff00" stroke="#00e500" stroke-width="2px"/><text text-anchor="middle" pointer-events="none" font-family="sans-serif" dy="2.1875" font-size="35" fill="#604A0E"/><text text-anchor="middle" pointer-events="none" y="5" font-size="10px" fill="#604A0E" font-family="sans-serif"> Saturn.exam…</text></g><g class="node" transform="translate(50.52206992478633,530.3253799501422)"><circle class="outline" cx="0" cy="0" r="37.5" fill="#00ff00" stroke="#00e500" stroke-width="2px"/><text text-anchor="middle" pointer-events="none" font-family="sans-serif" dy="2.34375" font-size="37.5" fill="#604A0E"/><text text-anchor="middle" pointer-events="none" y="5" font-size="10px" fill="#604A0E" font-family="sans-serif"> Sirius.exampl…</text></g><g class="node" transform="translate(55.88192254402231,392.24296564830297)"><circle class="outline" cx="0" cy="0" r="47.5" fill="#009900" stroke="#007f00" stroke-width="2px"/><text text-anchor="middle" pointer-events="none" font-family="sans-serif" dy="2.96875" font-size="47.5" fill="#604A0E"/><text text-anchor="middle" pointer-events="none" y="5" font-size="10px" fill="#604A0E" font-family="sans-serif"> Hcluster1-example…</text></g><g class="node" transform="translate(51.17224529126296,633.3955798366237)"><circle class="outline" cx="0" cy="0" r="30" fill="#00cc00" stroke="#00b200" stroke-width="2px"/><text text-anchor="middle" pointer-events="none" font-family="sans-serif" dy="1.875" font-size="30" fill="#604A0E"/><text text-anchor="middle" pointer-events="none" y="5" font-size="10px" fill="#604A0E" font-family="sans-serif"> Windows 10</text></g><g class="node" transform="translate(47.136195963927676,112.6363057039945)"><circle class="outline" cx="0" cy="0" r="32.5" fill="#00b200" stroke="#009900" stroke-width="2px"/><text text-anchor="middle" pointer-events="none" font-family="sans-serif" dy="2.03125" font-size="32.5" fill="#604A0E"/><text text-anchor="middle" pointer-events="none" y="5" font-size="10px" fill="#604A0E" font-family="sans-serif"> TCP</text></g><g class="node" transform="translate(-47.000790874767695,530.1697735247045)"><circle class="outline" cx="0" cy="0" r="35" fill="#00ff00" stroke="#00e500" stroke-width="2px"/><text text-anchor="middle" pointer-events="none" font-family="sans-serif" dy="2.1875" font-size="35" fill="#604A0E"/><text text-anchor="middle" pointer-events="none" y="5" font-size="10px" fill="#604A0E" font-family="sans-serif"> Jupiter.exam…</text></g><g class="node" transform="translate(497.22872779528507,333.9554285147337)"><circle class="outline" cx="0" cy="0" r="37.5" fill="#00ff00" stroke="#00e500" stroke-width="2px"/><text text-anchor="middle" pointer-events="none" font-family="sans-serif" dy="2.34375" font-size="37.5" fill="#604A0E"/><text text-anchor="middle" pointer-events="none" y="5" font-size="10px" fill="#604A0E" font-family="sans-serif"> Altair.example…</text></g><g class="node" transform="translate(360.56205235211695,231.94087559509103)"><circle class="outline" cx="0" cy="0" r="47.5" fill="#009900" stroke="#007f00" stroke-width="2px"/><text text-anchor="middle" pointer-events="none" font-family="sans-serif" dy="2.96875" font-size="47.5" fill="#604A0E"/><text text-anchor="middle" pointer-events="none" y="5" font-size="10px" fill="#604A0E" font-family="sans-serif"> Hcluster2-example…</text></g><g class="node" transform="translate(592.4879673748189,195.44624420213404)"><circle class="outline" cx="0" cy="0" r="30" fill="#00cc00" stroke="#00b200" stroke-width="2px"/><text text-anchor="middle" pointer-events="none" font-family="sans-serif" dy="1.875" font-size="30" fill="#604A0E"/><text text-anchor="middle" pointer-events="none" y="5" font-size="10px" fill="#604A0E" font-family="sans-serif"> MacOS 10X</text></g><g class="node" transform="translate(251.74989822904104,211.62555561598694)"><circle class="outline" cx="0" cy="0" r="32.5" fill="#00b200" stroke="#009900" stroke-width="2px"/><text text-anchor="middle" pointer-events="none" font-family="sans-serif" dy="2.03125" font-size="32.5" fill="#604A0E"/><text text-anchor="middle" pointer-events="none" y="5" font-size="10px" fill="#604A0E" font-family="sans-serif"> TCP</text></g><g class="node" transform="translate(508.6122652920544,252.2237949067532)"><circle class="outline" cx="0" cy="0" r="35" fill="#00ff00" stroke="#00e500" stroke-width="2px"/><text text-anchor="middle" pointer-events="none" font-family="sans-serif" dy="2.1875" font-size="35" fill="#604A0E"/><text text-anchor="middle" pointer-events="none" y="5" font-size="10px" fill="#604A0E" font-family="sans-serif"> Mars.exampl…</text></g><g class="node" transform="translate(-0.7239291833776619,-156.01348753604702)"><circle class="outline" cx="0" cy="0" r="37.5" fill="#00ff00" stroke="#00e500" stroke-width="2px"/><text text-anchor="middle" pointer-events="none" font-family="sans-serif" dy="2.34375" font-size="37.5" fill="#604A0E"/><text text-anchor="middle" pointer-events="none" y="5" font-size="10px" fill="#604A0E" font-family="sans-serif"> Antares.exam…</text></g><g class="node" transform="translate(41.11499342592765,11.321982467639437)"><circle class="outline" cx="0" cy="0" r="47.5" fill="#009900" stroke="#007f00" stroke-width="2px"/><text text-anchor="middle" pointer-events="none" font-family="sans-serif" dy="2.96875" font-size="47.5" fill="#604A0E"/><text text-anchor="middle" pointer-events="none" y="5" font-size="10px" fill="#604A0E" font-family="sans-serif"> Hcluster3-example…</text></g><g class="node" transform="translate(82.44033229887637,-265.0027778376677)"><circle class="outline" cx="0" cy="0" r="30" fill="#00cc00" stroke="#00b200" stroke-width="2px"/><text text-anchor="middle" pointer-events="none" font-family="sans-serif" dy="1.875" font-size="30" fill="#604A0E"/><text text-anchor="middle" pointer-events="none" y="5" font-size="10px" fill="#604A0E" font-family="sans-serif"> Debian 9.0</text></g><g class="node" transform="translate(-273.0495840959534,-43.321770996689345)"><circle class="outline" cx="0" cy="0" r="32.5" fill="#00b200" stroke="#009900" stroke-width="2px"/><text text-anchor="middle" pointer-events="none" font-family="sans-serif" dy="2.03125" font-size="32.5" fill="#604A0E"/><text text-anchor="middle" pointer-events="none" y="5" font-size="10px" fill="#604A0E" font-family="sans-serif"> TCP</text></g><g class="node" transform="translate(73.74916069842793,-120.66582956908533)"><circle class="outline" cx="0" cy="0" r="35" fill="#00ff00" stroke="#00e500" stroke-width="2px"/><text text-anchor="middle" pointer-events="none" font-family="sans-serif" dy="2.1875" font-size="35" fill="#604A0E"/><text text-anchor="middle" pointer-events="none" y="5" font-size="10px" fill="#604A0E" font-family="sans-serif"> Uranus.exa…</text></g><g class="node" transform="translate(481.2794869928881,174.49888109161193)"><circle class="outline" cx="0" cy="0" r="37.5" fill="#00ff00" stroke="#00e500" stroke-width="2px"/><text text-anchor="middle" pointer-events="none" font-family="sans-serif" dy="2.34375" font-size="37.5" fill="#604A0E"/><text text-anchor="middle" pointer-events="none" y="5" font-size="10px" fill="#604A0E" font-family="sans-serif"> Rigel.example…</text></g><g class="node" transform="translate(-43.2254983715385,-43.21493006882469)"><circle class="outline" cx="0" cy="0" r="30" fill="#00cc00" stroke="#00b200" stroke-width="2px"/><text text-anchor="middle" pointer-events="none" font-family="sans-serif" dy="1.875" font-size="30" fill="#604A0E"/><text text-anchor="middle" pointer-events="none" font-family="sans-serif" dy="1.875" font-size="30" fill="#604A0E"/><text text-anchor="middle" pointer-events="none" font-family="sans-serif" dy="1.875" font-size="30" fill="#604A0E"/><text text-anchor="middle" pointer-events="none" y="-5" font-size="10px" fill="#604A0E" font-family="sans-serif"> Apache</text><text text-anchor="middle" pointer-events="none" y="5" font-size="10px" fill="#604A0E" font-family="sans-serif"> HTTP</text><text text-anchor="middle" pointer-events="none" y="15" font-size="10px" fill="#604A0E" font-family="sans-serif"> server</text></g><g class="node" transform="translate(-231.4073709839227,225.1492564924377)"><circle class="outline" cx="0" cy="0" r="32.5" fill="#00b200" stroke="#009900" stroke-width="2px"/><text text-anchor="middle" pointer-events="none" font-family="sans-serif" dy="2.03125" font-size="32.5" fill="#604A0E"/><text text-anchor="middle" pointer-events="none" y="5" font-size="10px" fill="#604A0E" font-family="sans-serif"> TCP</text></g><g class="node" transform="translate(148.61425362916017,-148.087499017948)"><circle class="outline" cx="0" cy="0" r="35" fill="#00ff00" stroke="#00e500" stroke-width="2px"/><text text-anchor="middle" pointer-events="none" font-family="sans-serif" dy="2.1875" font-size="35" fill="#604A0E"/><text text-anchor="middle" pointer-events="none" y="5" font-size="10px" fill="#604A0E" font-family="sans-serif"> Neptune.exa…</text></g><g class="node" transform="translate(223.19822008133255,-289.61926232923616)"><circle class="outline" cx="0" cy="0" r="37.5" fill="#00ff00" stroke="#00e500" stroke-width="2px"/><text text-anchor="middle" pointer-events="none" font-family="sans-serif" dy="2.34375" font-size="37.5" fill="#604A0E"/><text text-anchor="middle" pointer-events="none" y="5" font-size="10px" fill="#604A0E" font-family="sans-serif"> Hadar.exampl…</text></g><g class="node" transform="translate(325.6203547982906,-358.5830024179373)"><circle class="outline" cx="0" cy="0" r="30" fill="#00cc00" stroke="#00b200" stroke-width="2px"/><text text-anchor="middle" pointer-events="none" font-family="sans-serif" dy="1.875" font-size="30" fill="#604A0E"/><text text-anchor="middle" pointer-events="none" y="5" font-size="10px" fill="#604A0E" font-family="sans-serif"> Nmap</text></g><g class="node" transform="translate(-156.5299197283431,223.9753287031313)"><circle class="outline" cx="0" cy="0" r="32.5" fill="#00b200" stroke="#009900" stroke-width="2px"/><text text-anchor="middle" pointer-events="none" font-family="sans-serif" dy="2.03125" font-size="32.5" fill="#604A0E"/><text text-anchor="middle" pointer-events="none" y="5" font-size="10px" fill="#604A0E" font-family="sans-serif"> TCP</text></g><g class="node" transform="translate(487.1427993490332,92.17518823927446)"><circle class="outline" cx="0" cy="0" r="35" fill="#00ff00" stroke="#00e500" stroke-width="2px"/><text text-anchor="middle" pointer-events="none" font-family="sans-serif" dy="2.1875" font-size="35" fill="#604A0E"/><text text-anchor="middle" pointer-events="none" y="5" font-size="10px" fill="#604A0E" font-family="sans-serif"> Mercury,exa…</text></g><g class="node" transform="translate(185.7262879035911,-365.9109030006782)"><circle class="outline" cx="0" cy="0" r="37.5" fill="#00ff00" stroke="#00e500" stroke-width="2px"/><text text-anchor="middle" pointer-events="none" font-family="sans-serif" dy="2.34375" font-size="37.5" fill="#604A0E"/><text text-anchor="middle" pointer-events="none" y="5" font-size="10px" fill="#604A0E" font-family="sans-serif"> Izar.example.…</text></g><g class="node" transform="translate(-125.15629021332725,-398.9273763227626)"><circle class="outline" cx="0" cy="0" r="30" fill="#00cc00" stroke="#00b200" stroke-width="2px"/><text text-anchor="middle" pointer-events="none" font-family="sans-serif" dy="1.875" font-size="30" fill="#604A0E"/><text text-anchor="middle" pointer-events="none" y="5" font-size="10px" fill="#604A0E" font-family="sans-serif"> Wireshark</text></g><g class="node" transform="translate(-60.139395743304235,-216.74603535709858)"><circle class="outline" cx="0" cy="0" r="37.5" fill="#00ff00" stroke="#00e500" stroke-width="2px"/><text text-anchor="middle" pointer-events="none" font-family="sans-serif" dy="2.34375" font-size="37.5" fill="#604A0E"/><text text-anchor="middle" pointer-events="none" y="5" font-size="10px" fill="#604A0E" font-family="sans-serif"> Keio.example.…</text></g><g class="node" transform="translate(11.838608287776516,254.1741398993114)"><circle class="outline" cx="0" cy="0" r="30" fill="#00cc00" stroke="#00b200" stroke-width="2px"/><text text-anchor="middle" pointer-events="none" font-family="sans-serif" dy="1.875" font-size="30" fill="#604A0E"/><text text-anchor="middle" pointer-events="none" y="5" font-size="10px" fill="#604A0E" font-family="sans-serif"> XAMPP</text></g><g class="node" transform="translate(6.3425192499991025,-378.1478221588377)"><circle class="outline" cx="0" cy="0" r="37.5" fill="#00ff00" stroke="#00e500" stroke-width="2px"/><text text-anchor="middle" pointer-events="none" font-family="sans-serif" dy="2.34375" font-size="37.5" fill="#604A0E"/><text text-anchor="middle" pointer-events="none" y="5" font-size="10px" fill="#604A0E" font-family="sans-serif"> Ogma.exampl…</text></g><g class="node" transform="translate(222.19814473869704,145.3117107183469)"><circle class="outline" cx="0" cy="0" r="30" fill="#00cc00" stroke="#00b200" stroke-width="2px"/><text text-anchor="middle" pointer-events="none" font-family="sans-serif" dy="1.875" font-size="30" fill="#604A0E"/><text text-anchor="middle" pointer-events="none" y="5" font-size="10px" fill="#604A0E" font-family="sans-serif"> MAMP</text></g><g class="node" transform="translate(185.97029091316378,68.16258346047691)"><circle class="outline" cx="0" cy="0" r="30" fill="#00cc00" stroke="#00b200" stroke-width="2px"/><text text-anchor="middle" pointer-events="none" font-family="sans-serif" dy="1.875" font-size="30" fill="#604A0E"/><text text-anchor="middle" pointer-events="none" y="5" font-size="10px" fill="#604A0E" font-family="sans-serif"> AMAHI</text></g><g class="node" transform="translate(176.0138978937643,334.1154100229568)"><circle class="outline" cx="0" cy="0" r="30" fill="#00cc00" stroke="#00b200" stroke-width="2px"/><text text-anchor="middle" pointer-events="none" font-family="sans-serif" dy="1.875" font-size="30" fill="#604A0E"/><text text-anchor="middle" pointer-events="none" y="5" font-size="10px" fill="#604A0E" font-family="sans-serif"> Filezilla</text></g><g class="node" transform="translate(-131.27739551841933,-22.20923271029425)"><circle class="outline" cx="0" cy="0" r="30" fill="#00cc00" stroke="#00b200" stroke-width="2px"/><text text-anchor="middle" pointer-events="none" font-family="sans-serif" dy="1.875" font-size="30" fill="#604A0E"/><text text-anchor="middle" pointer-events="none" y="5" font-size="10px" fill="#604A0E" font-family="sans-serif"> Postfix</text></g><g class="node" transform="translate(239.7544181271624,363.0378995404918)"><circle class="outline" cx="0" cy="0" r="30" fill="#00cc00" stroke="#00b200" stroke-width="2px"/><text text-anchor="middle" pointer-events="none" font-family="sans-serif" dy="1.875" font-size="30" fill="#604A0E"/><text text-anchor="middle" pointer-events="none" y="5" font-size="10px" fill="#604A0E" font-family="sans-serif"> PHP</text></g><g class="node" transform="translate(145.26304294105387,210.90368374084463)"><circle class="outline" cx="0" cy="0" r="30" fill="#00cc00" stroke="#00b200" stroke-width="2px"/><text text-anchor="middle" pointer-events="none" font-family="sans-serif" dy="1.875" font-size="30" fill="#604A0E"/><text text-anchor="middle" pointer-events="none" y="5" font-size="10px" fill="#604A0E" font-family="sans-serif"> PERL</text></g><g class="node" transform="translate(-83.97862599099194,439.5669189113693)"><circle class="outline" cx="0" cy="0" r="30" fill="#00cc00" stroke="#00b200" stroke-width="2px"/><text text-anchor="middle" pointer-events="none" font-family="sans-serif" dy="1.875" font-size="30" fill="#604A0E"/><text text-anchor="middle" pointer-events="none" y="5" font-size="10px" fill="#604A0E" font-family="sans-serif"> OpenSSL</text></g><g class="node" transform="translate(-112.84509859988154,336.20878269243246)"><circle class="outline" cx="0" cy="0" r="30" fill="#00cc00" stroke="#00b200" stroke-width="2px"/><text text-anchor="middle" pointer-events="none" font-family="sans-serif" dy="1.875" font-size="30" fill="#604A0E"/><text text-anchor="middle" pointer-events="none" y="5" font-size="10px" fill="#604A0E" font-family="sans-serif"> MariaDB</text></g><g class="node" transform="translate(-119.63060776294752,105.20599148721094)"><circle class="outline" cx="0" cy="0" r="30" fill="#00cc00" stroke="#00b200" stroke-width="2px"/><text text-anchor="middle" pointer-events="none" font-family="sans-serif" dy="1.875" font-size="30" fill="#604A0E"/><text text-anchor="middle" pointer-events="none" y="5" font-size="10px" fill="#604A0E" font-family="sans-serif"> PostgreSQL</text></g><g class="node" transform="translate(182.88435509375358,-42.66531834281127)"><circle class="outline" cx="0" cy="0" r="30" fill="#00cc00" stroke="#00b200" stroke-width="2px"/><text text-anchor="middle" pointer-events="none" font-family="sans-serif" dy="1.875" font-size="30" fill="#604A0E"/><text text-anchor="middle" pointer-events="none" y="5" font-size="10px" fill="#604A0E" font-family="sans-serif"> tar</text></g></g></svg>