<svg xmlns="http://www.w3.org/2000/svg" width="1153.1197509765625" height="1070.909423828125" viewBox="-457.40411376953125 -477.05340576171875 1153.1197509765625 1070.909423828125"><title>Neo4j Graph Visualization</title><desc>Created using Neo4j (http://www.neo4j.com/)</desc><g class="layer relationships"><g class="relationship" transform="translate(305.5965668617398 554.8559311129454) rotate(248.08012963981696)"><path class="outline" fill="#A5ABB6" stroke="none" d="M 35 0.5 L 46.829577662165406 0.5 L 46.829577662165406 -0.5 L 35 -0.5 Z M 87.5209839121654 0.5 L 99.35056157433081 0.5 L 99.35056157433081 3.5 L 106.35056157433081 0 L 99.35056157433081 -3.5 L 99.35056157433081 -0.5 L 87.5209839121654 -0.5 Z"/><text text-anchor="middle" pointer-events="none" font-size="8px" fill="#000000" x="67.1752807871654" y="3" transform="rotate(180 67.1752807871654 0)" font-family="sans-serif">hostedOn</text></g><g class="relationship" transform="translate(251.8957803621728 421.40478052001026) rotate(303.14889876598727)"><path class="outline" fill="#A5ABB6" stroke="none" d="M 37.5 0.5 L 45.356680901480416 0.5 L 45.356680901480416 -0.5 L 37.5 -0.5 Z M 97.16527465148042 0.5 L 105.02195555296083 0.5 L 105.02195555296083 3.5 L 112.02195555296083 0 L 105.02195555296083 -3.5 L 105.02195555296083 -0.5 L 97.16527465148042 -0.5 Z"/><text text-anchor="middle" pointer-events="none" font-size="8px" fill="#000000" x="71.26097777648042" y="3" font-family="sans-serif">hasAssigned</text></g><g class="relationship" transform="translate(251.8957803621728 421.40478052001026) rotate(270.09447497736556)"><path class="outline" fill="#A5ABB6" stroke="none" d="M 37.5 0.5 L 49.129736081716416 0.5 L 49.129736081716416 -0.5 L 37.5 -0.5 Z M 92.04770483171642 0.5 L 103.67744091343283 0.5 L 103.67744091343283 3.5 L 110.67744091343283 0 L 103.67744091343283 -3.5 L 103.67744091343283 -0.5 L 92.04770483171642 -0.5 Z"/><text text-anchor="middle" pointer-events="none" font-size="8px" fill="#000000" x="70.58872045671642" y="3" font-family="sans-serif">connected</text></g><g class="relationship" transform="translate(202.57366976055366 554.3742567786172) rotate(290.3512308300783)"><path class="outline" fill="#A5ABB6" stroke="none" d="M 35 0.5 L 45.81542472297353 0.5 L 45.81542472297353 -0.5 L 35 -0.5 Z M 86.50683097297353 0.5 L 97.32225569594706 0.5 L 97.32225569594706 3.5 L 104.32225569594706 0 L 97.32225569594706 -3.5 L 97.32225569594706 -0.5 L 86.50683097297353 -0.5 Z"/><text text-anchor="middle" pointer-events="none" font-size="8px" fill="#000000" x="66.16112784797353" y="3" font-family="sans-serif">hostedOn</text></g><g class="relationship" transform="translate(368.4871790506928 374.9485047356622) rotate(278.40499124629775)"><path class="outline" fill="#A5ABB6" stroke="none" d="M 37.5 0.5 L 45.88756908666049 0.5 L 45.88756908666049 -0.5 L 37.5 -0.5 Z M 97.69616283666049 0.5 L 106.08373192332098 0.5 L 106.08373192332098 3.5 L 113.08373192332098 0 L 106.08373192332098 -3.5 L 106.08373192332098 -0.5 L 97.69616283666049 -0.5 Z"/><text text-anchor="middle" pointer-events="none" font-size="8px" fill="#000000" x="71.79186596166049" y="3" font-family="sans-serif">hasAssigned</text></g><g class="relationship" transform="translate(368.4871790506928 374.9485047356622) rotate(220.45659573684145)"><path class="outline" fill="#A5ABB6" stroke="none" d="M 37.5 0.5 L 52.74753928209047 0.5 L 52.74753928209047 -0.5 L 37.5 -0.5 Z M 95.66550803209047 0.5 L 110.91304731418094 0.5 L 110.91304731418094 3.5 L 117.91304731418094 0 L 110.91304731418094 -3.5 L 110.91304731418094 -0.5 L 95.66550803209047 -0.5 Z"/><text text-anchor="middle" pointer-events="none" font-size="8px" fill="#000000" x="74.20652365709047" y="3" transform="rotate(180 74.20652365709047 0)" font-family="sans-serif">connected</text></g><g class="relationship" transform="translate(469.99620627037865 480.8376263808783) rotate(226.20986433275255)"><path class="outline" fill="#A5ABB6" stroke="none" d="M 35 0.5 L 48.246966396026934 0.5 L 48.246966396026934 -0.5 L 35 -0.5 Z M 88.93837264602693 0.5 L 102.18533904205387 0.5 L 102.18533904205387 3.5 L 109.18533904205387 0 L 102.18533904205387 -3.5 L 102.18533904205387 -0.5 L 88.93837264602693 -0.5 Z"/><text text-anchor="middle" pointer-events="none" font-size="8px" fill="#000000" x="68.59266952102693" y="3" transform="rotate(180 68.59266952102693 0)" font-family="sans-serif">hostedOn</text></g><g class="relationship" transform="translate(525.7550214764243 -43.193144401219946) rotate(501.3194734686643)"><path class="outline" fill="#A5ABB6" stroke="none" d="M 37.5 0.5 L 48.14834181185775 0.5 L 48.14834181185775 -0.5 L 37.5 -0.5 Z M 99.95693556185775 0.5 L 110.6052773737155 0.5 L 110.6052773737155 3.5 L 117.6052773737155 0 L 110.6052773737155 -3.5 L 110.6052773737155 -0.5 L 99.95693556185775 -0.5 Z"/><text text-anchor="middle" pointer-events="none" font-size="8px" fill="#000000" x="74.05263868685775" y="3" transform="rotate(180 74.05263868685775 0)" font-family="sans-serif">hasAssigned</text></g><g class="relationship" transform="translate(656.7156139928392 -39.41125647461278) rotate(181.6541312782589)"><path class="outline" fill="#A5ABB6" stroke="none" d="M 35 0.5 L 40.411890840394335 0.5 L 40.411890840394335 -0.5 L 35 -0.5 Z M 81.10329709039434 0.5 L 86.51518793078867 0.5 L 86.51518793078867 3.5 L 93.51518793078867 0 L 86.51518793078867 -3.5 L 86.51518793078867 -0.5 L 81.10329709039434 -0.5 Z"/><text text-anchor="middle" pointer-events="none" font-size="8px" fill="#000000" x="60.757593965394335" y="3" transform="rotate(180 60.757593965394335 0)" font-family="sans-serif">hostedOn</text></g><g class="relationship" transform="translate(214.41600040792218 -162.7873978927097) rotate(211.58189947024266)"><path class="outline" fill="#A5ABB6" stroke="none" d="M 37.5 0.5 L 38.896390425796106 0.5 L 38.896390425796106 -0.5 L 37.5 -0.5 Z M 75.13076542579611 0.5 L 76.52715585159221 0.5 L 76.52715585159221 3.5 L 83.52715585159221 0 L 76.52715585159221 -3.5 L 76.52715585159221 -0.5 L 75.13076542579611 -0.5 Z"/><text text-anchor="middle" pointer-events="none" font-size="8px" fill="#000000" x="57.013577925796106" y="3" transform="rotate(180 57.013577925796106 0)" font-family="sans-serif">hasAs…</text></g><g class="relationship" transform="translate(214.41600040792218 -162.7873978927097) rotate(517.2829874073523)"><path class="outline" fill="#A5ABB6" stroke="none" d="M 37.5 0.5 L 54.41178707076132 0.5 L 54.41178707076132 -0.5 L 37.5 -0.5 Z M 97.32975582076132 0.5 L 114.24154289152264 0.5 L 114.24154289152264 3.5 L 121.24154289152264 0 L 114.24154289152264 -3.5 L 114.24154289152264 -0.5 L 97.32975582076132 -0.5 Z"/><text text-anchor="middle" pointer-events="none" font-size="8px" fill="#000000" x="75.87077144576132" y="3" transform="rotate(180 75.87077144576132 0)" font-family="sans-serif">connected</text></g><g class="relationship" transform="translate(573.8510909971384 -169.6458262243149) rotate(470.824229813822)"><path class="outline" fill="#A5ABB6" stroke="none" d="M 35 0.5 L 42.549534408019 0.5 L 42.549534408019 -0.5 L 35 -0.5 Z M 83.240940658019 0.5 L 90.790475066038 0.5 L 90.790475066038 3.5 L 97.790475066038 0 L 90.790475066038 -3.5 L 90.790475066038 -0.5 L 83.240940658019 -0.5 Z"/><text text-anchor="middle" pointer-events="none" font-size="8px" fill="#000000" x="62.895237533019" y="3" transform="rotate(180 62.895237533019 0)" font-family="sans-serif">hostedOn</text></g><g class="relationship" transform="translate(-40.9245470393385 -212.02261391080287) rotate(510.81715022235494)"><path class="outline" fill="#A5ABB6" stroke="none" d="M 37.5 0.5 L 40.12762185067761 0.5 L 40.12762185067761 -0.5 L 37.5 -0.5 Z M 91.93621560067761 0.5 L 94.56383745135523 0.5 L 94.56383745135523 3.5 L 101.56383745135523 0 L 94.56383745135523 -3.5 L 94.56383745135523 -0.5 L 91.93621560067761 -0.5 Z"/><text text-anchor="middle" pointer-events="none" font-size="8px" fill="#000000" x="66.03191872567761" y="3" transform="rotate(180 66.03191872567761 0)" font-family="sans-serif">hasAssigned</text></g><g class="relationship" transform="translate(-40.9245470393385 -212.02261391080287) rotate(404.5725801643826)"><path class="outline" fill="#A5ABB6" stroke="none" d="M 37.5 0.5 L 54.35503622933757 0.5 L 54.35503622933757 -0.5 L 37.5 -0.5 Z M 97.27300497933757 0.5 L 114.12804120867514 0.5 L 114.12804120867514 3.5 L 121.12804120867514 0 L 114.12804120867514 -3.5 L 114.12804120867514 -0.5 L 97.27300497933757 -0.5 Z"/><text text-anchor="middle" pointer-events="none" font-size="8px" fill="#000000" x="75.81402060433757" y="3" font-family="sans-serif">connected</text></g><g class="relationship" transform="translate(333.50097349830935 -247.40650473359256) rotate(504.6032540086884)"><path class="outline" fill="#A5ABB6" stroke="none" d="M 35 0.5 L 47.948160509269414 0.5 L 47.948160509269414 -0.5 L 35 -0.5 Z M 88.63956675926941 0.5 L 101.58772726853883 0.5 L 101.58772726853883 3.5 L 108.58772726853883 0 L 101.58772726853883 -3.5 L 101.58772726853883 -0.5 L 88.63956675926941 -0.5 Z"/><text text-anchor="middle" pointer-events="none" font-size="8px" fill="#000000" x="68.29386363426941" y="3" transform="rotate(180 68.29386363426941 0)" font-family="sans-serif">hostedOn</text></g><g class="relationship" transform="translate(99.22633757000895 -421.8811813047648) rotate(484.52403340186265)"><path class="outline" fill="#A5ABB6" stroke="none" d="M 37.5 0.5 L 44.7077435378109 0.5 L 44.7077435378109 -0.5 L 37.5 -0.5 Z M 96.5163372878109 0.5 L 103.7240808256218 0.5 L 103.7240808256218 3.5 L 110.7240808256218 0 L 103.7240808256218 -3.5 L 103.7240808256218 -0.5 L 96.5163372878109 -0.5 Z"/><text text-anchor="middle" pointer-events="none" font-size="8px" fill="#000000" x="70.6120404128109" y="3" transform="rotate(180 70.6120404128109 0)" font-family="sans-serif">hasAssigned</text></g><g class="relationship" transform="translate(-292.2955267991404 -273.95304997631143) rotate(369.98090078369654)"><path class="outline" fill="#A5ABB6" stroke="none" d="M 37.5 0.5 L 44.232448498085134 0.5 L 44.232448498085134 -0.5 L 37.5 -0.5 Z M 96.04104224808513 0.5 L 102.77349074617027 0.5 L 102.77349074617027 3.5 L 109.77349074617027 0 L 102.77349074617027 -3.5 L 102.77349074617027 -0.5 L 96.04104224808513 -0.5 Z"/><text text-anchor="middle" pointer-events="none" font-size="8px" fill="#000000" x="70.13674537308513" y="3" font-family="sans-serif">hasAssigned</text></g><g class="relationship" transform="translate(-136.17014469060973 549.4007411923569) rotate(272.34137776622487)"><path class="outline" fill="#A5ABB6" stroke="none" d="M 37.5 0.5 L 41.17214267467361 0.5 L 41.17214267467361 -0.5 L 37.5 -0.5 Z M 92.98073642467361 0.5 L 96.65287909934722 0.5 L 96.65287909934722 3.5 L 103.65287909934722 0 L 96.65287909934722 -3.5 L 96.65287909934722 -0.5 L 92.98073642467361 -0.5 Z"/><text text-anchor="middle" pointer-events="none" font-size="8px" fill="#000000" x="67.07643954967361" y="3" font-family="sans-serif">hasAssigned</text></g><g class="relationship" transform="translate(-136.17014469060973 549.4007411923569) rotate(334.45965660236266)"><path class="outline" fill="#A5ABB6" stroke="none" d="M 37.5 0.5 L 51.52938238157145 0.5 L 51.52938238157145 -0.5 L 37.5 -0.5 Z M 94.44735113157145 0.5 L 108.4767335131429 0.5 L 108.4767335131429 3.5 L 115.4767335131429 0 L 108.4767335131429 -3.5 L 108.4767335131429 -0.5 L 94.44735113157145 -0.5 Z"/><text text-anchor="middle" pointer-events="none" font-size="8px" fill="#000000" x="72.98836675657145" y="3" font-family="sans-serif">connected</text></g><g class="relationship" transform="translate(252.13598770053795 275.72753764549225) rotate(294.9462666584776)"><path class="outline" fill="#A5ABB6" stroke="none" d="M 35 0.5 L 60.424960321784596 0.5 L 60.424960321784596 -0.5 L 35 -0.5 Z M 112.2335540717846 0.5 L 137.6585143935692 0.5 L 137.6585143935692 3.5 L 144.6585143935692 0 L 137.6585143935692 -3.5 L 137.6585143935692 -0.5 L 112.2335540717846 -0.5 Z"/><text text-anchor="middle" pointer-events="none" font-size="8px" fill="#000000" x="86.3292571967846" y="3" font-family="sans-serif">hasAssigned</text></g><g class="relationship" transform="translate(335.0239257096994 294.12404190953987) rotate(382.66772004446807)"><path class="outline" fill="#A5ABB6" stroke="none" d="M 40 0.5 L 47.37565829988186 0.5 L 47.37565829988186 -0.5 L 40 -0.5 Z M 91.61393954988186 0.5 L 98.98959784976373 0.5 L 98.98959784976373 3.5 L 105.98959784976373 0 L 98.98959784976373 -3.5 L 98.98959784976373 -0.5 L 91.61393954988186 -0.5 Z"/><text text-anchor="middle" pointer-events="none" font-size="8px" fill="#000000" x="69.49479892488186" y="3" font-family="sans-serif">resolvesTo</text></g><g class="relationship" transform="translate(335.0239257096994 294.12404190953987) rotate(351.8715872736336)"><path class="outline" fill="#A5ABB6" stroke="none" d="M 40 0.5 L 54.63607391524705 0.5 L 54.63607391524705 -0.5 L 40 -0.5 Z M 98.87435516524705 0.5 L 113.5104290804941 0.5 L 113.5104290804941 3.5 L 120.5104290804941 0 L 113.5104290804941 -3.5 L 113.5104290804941 -0.5 L 98.87435516524705 -0.5 Z"/><text text-anchor="middle" pointer-events="none" font-size="8px" fill="#000000" x="76.75521454024705" y="3" font-family="sans-serif">resolvesTo</text></g><g class="relationship" transform="translate(335.0239257096994 294.12404190953987) rotate(234.8608019902199)"><path class="outline" fill="#A5ABB6" stroke="none" d="M 40 0.5 L 66.08871216906306 0.5 L 66.08871216906306 -0.5 L 40 -0.5 Z M 94.31918091906306 0.5 L 120.40789308812612 0.5 L 120.40789308812612 3.5 L 127.40789308812612 0 L 120.40789308812612 -3.5 L 120.40789308812612 -0.5 L 94.31918091906306 -0.5 Z"/><text text-anchor="middle" pointer-events="none" font-size="8px" fill="#000000" x="80.20394654406306" y="3" transform="rotate(180 80.20394654406306 0)" font-family="sans-serif">partOf</text></g><g class="relationship" transform="translate(235.79200400859236 153.13642786280144) rotate(197.83675395578166)"><path class="outline" fill="#A5ABB6" stroke="none" d="M 45 0.5 L 89.8266291300079 0.5 L 89.8266291300079 -0.5 L 45 -0.5 Z M 118.0570978800079 0.5 L 162.8837270100158 0.5 L 162.8837270100158 3.5 L 169.8837270100158 0 L 162.8837270100158 -3.5 L 162.8837270100158 -0.5 L 118.0570978800079 -0.5 Z"/><text text-anchor="middle" pointer-events="none" font-size="8px" fill="#000000" x="103.9418635050079" y="3" transform="rotate(180 103.9418635050079 0)" font-family="sans-serif">partOf</text></g><g class="relationship" transform="translate(70.29513529527227 -102.45004657277785) rotate(512.9979648106919)"><path class="outline" fill="#A5ABB6" stroke="none" d="M 35 0.5 L 54.15192880976112 0.5 L 54.15192880976112 -0.5 L 35 -0.5 Z M 105.96052255976112 0.5 L 125.11245136952223 0.5 L 125.11245136952223 3.5 L 132.11245136952223 0 L 125.11245136952223 -3.5 L 125.11245136952223 -0.5 L 105.96052255976112 -0.5 Z"/><text text-anchor="middle" pointer-events="none" font-size="8px" fill="#000000" x="80.05622568476112" y="3" transform="rotate(180 80.05622568476112 0)" font-family="sans-serif">hasAssigned</text></g><g class="relationship" transform="translate(390.86330677549444 223.50895280944127) rotate(419.2765027413133)"><path class="outline" fill="#A5ABB6" stroke="none" d="M 40 0.5 L 49.55670533787624 0.5 L 49.55670533787624 -0.5 L 40 -0.5 Z M 93.79498658787624 0.5 L 103.35169192575248 0.5 L 103.35169192575248 3.5 L 110.35169192575248 0 L 103.35169192575248 -3.5 L 103.35169192575248 -0.5 L 93.79498658787624 -0.5 Z"/><text text-anchor="middle" pointer-events="none" font-size="8px" fill="#000000" x="71.67584596287624" y="3" font-family="sans-serif">resolvesTo</text></g><g class="relationship" transform="translate(390.86330677549444 223.50895280944127) rotate(343.566874233284)"><path class="outline" fill="#A5ABB6" stroke="none" d="M 40 0.5 L 53.42778608218104 0.5 L 53.42778608218104 -0.5 L 40 -0.5 Z M 97.66606733218104 0.5 L 111.09385341436209 0.5 L 111.09385341436209 3.5 L 118.09385341436209 0 L 111.09385341436209 -3.5 L 111.09385341436209 -0.5 L 97.66606733218104 -0.5 Z"/><text text-anchor="middle" pointer-events="none" font-size="8px" fill="#000000" x="75.54692670718104" y="3" font-family="sans-serif">resolvesTo</text></g><g class="relationship" transform="translate(390.86330677549444 223.50895280944127) rotate(204.40890481852705)"><path class="outline" fill="#A5ABB6" stroke="none" d="M 40 0.5 L 65.03081839491655 0.5 L 65.03081839491655 -0.5 L 40 -0.5 Z M 93.26128714491655 0.5 L 118.2921055398331 0.5 L 118.2921055398331 3.5 L 125.2921055398331 0 L 118.2921055398331 -3.5 L 118.2921055398331 -0.5 L 93.26128714491655 -0.5 Z"/><text text-anchor="middle" pointer-events="none" font-size="8px" fill="#000000" x="79.14605276991655" y="3" transform="rotate(180 79.14605276991655 0)" font-family="sans-serif">partOf</text></g><g class="relationship" transform="translate(-17.398279713902014 -122.66628637089596) rotate(436.9593191985349)"><path class="outline" fill="#A5ABB6" stroke="none" d="M 45 0.5 L 90.15542858011403 0.5 L 90.15542858011403 -0.5 L 45 -0.5 Z M 118.38589733011403 0.5 L 163.54132591022807 0.5 L 163.54132591022807 3.5 L 170.54132591022807 0 L 163.54132591022807 -3.5 L 163.54132591022807 -0.5 L 118.38589733011403 -0.5 Z"/><text text-anchor="middle" pointer-events="none" font-size="8px" fill="#000000" x="104.27066295511403" y="3" font-family="sans-serif">partOf</text></g><g class="relationship" transform="translate(-0.39770761526555565 484.5232207449236) rotate(258.94934511032255)"><path class="outline" fill="#A5ABB6" stroke="none" d="M 35 0.5 L 37.02327258568161 0.5 L 37.02327258568161 -0.5 L 35 -0.5 Z M 88.83186633568161 0.5 L 90.85513892136322 0.5 L 90.85513892136322 3.5 L 97.85513892136322 0 L 90.85513892136322 -3.5 L 90.85513892136322 -0.5 L 88.83186633568161 -0.5 Z"/><text text-anchor="middle" pointer-events="none" font-size="8px" fill="#000000" x="62.92756946068161" y="3" transform="rotate(180 62.92756946068161 0)" font-family="sans-serif">hasAssigned</text></g><g class="relationship" transform="translate(402.721585842339 55.306587436583456) rotate(246.36878128820058)"><path class="outline" fill="#A5ABB6" stroke="none" d="M 40 0.5 L 41.481620154577264 0.5 L 41.481620154577264 -0.5 L 40 -0.5 Z M 66.59490140457726 0.5 L 68.07652155915453 0.5 L 68.07652155915453 3.5 L 75.07652155915453 0 L 68.07652155915453 -3.5 L 68.07652155915453 -0.5 L 66.59490140457726 -0.5 Z"/><text text-anchor="middle" pointer-events="none" font-size="8px" fill="#000000" x="54.038260779577264" y="3" transform="rotate(180 54.038260779577264 0)" font-family="sans-serif">res…</text></g><g class="relationship" transform="translate(402.721585842339 55.306587436583456) rotate(509.62737095846427)"><path class="outline" fill="#A5ABB6" stroke="none" d="M 40 0.5 L 76.62690092421798 0.5 L 76.62690092421798 -0.5 L 40 -0.5 Z M 104.85736967421798 0.5 L 141.48427059843596 0.5 L 141.48427059843596 3.5 L 148.48427059843596 0 L 141.48427059843596 -3.5 L 141.48427059843596 -0.5 L 104.85736967421798 -0.5 Z"/><text text-anchor="middle" pointer-events="none" font-size="8px" fill="#000000" x="90.74213529921798" y="3" transform="rotate(180 90.74213529921798 0)" font-family="sans-serif">partOf</text></g><g class="relationship" transform="translate(-127.06891555973175 236.65769915537822) rotate(316.66906940132253)"><path class="outline" fill="#A5ABB6" stroke="none" d="M 45 0.5 L 91.20072706600521 0.5 L 91.20072706600521 -0.5 L 45 -0.5 Z M 119.43119581600521 0.5 L 165.63192288201043 0.5 L 165.63192288201043 3.5 L 172.63192288201043 0 L 165.63192288201043 -3.5 L 165.63192288201043 -0.5 L 119.43119581600521 -0.5 Z"/><text text-anchor="middle" pointer-events="none" font-size="8px" fill="#000000" x="105.31596144100521" y="3" font-family="sans-serif">partOf</text></g><g class="relationship" transform="translate(-404.4574481617361 119.68023628569534) rotate(391.0656670418655)"><path class="outline" fill="#A5ABB6" stroke="none" d="M 35 0.5 L 39.761678650604594 0.5 L 39.761678650604594 -0.5 L 35 -0.5 Z M 91.5702724006046 0.5 L 96.33195105120919 0.5 L 96.33195105120919 3.5 L 103.33195105120919 0 L 96.33195105120919 -3.5 L 96.33195105120919 -0.5 L 91.5702724006046 -0.5 Z"/><text text-anchor="middle" pointer-events="none" font-size="8px" fill="#000000" x="65.6659755256046" y="3" font-family="sans-serif">hasAssigned</text></g><g class="relationship" transform="translate(330.0190619863625 108.296973894937) rotate(280.52399819456423)"><path class="outline" fill="#A5ABB6" stroke="none" d="M 40 0.5 L 55.1150673887293 0.5 L 55.1150673887293 -0.5 L 40 -0.5 Z M 99.3533486387293 0.5 L 114.4684160274586 0.5 L 114.4684160274586 3.5 L 121.4684160274586 0 L 114.4684160274586 -3.5 L 114.4684160274586 -0.5 L 99.3533486387293 -0.5 Z"/><text text-anchor="middle" pointer-events="none" font-size="8px" fill="#000000" x="77.2342080137293" y="3" font-family="sans-serif">resolvesTo</text></g><g class="relationship" transform="translate(330.0190619863625 108.296973894937) rotate(514.551811132749)"><path class="outline" fill="#A5ABB6" stroke="none" d="M 40 0.5 L 46.17594054562478 0.5 L 46.17594054562478 -0.5 L 40 -0.5 Z M 46.17594054562478 0.5 L 52.35188109124957 0.5 L 52.35188109124957 3.5 L 59.35188109124957 0 L 52.35188109124957 -3.5 L 52.35188109124957 -0.5 L 46.17594054562478 -0.5 Z"/><text text-anchor="middle" pointer-events="none" font-size="8px" fill="#000000" x="46.17594054562478" y="3" transform="rotate(180 46.17594054562478 0)" font-family="sans-serif"/></g><g class="relationship" transform="translate(-375.98817249935524 402.8858077221659) rotate(329.41078134813546)"><path class="outline" fill="#A5ABB6" stroke="none" d="M 35 0.5 L 38.107705442620784 0.5 L 38.107705442620784 -0.5 L 35 -0.5 Z M 89.91629919262078 0.5 L 93.02400463524157 0.5 L 93.02400463524157 3.5 L 100.02400463524157 0 L 93.02400463524157 -3.5 L 93.02400463524157 -0.5 L 89.91629919262078 -0.5 Z"/><text text-anchor="middle" pointer-events="none" font-size="8px" fill="#000000" x="64.01200231762078" y="3" font-family="sans-serif">hasAssigned</text></g><g class="relationship" transform="translate(109.18415192788024 -227.48064559490072) rotate(316.3395708162463)"><path class="outline" fill="#A5ABB6" stroke="none" d="M 40 0.5 L 52.022324849516025 0.5 L 52.022324849516025 -0.5 L 40 -0.5 Z M 96.26060609951602 0.5 L 108.28293094903205 0.5 L 108.28293094903205 3.5 L 115.28293094903205 0 L 108.28293094903205 -3.5 L 108.28293094903205 -0.5 L 96.26060609951602 -0.5 Z"/><text text-anchor="middle" pointer-events="none" font-size="8px" fill="#000000" x="74.14146547451602" y="3" font-family="sans-serif">resolvesTo</text></g><g class="relationship" transform="translate(109.18415192788024 -227.48064559490072) rotate(500.37414085604485)"><path class="outline" fill="#A5ABB6" stroke="none" d="M 40 0.5 L 62.05708745523245 0.5 L 62.05708745523245 -0.5 L 40 -0.5 Z M 90.28755620523245 0.5 L 112.3446436604649 0.5 L 112.3446436604649 3.5 L 119.3446436604649 0 L 112.3446436604649 -3.5 L 112.3446436604649 -0.5 L 90.28755620523245 -0.5 Z"/><text text-anchor="middle" pointer-events="none" font-size="8px" fill="#000000" x="76.17232183023245" y="3" transform="rotate(180 76.17232183023245 0)" font-family="sans-serif">partOf</text></g><g class="relationship" transform="translate(-164.51941312199244 -142.99632071781323) rotate(472.2296221930675)"><path class="outline" fill="#A5ABB6" stroke="none" d="M 40 0.5 L 51.716205369359386 0.5 L 51.716205369359386 -0.5 L 40 -0.5 Z M 95.95448661935939 0.5 L 107.67069198871877 0.5 L 107.67069198871877 3.5 L 114.67069198871877 0 L 107.67069198871877 -3.5 L 107.67069198871877 -0.5 L 95.95448661935939 -0.5 Z"/><text text-anchor="middle" pointer-events="none" font-size="8px" fill="#000000" x="73.83534599435939" y="3" transform="rotate(180 73.83534599435939 0)" font-family="sans-serif">resolvesTo</text></g><g class="relationship" transform="translate(-164.51941312199244 -142.99632071781323) rotate(367.8676307125947)"><path class="outline" fill="#A5ABB6" stroke="none" d="M 40 0.5 L 54.14434108808081 0.5 L 54.14434108808081 -0.5 L 40 -0.5 Z M 82.37480983808081 0.5 L 96.51915092616161 0.5 L 96.51915092616161 3.5 L 103.51915092616161 0 L 96.51915092616161 -3.5 L 96.51915092616161 -0.5 L 82.37480983808081 -0.5 Z"/><text text-anchor="middle" pointer-events="none" font-size="8px" fill="#000000" x="68.25957546308081" y="3" font-family="sans-serif">partOf</text></g><g class="relationship" transform="translate(13.80318189834101 -297.7013398818408) rotate(257.9327467528405)"><path class="outline" fill="#A5ABB6" stroke="none" d="M 40 0.5 L 48.6426251224116 0.5 L 48.6426251224116 -0.5 L 40 -0.5 Z M 92.8809063724116 0.5 L 101.5235314948232 0.5 L 101.5235314948232 3.5 L 108.5235314948232 0 L 101.5235314948232 -3.5 L 101.5235314948232 -0.5 L 92.8809063724116 -0.5 Z"/><text text-anchor="middle" pointer-events="none" font-size="8px" fill="#000000" x="70.7617657474116" y="3" transform="rotate(180 70.7617657474116 0)" font-family="sans-serif">resolvesTo</text></g><g class="relationship" transform="translate(13.80318189834101 -297.7013398818408) rotate(460.1072875271746)"><path class="outline" fill="#A5ABB6" stroke="none" d="M 40 0.5 L 68.78189882444518 0.5 L 68.78189882444518 -0.5 L 40 -0.5 Z M 97.01236757444518 0.5 L 125.79426639889036 0.5 L 125.79426639889036 3.5 L 132.79426639889036 0 L 125.79426639889036 -3.5 L 125.79426639889036 -0.5 L 97.01236757444518 -0.5 Z"/><text text-anchor="middle" pointer-events="none" font-size="8px" fill="#000000" x="82.89713319944518" y="3" transform="rotate(180 82.89713319944518 0)" font-family="sans-serif">partOf</text></g><g class="relationship" transform="translate(-144.78877053087888 -247.99432532526518) rotate(238.49935988938114)"><path class="outline" fill="#A5ABB6" stroke="none" d="M 40 0.5 L 48.21045590281054 0.5 L 48.21045590281054 -0.5 L 40 -0.5 Z M 92.44873715281054 0.5 L 100.65919305562107 0.5 L 100.65919305562107 3.5 L 107.65919305562107 0 L 100.65919305562107 -3.5 L 100.65919305562107 -0.5 L 92.44873715281054 -0.5 Z"/><text text-anchor="middle" pointer-events="none" font-size="8px" fill="#000000" x="70.32959652781054" y="3" transform="rotate(180 70.32959652781054 0)" font-family="sans-serif">resolvesTo</text></g><g class="relationship" transform="translate(-144.78877053087888 -247.99432532526518) rotate(404.5324159098956)"><path class="outline" fill="#A5ABB6" stroke="none" d="M 40 0.5 L 69.23723411179974 0.5 L 69.23723411179974 -0.5 L 40 -0.5 Z M 97.46770286179974 0.5 L 126.70493697359947 0.5 L 126.70493697359947 3.5 L 133.70493697359947 0 L 126.70493697359947 -3.5 L 126.70493697359947 -0.5 L 97.46770286179974 -0.5 Z"/><text text-anchor="middle" pointer-events="none" font-size="8px" fill="#000000" x="83.35246848679974" y="3" font-family="sans-serif">partOf</text></g><g class="relationship" transform="translate(-83.05540617225915 -24.307181587924088) rotate(199.41812955980595)"><path class="outline" fill="#A5ABB6" stroke="none" d="M 40 0.5 L 62.178885673107715 0.5 L 62.178885673107715 -0.5 L 40 -0.5 Z M 106.41716692310771 0.5 L 128.59605259621543 0.5 L 128.59605259621543 3.5 L 135.59605259621543 0 L 128.59605259621543 -3.5 L 128.59605259621543 -0.5 L 106.41716692310771 -0.5 Z"/><text text-anchor="middle" pointer-events="none" font-size="8px" fill="#000000" x="84.29802629810771" y="3" transform="rotate(180 84.29802629810771 0)" font-family="sans-serif">resolvesTo</text></g><g class="relationship" transform="translate(-83.05540617225915 -24.307181587924088) rotate(303.7240868663518)"><path class="outline" fill="#A5ABB6" stroke="none" d="M 40 0.5 L 40.34863193053564 0.5 L 40.34863193053564 -0.5 L 40 -0.5 Z M 65.91113193053565 0.5 L 66.25976386107128 0.5 L 66.25976386107128 3.5 L 73.25976386107128 0 L 66.25976386107128 -3.5 L 66.25976386107128 -0.5 L 65.91113193053565 -0.5 Z"/><text text-anchor="middle" pointer-events="none" font-size="8px" fill="#000000" x="53.12988193053564" y="3" font-family="sans-serif">par…</text></g><g class="relationship" transform="translate(-26.821335646247796 349.2241771093212) rotate(279.17435687366776)"><path class="outline" fill="#A5ABB6" stroke="none" d="M 40 0.5 L 41.15810728668189 0.5 L 41.15810728668189 -0.5 L 40 -0.5 Z M 80.94716978668188 0.5 L 82.10527707336378 0.5 L 82.10527707336378 3.5 L 89.10527707336378 0 L 82.10527707336378 -3.5 L 82.10527707336378 -0.5 L 80.94716978668188 -0.5 Z"/><text text-anchor="middle" pointer-events="none" font-size="8px" fill="#000000" x="61.05263853668189" y="3" font-family="sans-serif">resolve…</text></g><g class="relationship" transform="translate(-26.821335646247796 349.2241771093212) rotate(228.3129113234035)"><path class="outline" fill="#A5ABB6" stroke="none" d="M 40 0.5 L 55.25184935103036 0.5 L 55.25184935103036 -0.5 L 40 -0.5 Z M 83.48231810103036 0.5 L 98.73416745206072 0.5 L 98.73416745206072 3.5 L 105.73416745206072 0 L 98.73416745206072 -3.5 L 98.73416745206072 -0.5 L 83.48231810103036 -0.5 Z"/><text text-anchor="middle" pointer-events="none" font-size="8px" fill="#000000" x="69.36708372603036" y="3" transform="rotate(180 69.36708372603036 0)" font-family="sans-serif">partOf</text></g><g class="relationship" transform="translate(-281.68267441793154 193.64240989020632) rotate(525.1060876647367)"><path class="outline" fill="#A5ABB6" stroke="none" d="M 40 0.5 L 47.61810551478412 0.5 L 47.61810551478412 -0.5 L 40 -0.5 Z M 91.85638676478412 0.5 L 99.47449227956824 0.5 L 99.47449227956824 3.5 L 106.47449227956824 0 L 99.47449227956824 -3.5 L 99.47449227956824 -0.5 L 91.85638676478412 -0.5 Z"/><text text-anchor="middle" pointer-events="none" font-size="8px" fill="#000000" x="69.73724613978412" y="3" transform="rotate(180 69.73724613978412 0)" font-family="sans-serif">resolvesTo</text></g><g class="relationship" transform="translate(-281.68267441793154 193.64240989020632) rotate(375.5471661930726)"><path class="outline" fill="#A5ABB6" stroke="none" d="M 40 0.5 L 60.127724099292266 0.5 L 60.127724099292266 -0.5 L 40 -0.5 Z M 88.35819284929227 0.5 L 108.48591694858453 0.5 L 108.48591694858453 3.5 L 115.48591694858453 0 L 108.48591694858453 -3.5 L 108.48591694858453 -0.5 L 88.35819284929227 -0.5 Z"/><text text-anchor="middle" pointer-events="none" font-size="8px" fill="#000000" x="74.24295847429227" y="3" font-family="sans-serif">partOf</text></g><g class="relationship" transform="translate(-255.45021666806412 331.63047053186233) rotate(462.8285102371504)"><path class="outline" fill="#A5ABB6" stroke="none" d="M 40 0.5 L 48.477651099214114 0.5 L 48.477651099214114 -0.5 L 40 -0.5 Z M 92.71593234921411 0.5 L 101.19358344842823 0.5 L 101.19358344842823 3.5 L 108.19358344842823 0 L 101.19358344842823 -3.5 L 101.19358344842823 -0.5 L 92.71593234921411 -0.5 Z"/><text text-anchor="middle" pointer-events="none" font-size="8px" fill="#000000" x="70.59679172421411" y="3" transform="rotate(180 70.59679172421411 0)" font-family="sans-serif">resolvesTo</text></g><g class="relationship" transform="translate(-255.45021666806412 331.63047053186233) rotate(323.50703565337795)"><path class="outline" fill="#A5ABB6" stroke="none" d="M 40 0.5 L 59.73084533026514 0.5 L 59.73084533026514 -0.5 L 40 -0.5 Z M 87.96131408026514 0.5 L 107.69215941053028 0.5 L 107.69215941053028 3.5 L 114.69215941053028 0 L 107.69215941053028 -3.5 L 107.69215941053028 -0.5 L 87.96131408026514 -0.5 Z"/><text text-anchor="middle" pointer-events="none" font-size="8px" fill="#000000" x="73.84607970526514" y="3" font-family="sans-serif">partOf</text></g><g class="relationship" transform="translate(-130.30143925216416 405.86779037614735) rotate(421.0516176196006)"><path class="outline" fill="#A5ABB6" stroke="none" d="M 40 0.5 L 55.790673846521045 0.5 L 55.790673846521045 -0.5 L 40 -0.5 Z M 100.02895509652105 0.5 L 115.81962894304209 0.5 L 115.81962894304209 3.5 L 122.81962894304209 0 L 115.81962894304209 -3.5 L 115.81962894304209 -0.5 L 100.02895509652105 -0.5 Z"/><text text-anchor="middle" pointer-events="none" font-size="8px" fill="#000000" x="77.90981447152105" y="3" font-family="sans-serif">resolvesTo</text></g><g class="relationship" transform="translate(-130.30143925216416 405.86779037614735) rotate(271.0944231380274)"><path class="outline" fill="#A5ABB6" stroke="none" d="M 40 0.5 L 64.50524804557467 0.5 L 64.50524804557467 -0.5 L 40 -0.5 Z M 92.73571679557467 0.5 L 117.24096484114935 0.5 L 117.24096484114935 3.5 L 124.24096484114935 0 L 117.24096484114935 -3.5 L 117.24096484114935 -0.5 L 92.73571679557467 -0.5 Z"/><text text-anchor="middle" pointer-events="none" font-size="8px" fill="#000000" x="78.62048242057467" y="3" font-family="sans-serif">partOf</text></g></g><g class="layer nodes"><g class="node" transform="translate(305.5965668617398,554.8559311129454)"><circle class="outline" cx="0" cy="0" r="35" fill="#00ff00" stroke="#00e500" stroke-width="2px"/><text text-anchor="middle" pointer-events="none" font-family="sans-serif" dy="2.1875" font-size="35" fill="#604A0E"/><text text-anchor="middle" pointer-events="none" y="5" font-size="10px" fill="#604A0E" font-family="sans-serif"> Saturn.exam…</text></g><g class="node" transform="translate(251.8957803621728,421.40478052001026)"><circle class="outline" cx="0" cy="0" r="37.5" fill="#00ff00" stroke="#00e500" stroke-width="2px"/><text text-anchor="middle" pointer-events="none" font-family="sans-serif" dy="2.34375" font-size="37.5" fill="#604A0E"/><text text-anchor="middle" pointer-events="none" y="5" font-size="10px" fill="#604A0E" font-family="sans-serif"> Sirius.exampl…</text></g><g class="node" transform="translate(202.57366976055366,554.3742567786172)"><circle class="outline" cx="0" cy="0" r="35" fill="#00ff00" stroke="#00e500" stroke-width="2px"/><text text-anchor="middle" pointer-events="none" font-family="sans-serif" dy="2.1875" font-size="35" fill="#604A0E"/><text text-anchor="middle" pointer-events="none" y="5" font-size="10px" fill="#604A0E" font-family="sans-serif"> Jupiter.exam…</text></g><g class="node" transform="translate(368.4871790506928,374.9485047356622)"><circle class="outline" cx="0" cy="0" r="37.5" fill="#00ff00" stroke="#00e500" stroke-width="2px"/><text text-anchor="middle" pointer-events="none" font-family="sans-serif" dy="2.34375" font-size="37.5" fill="#604A0E"/><text text-anchor="middle" pointer-events="none" y="5" font-size="10px" fill="#604A0E" font-family="sans-serif"> Altair.example…</text></g><g class="node" transform="translate(469.99620627037865,480.8376263808783)"><circle class="outline" cx="0" cy="0" r="35" fill="#00ff00" stroke="#00e500" stroke-width="2px"/><text text-anchor="middle" pointer-events="none" font-family="sans-serif" dy="2.1875" font-size="35" fill="#604A0E"/><text text-anchor="middle" pointer-events="none" y="5" font-size="10px" fill="#604A0E" font-family="sans-serif"> Mars.exampl…</text></g><g class="node" transform="translate(525.7550214764243,-43.193144401219946)"><circle class="outline" cx="0" cy="0" r="37.5" fill="#00ff00" stroke="#00e500" stroke-width="2px"/><text text-anchor="middle" pointer-events="none" font-family="sans-serif" dy="2.34375" font-size="37.5" fill="#604A0E"/><text text-anchor="middle" pointer-events="none" y="5" font-size="10px" fill="#604A0E" font-family="sans-serif"> Antares.exam…</text></g><g class="node" transform="translate(656.7156139928392,-39.41125647461278)"><circle class="outline" cx="0" cy="0" r="35" fill="#00ff00" stroke="#00e500" stroke-width="2px"/><text text-anchor="middle" pointer-events="none" font-family="sans-serif" dy="2.1875" font-size="35" fill="#604A0E"/><text text-anchor="middle" pointer-events="none" y="5" font-size="10px" fill="#604A0E" font-family="sans-serif"> Uranus.exa…</text></g><g class="node" transform="translate(214.41600040792218,-162.7873978927097)"><circle class="outline" cx="0" cy="0" r="37.5" fill="#00ff00" stroke="#00e500" stroke-width="2px"/><text text-anchor="middle" pointer-events="none" font-family="sans-serif" dy="2.34375" font-size="37.5" fill="#604A0E"/><text text-anchor="middle" pointer-events="none" y="5" font-size="10px" fill="#604A0E" font-family="sans-serif"> Rigel.example…</text></g><g class="node" transform="translate(573.8510909971384,-169.6458262243149)"><circle class="outline" cx="0" cy="0" r="35" fill="#00ff00" stroke="#00e500" stroke-width="2px"/><text text-anchor="middle" pointer-events="none" font-family="sans-serif" dy="2.1875" font-size="35" fill="#604A0E"/><text text-anchor="middle" pointer-events="none" y="5" font-size="10px" fill="#604A0E" font-family="sans-serif"> Neptune.exa…</text></g><g class="node" transform="translate(-40.9245470393385,-212.02261391080287)"><circle class="outline" cx="0" cy="0" r="37.5" fill="#00ff00" stroke="#00e500" stroke-width="2px"/><text text-anchor="middle" pointer-events="none" font-family="sans-serif" dy="2.34375" font-size="37.5" fill="#604A0E"/><text text-anchor="middle" pointer-events="none" y="5" font-size="10px" fill="#604A0E" font-family="sans-serif"> Hadar.exampl…</text></g><g class="node" transform="translate(333.50097349830935,-247.40650473359256)"><circle class="outline" cx="0" cy="0" r="35" fill="#00ff00" stroke="#00e500" stroke-width="2px"/><text text-anchor="middle" pointer-events="none" font-family="sans-serif" dy="2.1875" font-size="35" fill="#604A0E"/><text text-anchor="middle" pointer-events="none" y="5" font-size="10px" fill="#604A0E" font-family="sans-serif"> Mercury,exa…</text></g><g class="node" transform="translate(99.22633757000895,-421.8811813047648)"><circle class="outline" cx="0" cy="0" r="37.5" fill="#00ff00" stroke="#00e500" stroke-width="2px"/><text text-anchor="middle" pointer-events="none" font-family="sans-serif" dy="2.34375" font-size="37.5" fill="#604A0E"/><text text-anchor="middle" pointer-events="none" y="5" font-size="10px" fill="#604A0E" font-family="sans-serif"> Izar.example.…</text></g><g class="node" transform="translate(-292.2955267991404,-273.95304997631143)"><circle class="outline" cx="0" cy="0" r="37.5" fill="#00ff00" stroke="#00e500" stroke-width="2px"/><text text-anchor="middle" pointer-events="none" font-family="sans-serif" dy="2.34375" font-size="37.5" fill="#604A0E"/><text text-anchor="middle" pointer-events="none" y="5" font-size="10px" fill="#604A0E" font-family="sans-serif"> Keio.example.…</text></g><g class="node" transform="translate(-136.17014469060973,549.4007411923569)"><circle class="outline" cx="0" cy="0" r="37.5" fill="#00ff00" stroke="#00e500" stroke-width="2px"/><text text-anchor="middle" pointer-events="none" font-family="sans-serif" dy="2.34375" font-size="37.5" fill="#604A0E"/><text text-anchor="middle" pointer-events="none" y="5" font-size="10px" fill="#604A0E" font-family="sans-serif"> Ogma.exampl…</text></g><g class="node" transform="translate(252.13598770053795,275.72753764549225)"><circle class="outline" cx="0" cy="0" r="35" fill="#72bcd4" stroke="#8aacb8" stroke-width="2px"/><text text-anchor="middle" pointer-events="none" font-family="sans-serif" dy="2.1875" font-size="35" fill="#604A0E"/><text text-anchor="middle" pointer-events="none" y="5" font-size="10px" fill="#604A0E" font-family="sans-serif"> router1</text></g><g class="node" transform="translate(335.0239257096994,294.12404190953987)"><circle class="outline" cx="0" cy="0" r="40" fill="#86c5da" stroke="#72bcd4" stroke-width="2px"/><text text-anchor="middle" pointer-events="none" font-family="sans-serif" dy="2.5" font-size="40" fill="#604A0E"/><text text-anchor="middle" pointer-events="none" y="5" font-size="10px" fill="#604A0E" font-family="sans-serif"> 147.251.x.17</text></g><g class="node" transform="translate(488.97204471922765,272.13608597390277)"><circle class="outline" cx="0" cy="0" r="35" fill="#99cfe0" stroke="#86c5da" stroke-width="2px"/><text text-anchor="middle" pointer-events="none" font-family="sans-serif" dy="2.1875" font-size="35" fill="#604A0E"/><text text-anchor="middle" pointer-events="none" y="5" font-size="10px" fill="#604A0E" font-family="sans-serif"> domain1.exa…</text></g><g class="node" transform="translate(235.79200400859236,153.13642786280144)"><circle class="outline" cx="0" cy="0" r="45" fill="#add8e6" stroke="#99cfe0" stroke-width="2px"/><text text-anchor="middle" pointer-events="none" font-family="sans-serif" dy="2.8125" font-size="45" fill="#604A0E"/><text text-anchor="middle" pointer-events="none" y="5" font-size="10px" fill="#604A0E" font-family="sans-serif"> 147.251.x.16/28</text></g><g class="node" transform="translate(70.29513529527227,-102.45004657277785)"><circle class="outline" cx="0" cy="0" r="35" fill="#72bcd4" stroke="#8aacb8" stroke-width="2px"/><text text-anchor="middle" pointer-events="none" font-family="sans-serif" dy="2.1875" font-size="35" fill="#604A0E"/><text text-anchor="middle" pointer-events="none" y="5" font-size="10px" fill="#604A0E" font-family="sans-serif"> router2</text></g><g class="node" transform="translate(390.86330677549444,223.50895280944127)"><circle class="outline" cx="0" cy="0" r="40" fill="#86c5da" stroke="#72bcd4" stroke-width="2px"/><text text-anchor="middle" pointer-events="none" font-family="sans-serif" dy="2.5" font-size="40" fill="#604A0E"/><text text-anchor="middle" pointer-events="none" y="5" font-size="10px" fill="#604A0E" font-family="sans-serif"> 147.251.x.18</text></g><g class="node" transform="translate(465.1228327198233,348.45949163261884)"><circle class="outline" cx="0" cy="0" r="35" fill="#99cfe0" stroke="#86c5da" stroke-width="2px"/><text text-anchor="middle" pointer-events="none" font-family="sans-serif" dy="2.1875" font-size="35" fill="#604A0E"/><text text-anchor="middle" pointer-events="none" y="5" font-size="10px" fill="#604A0E" font-family="sans-serif"> domain2.exa…</text></g><g class="node" transform="translate(-17.398279713902014,-122.66628637089596)"><circle class="outline" cx="0" cy="0" r="45" fill="#add8e6" stroke="#99cfe0" stroke-width="2px"/><text text-anchor="middle" pointer-events="none" font-family="sans-serif" dy="2.8125" font-size="45" fill="#604A0E"/><text text-anchor="middle" pointer-events="none" y="5" font-size="10px" fill="#604A0E" font-family="sans-serif"> 147.251.x.48/28</text></g><g class="node" transform="translate(-0.39770761526555565,484.5232207449236)"><circle class="outline" cx="0" cy="0" r="35" fill="#72bcd4" stroke="#8aacb8" stroke-width="2px"/><text text-anchor="middle" pointer-events="none" font-family="sans-serif" dy="2.1875" font-size="35" fill="#604A0E"/><text text-anchor="middle" pointer-events="none" y="5" font-size="10px" fill="#604A0E" font-family="sans-serif"> router3</text></g><g class="node" transform="translate(402.721585842339,55.306587436583456)"><circle class="outline" cx="0" cy="0" r="40" fill="#86c5da" stroke="#72bcd4" stroke-width="2px"/><text text-anchor="middle" pointer-events="none" font-family="sans-serif" dy="2.5" font-size="40" fill="#604A0E"/><text text-anchor="middle" pointer-events="none" y="5" font-size="10px" fill="#604A0E" font-family="sans-serif"> 147.251.x.19</text></g><g class="node" transform="translate(537.7033646836501,180.19930784682717)"><circle class="outline" cx="0" cy="0" r="35" fill="#99cfe0" stroke="#86c5da" stroke-width="2px"/><text text-anchor="middle" pointer-events="none" font-family="sans-serif" dy="2.1875" font-size="35" fill="#604A0E"/><text text-anchor="middle" pointer-events="none" y="5" font-size="10px" fill="#604A0E" font-family="sans-serif"> domain3.exa…</text></g><g class="node" transform="translate(-127.06891555973175,236.65769915537822)"><circle class="outline" cx="0" cy="0" r="45" fill="#add8e6" stroke="#99cfe0" stroke-width="2px"/><text text-anchor="middle" pointer-events="none" font-family="sans-serif" dy="2.8125" font-size="45" fill="#604A0E"/><text text-anchor="middle" pointer-events="none" y="5" font-size="10px" fill="#604A0E" font-family="sans-serif"> 147.251.x.96/28</text></g><g class="node" transform="translate(-404.4574481617361,119.68023628569534)"><circle class="outline" cx="0" cy="0" r="35" fill="#72bcd4" stroke="#8aacb8" stroke-width="2px"/><text text-anchor="middle" pointer-events="none" font-family="sans-serif" dy="2.1875" font-size="35" fill="#604A0E"/><text text-anchor="middle" pointer-events="none" y="5" font-size="10px" fill="#604A0E" font-family="sans-serif"> switch1</text></g><g class="node" transform="translate(330.0190619863625,108.296973894937)"><circle class="outline" cx="0" cy="0" r="40" fill="#86c5da" stroke="#72bcd4" stroke-width="2px"/><text text-anchor="middle" pointer-events="none" font-family="sans-serif" dy="2.5" font-size="40" fill="#604A0E"/><text text-anchor="middle" pointer-events="none" y="5" font-size="10px" fill="#604A0E" font-family="sans-serif"> 147.251.x.20</text></g><g class="node" transform="translate(-53.913348723309916,543.9688218895834)"><circle class="outline" cx="0" cy="0" r="35" fill="#99cfe0" stroke="#86c5da" stroke-width="2px"/><text text-anchor="middle" pointer-events="none" font-family="sans-serif" dy="2.1875" font-size="35" fill="#604A0E"/><text text-anchor="middle" pointer-events="none" y="5" font-size="10px" fill="#604A0E" font-family="sans-serif"> domain4.exa…</text></g><g class="node" transform="translate(31.23707157655193,87.31625047441719)"><circle class="outline" cx="0" cy="0" r="45" fill="#add8e6" stroke="#99cfe0" stroke-width="2px"/><text text-anchor="middle" pointer-events="none" font-family="sans-serif" dy="2.8125" font-size="45" fill="#604A0E"/><text text-anchor="middle" pointer-events="none" y="5" font-size="10px" fill="#604A0E" font-family="sans-serif"> 147.251.x.0/24</text></g><g class="node" transform="translate(-375.98817249935524,402.8858077221659)"><circle class="outline" cx="0" cy="0" r="35" fill="#72bcd4" stroke="#8aacb8" stroke-width="2px"/><text text-anchor="middle" pointer-events="none" font-family="sans-serif" dy="2.1875" font-size="35" fill="#604A0E"/><text text-anchor="middle" pointer-events="none" y="5" font-size="10px" fill="#604A0E" font-family="sans-serif"> switch2</text></g><g class="node" transform="translate(109.18415192788024,-227.48064559490072)"><circle class="outline" cx="0" cy="0" r="40" fill="#86c5da" stroke="#72bcd4" stroke-width="2px"/><text text-anchor="middle" pointer-events="none" font-family="sans-serif" dy="2.5" font-size="40" fill="#604A0E"/><text text-anchor="middle" pointer-events="none" y="5" font-size="10px" fill="#604A0E" font-family="sans-serif"> 147.251.x.56</text></g><g class="node" transform="translate(358.59760249421913,-45.5394074866551)"><circle class="outline" cx="0" cy="0" r="35" fill="#99cfe0" stroke="#86c5da" stroke-width="2px"/><text text-anchor="middle" pointer-events="none" font-family="sans-serif" dy="2.1875" font-size="35" fill="#604A0E"/><text text-anchor="middle" pointer-events="none" y="5" font-size="10px" fill="#604A0E" font-family="sans-serif"> domain5.exa…</text></g><g class="node" transform="translate(-164.51941312199244,-142.99632071781323)"><circle class="outline" cx="0" cy="0" r="40" fill="#86c5da" stroke="#72bcd4" stroke-width="2px"/><text text-anchor="middle" pointer-events="none" font-family="sans-serif" dy="2.5" font-size="40" fill="#604A0E"/><text text-anchor="middle" pointer-events="none" y="5" font-size="10px" fill="#604A0E" font-family="sans-serif"> 147.251.x.57</text></g><g class="node" transform="translate(217.9054554393238,-331.2334166297223)"><circle class="outline" cx="0" cy="0" r="35" fill="#99cfe0" stroke="#86c5da" stroke-width="2px"/><text text-anchor="middle" pointer-events="none" font-family="sans-serif" dy="2.1875" font-size="35" fill="#604A0E"/><text text-anchor="middle" pointer-events="none" y="5" font-size="10px" fill="#604A0E" font-family="sans-serif"> domain6.exa…</text></g><g class="node" transform="translate(13.80318189834101,-297.7013398818408)"><circle class="outline" cx="0" cy="0" r="40" fill="#86c5da" stroke="#72bcd4" stroke-width="2px"/><text text-anchor="middle" pointer-events="none" font-family="sans-serif" dy="2.5" font-size="40" fill="#604A0E"/><text text-anchor="middle" pointer-events="none" y="5" font-size="10px" fill="#604A0E" font-family="sans-serif"> 147.251.x.58</text></g><g class="node" transform="translate(-221.14274188308792,-4.449885612485396)"><circle class="outline" cx="0" cy="0" r="35" fill="#99cfe0" stroke="#86c5da" stroke-width="2px"/><text text-anchor="middle" pointer-events="none" font-family="sans-serif" dy="2.1875" font-size="35" fill="#604A0E"/><text text-anchor="middle" pointer-events="none" y="5" font-size="10px" fill="#604A0E" font-family="sans-serif"> domain7.exa…</text></g><g class="node" transform="translate(-144.78877053087888,-247.99432532526518)"><circle class="outline" cx="0" cy="0" r="40" fill="#86c5da" stroke="#72bcd4" stroke-width="2px"/><text text-anchor="middle" pointer-events="none" font-family="sans-serif" dy="2.5" font-size="40" fill="#604A0E"/><text text-anchor="middle" pointer-events="none" y="5" font-size="10px" fill="#604A0E" font-family="sans-serif"> 147.251.x.59</text></g><g class="node" transform="translate(-16.201802785082762,-438.0534149890262)"><circle class="outline" cx="0" cy="0" r="35" fill="#99cfe0" stroke="#86c5da" stroke-width="2px"/><text text-anchor="middle" pointer-events="none" font-family="sans-serif" dy="2.1875" font-size="35" fill="#604A0E"/><text text-anchor="middle" pointer-events="none" y="5" font-size="10px" fill="#604A0E" font-family="sans-serif"> domain8.exa…</text></g><g class="node" transform="translate(-83.05540617225915,-24.307181587924088)"><circle class="outline" cx="0" cy="0" r="40" fill="#86c5da" stroke="#72bcd4" stroke-width="2px"/><text text-anchor="middle" pointer-events="none" font-family="sans-serif" dy="2.5" font-size="40" fill="#604A0E"/><text text-anchor="middle" pointer-events="none" y="5" font-size="10px" fill="#604A0E" font-family="sans-serif"> 147.251.x.60</text></g><g class="node" transform="translate(-219.3293530740243,-369.6304503762116)"><circle class="outline" cx="0" cy="0" r="35" fill="#99cfe0" stroke="#86c5da" stroke-width="2px"/><text text-anchor="middle" pointer-events="none" font-family="sans-serif" dy="2.1875" font-size="35" fill="#604A0E"/><text text-anchor="middle" pointer-events="none" y="5" font-size="10px" fill="#604A0E" font-family="sans-serif"> domain9.exa…</text></g><g class="node" transform="translate(-26.821335646247796,349.2241771093212)"><circle class="outline" cx="0" cy="0" r="40" fill="#86c5da" stroke="#72bcd4" stroke-width="2px"/><text text-anchor="middle" pointer-events="none" font-family="sans-serif" dy="2.5" font-size="40" fill="#604A0E"/><text text-anchor="middle" pointer-events="none" y="5" font-size="10px" fill="#604A0E" font-family="sans-serif"> 147.251.x.105</text></g><g class="node" transform="translate(-243.94753019460208,-81.02347191962444)"><circle class="outline" cx="0" cy="0" r="35" fill="#99cfe0" stroke="#86c5da" stroke-width="2px"/><text text-anchor="middle" pointer-events="none" font-family="sans-serif" dy="2.1875" font-size="35" fill="#604A0E"/><text text-anchor="middle" pointer-events="none" y="5" font-size="10px" fill="#604A0E" font-family="sans-serif"> domain10.ex…</text></g><g class="node" transform="translate(-281.68267441793154,193.64240989020632)"><circle class="outline" cx="0" cy="0" r="40" fill="#86c5da" stroke="#72bcd4" stroke-width="2px"/><text text-anchor="middle" pointer-events="none" font-family="sans-serif" dy="2.5" font-size="40" fill="#604A0E"/><text text-anchor="middle" pointer-events="none" y="5" font-size="10px" fill="#604A0E" font-family="sans-serif"> 147.251.x.106</text></g><g class="node" transform="translate(-7.034068212336724,226.7064892232234)"><circle class="outline" cx="0" cy="0" r="35" fill="#99cfe0" stroke="#86c5da" stroke-width="2px"/><text text-anchor="middle" pointer-events="none" font-family="sans-serif" dy="2.1875" font-size="35" fill="#604A0E"/><text text-anchor="middle" pointer-events="none" y="5" font-size="10px" fill="#604A0E" font-family="sans-serif"> domain11.ex…</text></g><g class="node" transform="translate(-255.45021666806412,331.63047053186233)"><circle class="outline" cx="0" cy="0" r="40" fill="#86c5da" stroke="#72bcd4" stroke-width="2px"/><text text-anchor="middle" pointer-events="none" font-family="sans-serif" dy="2.5" font-size="40" fill="#604A0E"/><text text-anchor="middle" pointer-events="none" y="5" font-size="10px" fill="#604A0E" font-family="sans-serif"> 147.251.x.107</text></g><g class="node" transform="translate(-418.40410394576736,230.00561483183148)"><circle class="outline" cx="0" cy="0" r="35" fill="#99cfe0" stroke="#86c5da" stroke-width="2px"/><text text-anchor="middle" pointer-events="none" font-family="sans-serif" dy="2.1875" font-size="35" fill="#604A0E"/><text text-anchor="middle" pointer-events="none" y="5" font-size="10px" fill="#604A0E" font-family="sans-serif"> domain12.ex…</text></g><g class="node" transform="translate(-130.30143925216416,405.86779037614735)"><circle class="outline" cx="0" cy="0" r="40" fill="#86c5da" stroke="#72bcd4" stroke-width="2px"/><text text-anchor="middle" pointer-events="none" font-family="sans-serif" dy="2.5" font-size="40" fill="#604A0E"/><text text-anchor="middle" pointer-events="none" y="5" font-size="10px" fill="#604A0E" font-family="sans-serif"> 147.251.x.108</text></g><g class="node" transform="translate(-287.24401811246867,471.2497977416572)"><circle class="outline" cx="0" cy="0" r="35" fill="#99cfe0" stroke="#86c5da" stroke-width="2px"/><text text-anchor="middle" pointer-events="none" font-family="sans-serif" dy="2.1875" font-size="35" fill="#604A0E"/><text text-anchor="middle" pointer-events="none" y="5" font-size="10px" fill="#604A0E" font-family="sans-serif"> domain13.ex…</text></g></g></svg>