<svg xmlns="http://www.w3.org/2000/svg" width="868.1339111328125" height="872.9122314453125" viewBox="-342.9925231933594 -332.73004150390625 868.1339111328125 872.9122314453125"><title>Neo4j Graph Visualization</title><desc>Created using Neo4j (http://www.neo4j.com/)</desc><g class="layer relationships"><g class="relationship" transform="translate(86.30560069725867 377.5106387578426) rotate(265.73591237030774)"><path class="outline" fill="#A5ABB6" stroke="none" d="M 42.5 0.5 L 47.413434278372435 0.5 L 47.413434278372435 -0.5 L 42.5 -0.5 Z M 94.78062177837243 0.5 L 99.69405605674487 0.5 L 99.69405605674487 3.5 L 106.69405605674487 0 L 99.69405605674487 -3.5 L 99.69405605674487 -0.5 L 94.78062177837243 -0.5 Z"/><text text-anchor="middle" pointer-events="none" font-size="8px" fill="#000000" x="71.09702802837243" y="3" transform="rotate(180 71.09702802837243 0)" font-family="sans-serif">dependsOn</text></g><g class="relationship" transform="translate(86.30560069725867 377.5106387578426) rotate(377.04682877055654)"><path class="outline" fill="#A5ABB6" stroke="none" d="M 42.5 0.5 L 45.730162569174354 0.5 L 45.730162569174354 -0.5 L 42.5 -0.5 Z M 91.75360006917435 0.5 L 94.98376263834871 0.5 L 94.98376263834871 3.5 L 101.98376263834871 0 L 94.98376263834871 -3.5 L 94.98376263834871 -0.5 L 91.75360006917435 -0.5 Z"/><text text-anchor="middle" pointer-events="none" font-size="8px" fill="#000000" x="68.74188131917435" y="3" font-family="sans-serif">providedBy</text></g><g class="relationship" transform="translate(131.4323018122216 178.77443806021952) rotate(235.56183355931375)"><path class="outline" fill="#A5ABB6" stroke="none" d="M 35 0.5 L 35.134792983589236 0.5 L 35.134792983589236 -0.5 L 35 -0.5 Z M 71.38088673358924 0.5 L 71.51567971717847 0.5 L 71.51567971717847 3.5 L 78.51567971717847 0 L 71.51567971717847 -3.5 L 71.51567971717847 -0.5 L 71.38088673358924 -0.5 Z"/><text text-anchor="middle" pointer-events="none" font-size="8px" fill="#000000" x="53.257839858589236" y="3" transform="rotate(180 53.257839858589236 0)" font-family="sans-serif">depen…</text></g><g class="relationship" transform="translate(131.4323018122216 178.77443806021952) rotate(533.7154312821896)"><path class="outline" fill="#A5ABB6" stroke="none" d="M 35 0.5 L 50.41949134574638 0.5 L 50.41949134574638 -0.5 L 35 -0.5 Z M 100.01324134574638 0.5 L 115.43273269149276 0.5 L 115.43273269149276 3.5 L 122.43273269149276 0 L 115.43273269149276 -3.5 L 115.43273269149276 -0.5 L 100.01324134574638 -0.5 Z"/><text text-anchor="middle" pointer-events="none" font-size="8px" fill="#000000" x="75.21636634574638" y="3" transform="rotate(180 75.21636634574638 0)" font-family="sans-serif">dependency</text></g><g class="relationship" transform="translate(488.641407530452 -22.61432020867785) rotate(237.5345025520731)"><path class="outline" fill="#A5ABB6" stroke="none" d="M 32.5 0.5 L 33.84722395501268 0.5 L 33.84722395501268 -0.5 L 32.5 -0.5 Z M 77.20269270501268 0.5 L 78.54991666002536 0.5 L 78.54991666002536 3.5 L 85.54991666002536 0 L 78.54991666002536 -3.5 L 78.54991666002536 -0.5 L 77.20269270501268 -0.5 Z"/><text text-anchor="middle" pointer-events="none" font-size="8px" fill="#000000" x="55.52495833001268" y="3" transform="rotate(180 55.52495833001268 0)" font-family="sans-serif">presentOn</text></g><g class="relationship" transform="translate(274.29801551076537 192.88697449578763) rotate(359.07814882868604)"><path class="outline" fill="#A5ABB6" stroke="none" d="M 42.5 0.5 L 46.08160420386511 0.5 L 46.08160420386511 -0.5 L 42.5 -0.5 Z M 92.10504170386511 0.5 L 95.68664590773022 0.5 L 95.68664590773022 3.5 L 102.68664590773022 0 L 95.68664590773022 -3.5 L 95.68664590773022 -0.5 L 92.10504170386511 -0.5 Z"/><text text-anchor="middle" pointer-events="none" font-size="8px" fill="#000000" x="69.09332295386511" y="3" font-family="sans-serif">providedBy</text></g><g class="relationship" transform="translate(274.29801551076537 192.88697449578763) rotate(185.64147980243445)"><path class="outline" fill="#A5ABB6" stroke="none" d="M 42.5 0.5 L 48.346932570234515 0.5 L 48.346932570234515 -0.5 L 42.5 -0.5 Z M 95.71412007023451 0.5 L 101.56105264046903 0.5 L 101.56105264046903 3.5 L 108.56105264046903 0 L 101.56105264046903 -3.5 L 101.56105264046903 -0.5 L 95.71412007023451 -0.5 Z"/><text text-anchor="middle" pointer-events="none" font-size="8px" fill="#000000" x="72.03052632023451" y="3" transform="rotate(180 72.03052632023451 0)" font-family="sans-serif">dependsOn</text></g><g class="relationship" transform="translate(75.77012515207956 236.2088012720941) rotate(265.3555006836663)"><path class="outline" fill="#A5ABB6" stroke="none" d="M 35 0.5 L 46.832375878480306 0.5 L 46.832375878480306 -0.5 L 35 -0.5 Z M 96.4261258784803 0.5 L 108.25850175696061 0.5 L 108.25850175696061 3.5 L 115.25850175696061 0 L 108.25850175696061 -3.5 L 108.25850175696061 -0.5 L 96.4261258784803 -0.5 Z"/><text text-anchor="middle" pointer-events="none" font-size="8px" fill="#000000" x="71.6292508784803" y="3" transform="rotate(180 71.6292508784803 0)" font-family="sans-serif">dependency</text></g><g class="relationship" transform="translate(75.77012515207956 236.2088012720941) rotate(199.9856364878222)"><path class="outline" fill="#A5ABB6" stroke="none" d="M 35 0.5 L 36.68517641755029 0.5 L 36.68517641755029 -0.5 L 35 -0.5 Z M 64.03283266755028 0.5 L 65.71800908510058 0.5 L 65.71800908510058 3.5 L 72.71800908510058 0 L 65.71800908510058 -3.5 L 65.71800908510058 -0.5 L 64.03283266755028 -0.5 Z"/><text text-anchor="middle" pointer-events="none" font-size="8px" fill="#000000" x="50.35900454255029" y="3" transform="rotate(180 50.35900454255029 0)" font-family="sans-serif">dep…</text></g><g class="relationship" transform="translate(122.1322385336179 503.6821882692352) rotate(254.14800945493045)"><path class="outline" fill="#A5ABB6" stroke="none" d="M 32.5 0.5 L 35.402003129741956 0.5 L 35.402003129741956 -0.5 L 32.5 -0.5 Z M 78.75747187974196 0.5 L 81.65947500948391 0.5 L 81.65947500948391 3.5 L 88.65947500948391 0 L 81.65947500948391 -3.5 L 81.65947500948391 -0.5 L 78.75747187974196 -0.5 Z"/><text text-anchor="middle" pointer-events="none" font-size="8px" fill="#000000" x="57.079737504741956" y="3" transform="rotate(180 57.079737504741956 0)" font-family="sans-serif">presentOn</text></g><g class="relationship" transform="translate(419.90528342353815 -130.6519358774734) rotate(217.1650968740716)"><path class="outline" fill="#A5ABB6" stroke="none" d="M 42.5 0.5 L 44.36681604794721 0.5 L 44.36681604794721 -0.5 L 42.5 -0.5 Z M 84.60509729794721 0.5 L 86.47191334589442 0.5 L 86.47191334589442 3.5 L 93.47191334589442 0 L 86.47191334589442 -3.5 L 86.47191334589442 -0.5 L 84.60509729794721 -0.5 Z"/><text text-anchor="middle" pointer-events="none" font-size="8px" fill="#000000" x="64.48595667294721" y="3" transform="rotate(180 64.48595667294721 0)" font-family="sans-serif">provide…</text></g><g class="relationship" transform="translate(335.623679312137 76.44979922975165) rotate(477.7750843160716)"><path class="outline" fill="#A5ABB6" stroke="none" d="M 32.5 0.5 L 35.62206202402476 0.5 L 35.62206202402476 -0.5 L 32.5 -0.5 Z M 78.97753077402476 0.5 L 82.09959279804951 0.5 L 82.09959279804951 3.5 L 89.09959279804951 0 L 82.09959279804951 -3.5 L 82.09959279804951 -0.5 L 78.97753077402476 -0.5 Z"/><text text-anchor="middle" pointer-events="none" font-size="8px" fill="#000000" x="57.29979639902476" y="3" transform="rotate(180 57.29979639902476 0)" font-family="sans-serif">presentOn</text></g><g class="relationship" transform="translate(143.48391542476304 -286.23005110261806) rotate(538.0658168982009)"><path class="outline" fill="#A5ABB6" stroke="none" d="M 42.5 0.5 L 44.716323033861144 0.5 L 44.716323033861144 -0.5 L 42.5 -0.5 Z M 84.95460428386114 0.5 L 87.17092731772229 0.5 L 87.17092731772229 3.5 L 94.17092731772229 0 L 87.17092731772229 -3.5 L 87.17092731772229 -0.5 L 84.95460428386114 -0.5 Z"/><text text-anchor="middle" pointer-events="none" font-size="8px" fill="#000000" x="64.83546365886114" y="3" transform="rotate(180 64.83546365886114 0)" font-family="sans-serif">provide…</text></g><g class="relationship" transform="translate(151.86832610848253 -23.973272452232937) rotate(490.80496861335087)"><path class="outline" fill="#A5ABB6" stroke="none" d="M 32.5 0.5 L 37.82093403514786 0.5 L 37.82093403514786 -0.5 L 32.5 -0.5 Z M 81.17640278514786 0.5 L 86.49733682029571 0.5 L 86.49733682029571 3.5 L 93.49733682029571 0 L 86.49733682029571 -3.5 L 86.49733682029571 -0.5 L 81.17640278514786 -0.5 Z"/><text text-anchor="middle" pointer-events="none" font-size="8px" fill="#000000" x="59.49866841014786" y="3" transform="rotate(180 59.49866841014786 0)" font-family="sans-serif">presentOn</text></g><g class="relationship" transform="translate(-289.57701997984054 41.83982476709007) rotate(309.0944535061136)"><path class="outline" fill="#A5ABB6" stroke="none" d="M 42.5 0.5 L 45.49083262363102 0.5 L 45.49083262363102 -0.5 L 42.5 -0.5 Z M 91.51427012363102 0.5 L 94.50510274726204 0.5 L 94.50510274726204 3.5 L 101.50510274726204 0 L 94.50510274726204 -3.5 L 94.50510274726204 -0.5 L 91.51427012363102 -0.5 Z"/><text text-anchor="middle" pointer-events="none" font-size="8px" fill="#000000" x="68.50255137363102" y="3" font-family="sans-serif">providedBy</text></g><g class="relationship" transform="translate(-168.77836487737767 189.2104567276231) rotate(363.19999261471526)"><path class="outline" fill="#A5ABB6" stroke="none" d="M 32.5 0.5 L 38.063219663383705 0.5 L 38.063219663383705 -0.5 L 32.5 -0.5 Z M 81.4186884133837 0.5 L 86.98190807676741 0.5 L 86.98190807676741 3.5 L 93.98190807676741 0 L 86.98190807676741 -3.5 L 86.98190807676741 -0.5 L 81.4186884133837 -0.5 Z"/><text text-anchor="middle" pointer-events="none" font-size="8px" fill="#000000" x="59.740954038383705" y="3" font-family="sans-serif">presentOn</text></g><g class="relationship" transform="translate(62.995936849886824 78.96833259490825) rotate(212.32919603218346)"><path class="outline" fill="#A5ABB6" stroke="none" d="M 42.5 0.5 L 45.13165871558938 0.5 L 45.13165871558938 -0.5 L 42.5 -0.5 Z M 91.15509621558938 0.5 L 93.78675493117876 0.5 L 93.78675493117876 3.5 L 100.78675493117876 0 L 93.78675493117876 -3.5 L 93.78675493117876 -0.5 L 91.15509621558938 -0.5 Z"/><text text-anchor="middle" pointer-events="none" font-size="8px" fill="#000000" x="68.14337746558938" y="3" transform="rotate(180 68.14337746558938 0)" font-family="sans-serif">providedBy</text></g><g class="relationship" transform="translate(-306.4925101389312 -85.61647086023596) rotate(442.44011201617855)"><path class="outline" fill="#A5ABB6" stroke="none" d="M 32.5 0.5 L 34.10920267748878 0.5 L 34.10920267748878 -0.5 L 32.5 -0.5 Z M 77.46467142748878 0.5 L 79.07387410497756 0.5 L 79.07387410497756 3.5 L 86.07387410497756 0 L 79.07387410497756 -3.5 L 79.07387410497756 -0.5 L 77.46467142748878 -0.5 Z"/><text text-anchor="middle" pointer-events="none" font-size="8px" fill="#000000" x="55.78693705248878" y="3" font-family="sans-serif">presentOn</text></g><g class="relationship" transform="translate(-32.509263298174204 196.82906467605565) rotate(495.4681075207415)"><path class="outline" fill="#A5ABB6" stroke="none" d="M 42.5 0.5 L 47.63148418642699 0.5 L 47.63148418642699 -0.5 L 42.5 -0.5 Z M 93.65492168642699 0.5 L 98.78640587285398 0.5 L 98.78640587285398 3.5 L 105.78640587285398 0 L 98.78640587285398 -3.5 L 98.78640587285398 -0.5 L 93.65492168642699 -0.5 Z"/><text text-anchor="middle" pointer-events="none" font-size="8px" fill="#000000" x="70.64320293642699" y="3" transform="rotate(180 70.64320293642699 0)" font-family="sans-serif">providedBy</text></g><g class="relationship" transform="translate(41.56244820236977 -58.556811366317305) rotate(441.1416350322148)"><path class="outline" fill="#A5ABB6" stroke="none" d="M 32.5 0.5 L 39.41493703722388 0.5 L 39.41493703722388 -0.5 L 32.5 -0.5 Z M 82.77040578722388 0.5 L 89.68534282444776 0.5 L 89.68534282444776 3.5 L 96.68534282444776 0 L 89.68534282444776 -3.5 L 89.68534282444776 -0.5 L 82.77040578722388 -0.5 Z"/><text text-anchor="middle" pointer-events="none" font-size="8px" fill="#000000" x="61.09267141222388" y="3" font-family="sans-serif">presentOn</text></g><g class="relationship" transform="translate(355.9525831356557 298.0350091443118) rotate(232.16824100824942)"><path class="outline" fill="#A5ABB6" stroke="none" d="M 32.5 0.5 L 36.387229390585844 0.5 L 36.387229390585844 -0.5 L 32.5 -0.5 Z M 79.74269814058584 0.5 L 83.62992753117169 0.5 L 83.62992753117169 3.5 L 90.62992753117169 0 L 83.62992753117169 -3.5 L 83.62992753117169 -0.5 L 79.74269814058584 -0.5 Z"/><text text-anchor="middle" pointer-events="none" font-size="8px" fill="#000000" x="58.064963765585844" y="3" transform="rotate(180 58.064963765585844 0)" font-family="sans-serif">presentOn</text></g><g class="relationship" transform="translate(-23.075195184136568 453.6572828681211) rotate(325.1558693998923)"><path class="outline" fill="#A5ABB6" stroke="none" d="M 32.5 0.5 L 36.46022387122942 0.5 L 36.46022387122942 -0.5 L 32.5 -0.5 Z M 79.81569262122942 0.5 L 83.77591649245883 0.5 L 83.77591649245883 3.5 L 90.77591649245883 0 L 83.77591649245883 -3.5 L 83.77591649245883 -0.5 L 79.81569262122942 -0.5 Z"/><text text-anchor="middle" pointer-events="none" font-size="8px" fill="#000000" x="58.13795824622942" y="3" font-family="sans-serif">presentOn</text></g></g><g class="layer nodes"><g class="node" transform="translate(86.30560069725867,377.5106387578426)"><circle class="outline" cx="0" cy="0" r="42.5" fill="#ff3232" stroke="#ff1919" stroke-width="2px"/><text text-anchor="middle" pointer-events="none" font-family="sans-serif" dy="2.65625" font-size="42.5" fill="#604A0E"/><text text-anchor="middle" pointer-events="none" y="5" font-size="10px" fill="#604A0E" font-family="sans-serif"> WebServer1</text></g><g class="node" transform="translate(219.66121067992623,418.4007515713562)"><circle class="outline" cx="0" cy="0" r="37.5" fill="#ff4c4c" stroke="#ff3232" stroke-width="2px"/><text text-anchor="middle" pointer-events="none" font-family="sans-serif" dy="2.34375" font-size="37.5" fill="#604A0E"/><text text-anchor="middle" pointer-events="none" y="5" font-size="10px" fill="#604A0E" font-family="sans-serif"> RedundancyN…</text></g><g class="node" transform="translate(131.4323018122216,178.77443806021952)"><circle class="outline" cx="0" cy="0" r="35" fill="#ff6666" stroke="#ff4c4c" stroke-width="2px"/><text text-anchor="middle" pointer-events="none" font-family="sans-serif" dy="2.1875" font-size="35" fill="#604A0E"/><text text-anchor="middle" pointer-events="none" y="5" font-size="10px" fill="#604A0E" font-family="sans-serif"> Dependency…</text></g><g class="node" transform="translate(488.641407530452,-22.61432020867785)"><circle class="outline" cx="0" cy="0" r="32.5" fill="#ff7f7f" stroke="#ff6666" stroke-width="2px"/><text text-anchor="middle" pointer-events="none" font-family="sans-serif" dy="2.03125" font-size="32.5" fill="#604A0E"/><text text-anchor="middle" pointer-events="none" y="5" font-size="10px" fill="#604A0E" font-family="sans-serif"> ProductsData</text></g><g class="node" transform="translate(274.29801551076537,192.88697449578763)"><circle class="outline" cx="0" cy="0" r="42.5" fill="#ff3232" stroke="#ff1919" stroke-width="2px"/><text text-anchor="middle" pointer-events="none" font-family="sans-serif" dy="2.65625" font-size="42.5" fill="#604A0E"/><text text-anchor="middle" pointer-events="none" y="5" font-size="10px" fill="#604A0E" font-family="sans-serif"> WebServer2</text></g><g class="node" transform="translate(414.46651697554853,190.63156145680452)"><circle class="outline" cx="0" cy="0" r="37.5" fill="#ff4c4c" stroke="#ff3232" stroke-width="2px"/><text text-anchor="middle" pointer-events="none" font-family="sans-serif" dy="2.34375" font-size="37.5" fill="#604A0E"/><text text-anchor="middle" pointer-events="none" y="5" font-size="10px" fill="#604A0E" font-family="sans-serif"> RedundancyN…</text></g><g class="node" transform="translate(75.77012515207956,236.2088012720941)"><circle class="outline" cx="0" cy="0" r="35" fill="#ff6666" stroke="#ff4c4c" stroke-width="2px"/><text text-anchor="middle" pointer-events="none" font-family="sans-serif" dy="2.1875" font-size="35" fill="#604A0E"/><text text-anchor="middle" pointer-events="none" y="5" font-size="10px" fill="#604A0E" font-family="sans-serif"> Dependency…</text></g><g class="node" transform="translate(122.1322385336179,503.6821882692352)"><circle class="outline" cx="0" cy="0" r="32.5" fill="#ff7f7f" stroke="#ff6666" stroke-width="2px"/><text text-anchor="middle" pointer-events="none" font-family="sans-serif" dy="2.03125" font-size="32.5" fill="#604A0E"/><text text-anchor="middle" pointer-events="none" y="5" font-size="10px" fill="#604A0E" font-family="sans-serif"> WebServer…</text></g><g class="node" transform="translate(419.90528342353815,-130.6519358774734)"><circle class="outline" cx="0" cy="0" r="42.5" fill="#ff3232" stroke="#ff1919" stroke-width="2px"/><text text-anchor="middle" pointer-events="none" font-family="sans-serif" dy="2.65625" font-size="42.5" fill="#604A0E"/><text text-anchor="middle" pointer-events="none" y="5" font-size="10px" fill="#604A0E" font-family="sans-serif"> FileServer1</text></g><g class="node" transform="translate(315.53401759596073,-209.77387313278615)"><circle class="outline" cx="0" cy="0" r="37.5" fill="#ff4c4c" stroke="#ff3232" stroke-width="2px"/><text text-anchor="middle" pointer-events="none" font-family="sans-serif" dy="2.34375" font-size="37.5" fill="#604A0E"/><text text-anchor="middle" pointer-events="none" y="5" font-size="10px" fill="#604A0E" font-family="sans-serif"> RedundancyN…</text></g><g class="node" transform="translate(335.623679312137,76.44979922975165)"><circle class="outline" cx="0" cy="0" r="32.5" fill="#ff7f7f" stroke="#ff6666" stroke-width="2px"/><text text-anchor="middle" pointer-events="none" font-family="sans-serif" dy="2.03125" font-size="32.5" fill="#604A0E"/><text text-anchor="middle" pointer-events="none" y="5" font-size="10px" fill="#604A0E" font-family="sans-serif"> InternalData</text></g><g class="node" transform="translate(143.48391542476304,-286.23005110261806)"><circle class="outline" cx="0" cy="0" r="42.5" fill="#ff3232" stroke="#ff1919" stroke-width="2px"/><text text-anchor="middle" pointer-events="none" font-family="sans-serif" dy="2.65625" font-size="42.5" fill="#604A0E"/><text text-anchor="middle" pointer-events="none" y="5" font-size="10px" fill="#604A0E" font-family="sans-serif"> FileServer2</text></g><g class="node" transform="translate(11.888006638705,-281.785966103386)"><circle class="outline" cx="0" cy="0" r="37.5" fill="#ff4c4c" stroke="#ff3232" stroke-width="2px"/><text text-anchor="middle" pointer-events="none" font-family="sans-serif" dy="2.34375" font-size="37.5" fill="#604A0E"/><text text-anchor="middle" pointer-events="none" y="5" font-size="10px" fill="#604A0E" font-family="sans-serif"> RedundancyN…</text></g><g class="node" transform="translate(151.86832610848253,-23.973272452232937)"><circle class="outline" cx="0" cy="0" r="32.5" fill="#ff7f7f" stroke="#ff6666" stroke-width="2px"/><text text-anchor="middle" pointer-events="none" font-family="sans-serif" dy="2.03125" font-size="32.5" fill="#604A0E"/><text text-anchor="middle" pointer-events="none" y="5" font-size="10px" fill="#604A0E" font-family="sans-serif"> Database1…</text></g><g class="node" transform="translate(-289.57701997984054,41.83982476709007)"><circle class="outline" cx="0" cy="0" r="42.5" fill="#ff3232" stroke="#ff1919" stroke-width="2px"/><text text-anchor="middle" pointer-events="none" font-family="sans-serif" dy="2.65625" font-size="42.5" fill="#604A0E"/><text text-anchor="middle" pointer-events="none" y="5" font-size="10px" fill="#604A0E" font-family="sans-serif"> MailServer</text></g><g class="node" transform="translate(-201.92030771543,-66.04307186055532)"><circle class="outline" cx="0" cy="0" r="37.5" fill="#ff4c4c" stroke="#ff3232" stroke-width="2px"/><text text-anchor="middle" pointer-events="none" font-family="sans-serif" dy="2.34375" font-size="37.5" fill="#604A0E"/><text text-anchor="middle" pointer-events="none" y="5" font-size="10px" fill="#604A0E" font-family="sans-serif"> RedundancyN…</text></g><g class="node" transform="translate(-168.77836487737767,189.2104567276231)"><circle class="outline" cx="0" cy="0" r="32.5" fill="#ff7f7f" stroke="#ff6666" stroke-width="2px"/><text text-anchor="middle" pointer-events="none" font-family="sans-serif" dy="2.03125" font-size="32.5" fill="#604A0E"/><text text-anchor="middle" pointer-events="none" y="5" font-size="10px" fill="#604A0E" font-family="sans-serif"> Database2…</text></g><g class="node" transform="translate(62.995936849886824,78.96833259490825)"><circle class="outline" cx="0" cy="0" r="42.5" fill="#ff3232" stroke="#ff1919" stroke-width="2px"/><text text-anchor="middle" pointer-events="none" font-family="sans-serif" dy="2.65625" font-size="42.5" fill="#604A0E"/><text text-anchor="middle" pointer-events="none" y="5" font-size="10px" fill="#604A0E" font-family="sans-serif"> DatabaseServer1</text></g><g class="node" transform="translate(-53.85491009906951,5.0149272865150625)"><circle class="outline" cx="0" cy="0" r="37.5" fill="#ff4c4c" stroke="#ff3232" stroke-width="2px"/><text text-anchor="middle" pointer-events="none" font-family="sans-serif" dy="2.34375" font-size="37.5" fill="#604A0E"/><text text-anchor="middle" pointer-events="none" y="5" font-size="10px" fill="#604A0E" font-family="sans-serif"> RedundancyN…</text></g><g class="node" transform="translate(-306.4925101389312,-85.61647086023596)"><circle class="outline" cx="0" cy="0" r="32.5" fill="#ff7f7f" stroke="#ff6666" stroke-width="2px"/><text text-anchor="middle" pointer-events="none" font-family="sans-serif" dy="2.03125" font-size="32.5" fill="#604A0E"/><text text-anchor="middle" pointer-events="none" y="5" font-size="10px" fill="#604A0E" font-family="sans-serif"> MailData</text></g><g class="node" transform="translate(-32.509263298174204,196.82906467605565)"><circle class="outline" cx="0" cy="0" r="42.5" fill="#ff3232" stroke="#ff1919" stroke-width="2px"/><text text-anchor="middle" pointer-events="none" font-family="sans-serif" dy="2.65625" font-size="42.5" fill="#604A0E"/><text text-anchor="middle" pointer-events="none" y="5" font-size="10px" fill="#604A0E" font-family="sans-serif"> DatabaseServer2</text></g><g class="node" transform="translate(-134.6524381595372,297.3167053947095)"><circle class="outline" cx="0" cy="0" r="37.5" fill="#ff4c4c" stroke="#ff3232" stroke-width="2px"/><text text-anchor="middle" pointer-events="none" font-family="sans-serif" dy="2.34375" font-size="37.5" fill="#604A0E"/><text text-anchor="middle" pointer-events="none" y="5" font-size="10px" fill="#604A0E" font-family="sans-serif"> RedundancyN…</text></g><g class="node" transform="translate(41.56244820236977,-58.556811366317305)"><circle class="outline" cx="0" cy="0" r="32.5" fill="#ff7f7f" stroke="#ff6666" stroke-width="2px"/><text text-anchor="middle" pointer-events="none" font-family="sans-serif" dy="2.03125" font-size="32.5" fill="#604A0E"/><text text-anchor="middle" pointer-events="none" y="5" font-size="10px" fill="#604A0E" font-family="sans-serif"> Customers…</text></g><g class="node" transform="translate(355.9525831356557,298.0350091443118)"><circle class="outline" cx="0" cy="0" r="32.5" fill="#ff7f7f" stroke="#ff6666" stroke-width="2px"/><text text-anchor="middle" pointer-events="none" font-family="sans-serif" dy="2.03125" font-size="32.5" fill="#604A0E"/><text text-anchor="middle" pointer-events="none" y="5" font-size="10px" fill="#604A0E" font-family="sans-serif"> WebSource…</text></g><g class="node" transform="translate(-23.075195184136568,453.6572828681211)"><circle class="outline" cx="0" cy="0" r="32.5" fill="#ff7f7f" stroke="#ff6666" stroke-width="2px"/><text text-anchor="middle" pointer-events="none" font-family="sans-serif" dy="2.03125" font-size="32.5" fill="#604A0E"/><text text-anchor="middle" pointer-events="none" y="5" font-size="10px" fill="#604A0E" font-family="sans-serif"> Payments</text></g></g></svg>